<mxfile host="app.diagrams.net" modified="2022-03-16T12:02:13.350Z" agent="5.0 (Windows NT 10.0; Win64; x64) AppleWebKit/537.36 (KHTML, like Gecko) Chrome/99.0.4844.51 Safari/537.36" etag="ESWOU7e_wA6MlF_OvCFz" version="17.1.3" type="github">
  <diagram name="Page-1" id="03018318-947c-dd8e-b7a3-06fadd420f32">
    <mxGraphModel dx="1730" dy="898" grid="1" gridSize="10" guides="1" tooltips="1" connect="1" arrows="1" fold="1" page="1" pageScale="1" pageWidth="1100" pageHeight="850" background="none" math="0" shadow="0">
      <root>
        <mxCell id="0" />
        <mxCell id="1" parent="0" />
        <mxCell id="677b7b8949515195-1" value="" style="whiteSpace=wrap;html=1;rounded=0;shadow=0;labelBackgroundColor=none;strokeColor=#000000;strokeWidth=1;fillColor=none;fontFamily=Verdana;fontSize=12;fontColor=#000000;align=center;comic=1;" parent="1" vertex="1">
          <mxGeometry x="20" y="20" width="1060" height="810" as="geometry" />
        </mxCell>
        <mxCell id="677b7b8949515195-8" value="" style="whiteSpace=wrap;html=1;rounded=0;shadow=0;labelBackgroundColor=none;strokeWidth=1;fillColor=none;fontFamily=Verdana;fontSize=12;align=center;comic=1;" parent="1" vertex="1">
          <mxGeometry x="30" y="170" width="200" height="650" as="geometry" />
        </mxCell>
        <mxCell id="dpha32R9wAHPKwejQila-17" value="" style="rounded=0;whiteSpace=wrap;html=1;" vertex="1" parent="1">
          <mxGeometry x="39.3" y="481" width="160.7" height="49" as="geometry" />
        </mxCell>
        <mxCell id="677b7b8949515195-2" value="" style="whiteSpace=wrap;html=1;rounded=0;shadow=0;labelBackgroundColor=none;strokeWidth=1;fontFamily=Verdana;fontSize=28;align=center;comic=1;" parent="1" vertex="1">
          <mxGeometry x="39.3" y="40" width="150.7" height="80" as="geometry" />
        </mxCell>
        <mxCell id="677b7b8949515195-9" value="" style="line;strokeWidth=1;html=1;rounded=0;shadow=0;labelBackgroundColor=none;fillColor=none;fontFamily=Verdana;fontSize=14;fontColor=#000000;align=center;comic=1;" parent="1" vertex="1">
          <mxGeometry x="20" y="140" width="1060" height="10" as="geometry" />
        </mxCell>
        <mxCell id="677b7b8949515195-16" value="" style="verticalLabelPosition=bottom;shadow=0;dashed=0;align=center;html=1;verticalAlign=top;strokeWidth=1;shape=mxgraph.mockup.graphics.simpleIcon;strokeColor=#999999;rounded=0;labelBackgroundColor=none;fontFamily=Verdana;fontSize=14;fontColor=#000000;comic=1;" parent="1" vertex="1">
          <mxGeometry x="240" y="170" width="623.5" height="430" as="geometry" />
        </mxCell>
        <mxCell id="677b7b8949515195-26" value="" style="whiteSpace=wrap;html=1;rounded=0;shadow=0;labelBackgroundColor=none;strokeWidth=1;fillColor=none;fontFamily=Verdana;fontSize=12;align=center;comic=1;" parent="1" vertex="1">
          <mxGeometry x="410" y="610" width="276.75" height="210" as="geometry" />
        </mxCell>
        <mxCell id="qPYGIEaCDXuY3vX0Uv8o-1" value="" style="whiteSpace=wrap;html=1;rounded=0;shadow=0;labelBackgroundColor=none;strokeWidth=1;fillColor=none;fontFamily=Verdana;fontSize=12;align=center;comic=1;" parent="1" vertex="1">
          <mxGeometry x="890" y="249.99999999999994" width="140" height="109.57" as="geometry" />
        </mxCell>
        <mxCell id="qPYGIEaCDXuY3vX0Uv8o-3" value="" style="whiteSpace=wrap;html=1;rounded=0;shadow=0;labelBackgroundColor=none;strokeWidth=1;fillColor=none;fontFamily=Verdana;fontSize=12;align=center;comic=1;" parent="1" vertex="1">
          <mxGeometry x="890" y="426.42999999999995" width="140" height="109.57" as="geometry" />
        </mxCell>
        <mxCell id="qPYGIEaCDXuY3vX0Uv8o-5" value="" style="strokeWidth=1;shadow=0;dashed=0;align=center;html=1;shape=mxgraph.mockup.forms.rrect;rSize=5;strokeColor=#999999;fillColor=#ffffff;" parent="1" vertex="1">
          <mxGeometry x="40" y="180" width="173.71" height="190" as="geometry" />
        </mxCell>
        <mxCell id="qPYGIEaCDXuY3vX0Uv8o-6" value="October 2014" style="strokeWidth=1;shadow=0;dashed=0;align=center;html=1;shape=mxgraph.mockup.forms.anchor;fontColor=#999999;" parent="qPYGIEaCDXuY3vX0Uv8o-5" vertex="1">
          <mxGeometry x="32.57062500000001" y="8.685714285714285" width="108.56875000000001" height="21.71428571428571" as="geometry" />
        </mxCell>
        <mxCell id="qPYGIEaCDXuY3vX0Uv8o-7" value="&lt;" style="strokeWidth=1;shadow=0;dashed=0;align=center;html=1;shape=mxgraph.mockup.forms.rrect;rSize=4;strokeColor=#999999;fontColor=#008cff;fontSize=19;fontStyle=1;" parent="qPYGIEaCDXuY3vX0Uv8o-5" vertex="1">
          <mxGeometry x="8.685500000000001" y="8.685714285714285" width="27.142187500000002" height="21.71428571428571" as="geometry" />
        </mxCell>
        <mxCell id="qPYGIEaCDXuY3vX0Uv8o-8" value="&gt;" style="strokeWidth=1;shadow=0;dashed=0;align=center;html=1;shape=mxgraph.mockup.forms.rrect;rSize=4;strokeColor=#999999;fontColor=#008cff;fontSize=19;fontStyle=1;" parent="qPYGIEaCDXuY3vX0Uv8o-5" vertex="1">
          <mxGeometry x="137.8823125" y="8.685714285714285" width="27.142187500000002" height="21.71428571428571" as="geometry" />
        </mxCell>
        <mxCell id="qPYGIEaCDXuY3vX0Uv8o-9" value="Mo" style="strokeWidth=1;shadow=0;dashed=0;align=center;html=1;shape=mxgraph.mockup.forms.anchor;fontColor=#999999;" parent="qPYGIEaCDXuY3vX0Uv8o-5" vertex="1">
          <mxGeometry x="10.856875000000002" y="30.4" width="21.713750000000005" height="21.71428571428571" as="geometry" />
        </mxCell>
        <mxCell id="qPYGIEaCDXuY3vX0Uv8o-10" value="Tu" style="strokeWidth=1;shadow=0;dashed=0;align=center;html=1;shape=mxgraph.mockup.forms.anchor;fontColor=#999999;" parent="qPYGIEaCDXuY3vX0Uv8o-5" vertex="1">
          <mxGeometry x="32.57062500000001" y="30.4" width="21.713750000000005" height="21.71428571428571" as="geometry" />
        </mxCell>
        <mxCell id="qPYGIEaCDXuY3vX0Uv8o-11" value="We" style="strokeWidth=1;shadow=0;dashed=0;align=center;html=1;shape=mxgraph.mockup.forms.anchor;fontColor=#999999;" parent="qPYGIEaCDXuY3vX0Uv8o-5" vertex="1">
          <mxGeometry x="54.284375000000004" y="30.4" width="21.713750000000005" height="21.71428571428571" as="geometry" />
        </mxCell>
        <mxCell id="qPYGIEaCDXuY3vX0Uv8o-12" value="Th" style="strokeWidth=1;shadow=0;dashed=0;align=center;html=1;shape=mxgraph.mockup.forms.anchor;fontColor=#999999;" parent="qPYGIEaCDXuY3vX0Uv8o-5" vertex="1">
          <mxGeometry x="75.99812500000002" y="30.4" width="21.713750000000005" height="21.71428571428571" as="geometry" />
        </mxCell>
        <mxCell id="qPYGIEaCDXuY3vX0Uv8o-13" value="Fr" style="strokeWidth=1;shadow=0;dashed=0;align=center;html=1;shape=mxgraph.mockup.forms.anchor;fontColor=#999999;" parent="qPYGIEaCDXuY3vX0Uv8o-5" vertex="1">
          <mxGeometry x="97.711875" y="30.4" width="21.713750000000005" height="21.71428571428571" as="geometry" />
        </mxCell>
        <mxCell id="qPYGIEaCDXuY3vX0Uv8o-14" value="Sa" style="strokeWidth=1;shadow=0;dashed=0;align=center;html=1;shape=mxgraph.mockup.forms.anchor;fontColor=#999999;" parent="qPYGIEaCDXuY3vX0Uv8o-5" vertex="1">
          <mxGeometry x="119.42562500000001" y="30.4" width="21.713750000000005" height="21.71428571428571" as="geometry" />
        </mxCell>
        <mxCell id="qPYGIEaCDXuY3vX0Uv8o-15" value="Su" style="strokeWidth=1;shadow=0;dashed=0;align=center;html=1;shape=mxgraph.mockup.forms.anchor;fontColor=#999999;" parent="qPYGIEaCDXuY3vX0Uv8o-5" vertex="1">
          <mxGeometry x="141.13937500000003" y="30.4" width="21.713750000000005" height="21.71428571428571" as="geometry" />
        </mxCell>
        <mxCell id="qPYGIEaCDXuY3vX0Uv8o-16" value="1" style="strokeWidth=1;shadow=0;dashed=0;align=center;html=1;shape=mxgraph.mockup.forms.rrect;rSize=0;strokeColor=#999999;fontColor=#999999;" parent="qPYGIEaCDXuY3vX0Uv8o-5" vertex="1">
          <mxGeometry x="10.856875000000002" y="52.114285714285714" width="21.713750000000005" height="21.71428571428571" as="geometry" />
        </mxCell>
        <mxCell id="qPYGIEaCDXuY3vX0Uv8o-17" value="2" style="strokeWidth=1;shadow=0;dashed=0;align=center;html=1;shape=mxgraph.mockup.forms.rrect;rSize=0;strokeColor=#999999;fontColor=#999999;" parent="qPYGIEaCDXuY3vX0Uv8o-5" vertex="1">
          <mxGeometry x="32.57062500000001" y="52.114285714285714" width="21.713750000000005" height="21.71428571428571" as="geometry" />
        </mxCell>
        <mxCell id="qPYGIEaCDXuY3vX0Uv8o-18" value="3" style="strokeWidth=1;shadow=0;dashed=0;align=center;html=1;shape=mxgraph.mockup.forms.rrect;rSize=0;strokeColor=#999999;fontColor=#999999;" parent="qPYGIEaCDXuY3vX0Uv8o-5" vertex="1">
          <mxGeometry x="54.284375000000004" y="52.114285714285714" width="21.713750000000005" height="21.71428571428571" as="geometry" />
        </mxCell>
        <mxCell id="qPYGIEaCDXuY3vX0Uv8o-19" value="4" style="strokeWidth=1;shadow=0;dashed=0;align=center;html=1;shape=mxgraph.mockup.forms.rrect;rSize=0;strokeColor=#999999;fontColor=#999999;" parent="qPYGIEaCDXuY3vX0Uv8o-5" vertex="1">
          <mxGeometry x="75.99812500000002" y="52.114285714285714" width="21.713750000000005" height="21.71428571428571" as="geometry" />
        </mxCell>
        <mxCell id="qPYGIEaCDXuY3vX0Uv8o-20" value="5" style="strokeWidth=1;shadow=0;dashed=0;align=center;html=1;shape=mxgraph.mockup.forms.rrect;rSize=0;strokeColor=#999999;fontColor=#999999;" parent="qPYGIEaCDXuY3vX0Uv8o-5" vertex="1">
          <mxGeometry x="97.711875" y="52.114285714285714" width="21.713750000000005" height="21.71428571428571" as="geometry" />
        </mxCell>
        <mxCell id="qPYGIEaCDXuY3vX0Uv8o-21" value="6" style="strokeWidth=1;shadow=0;dashed=0;align=center;html=1;shape=mxgraph.mockup.forms.rrect;rSize=0;strokeColor=#999999;fontColor=#999999;" parent="qPYGIEaCDXuY3vX0Uv8o-5" vertex="1">
          <mxGeometry x="119.42562500000001" y="52.114285714285714" width="21.713750000000005" height="21.71428571428571" as="geometry" />
        </mxCell>
        <mxCell id="qPYGIEaCDXuY3vX0Uv8o-22" value="7" style="strokeWidth=1;shadow=0;dashed=0;align=center;html=1;shape=mxgraph.mockup.forms.rrect;rSize=0;strokeColor=#999999;fontColor=#999999;" parent="qPYGIEaCDXuY3vX0Uv8o-5" vertex="1">
          <mxGeometry x="141.13937500000003" y="52.114285714285714" width="21.713750000000005" height="21.71428571428571" as="geometry" />
        </mxCell>
        <mxCell id="qPYGIEaCDXuY3vX0Uv8o-23" value="8" style="strokeWidth=1;shadow=0;dashed=0;align=center;html=1;shape=mxgraph.mockup.forms.rrect;rSize=0;strokeColor=#999999;fontColor=#999999;" parent="qPYGIEaCDXuY3vX0Uv8o-5" vertex="1">
          <mxGeometry x="10.856875000000002" y="73.82857142857142" width="21.713750000000005" height="21.71428571428571" as="geometry" />
        </mxCell>
        <mxCell id="qPYGIEaCDXuY3vX0Uv8o-24" value="9" style="strokeWidth=1;shadow=0;dashed=0;align=center;html=1;shape=mxgraph.mockup.forms.rrect;rSize=0;strokeColor=#999999;fontColor=#999999;" parent="qPYGIEaCDXuY3vX0Uv8o-5" vertex="1">
          <mxGeometry x="32.57062500000001" y="73.82857142857142" width="21.713750000000005" height="21.71428571428571" as="geometry" />
        </mxCell>
        <mxCell id="qPYGIEaCDXuY3vX0Uv8o-25" value="10" style="strokeWidth=1;shadow=0;dashed=0;align=center;html=1;shape=mxgraph.mockup.forms.rrect;rSize=0;strokeColor=#999999;fontColor=#999999;labelBackgroundColor=default;" parent="qPYGIEaCDXuY3vX0Uv8o-5" vertex="1">
          <mxGeometry x="54.284375000000004" y="73.82857142857142" width="21.713750000000005" height="21.71428571428571" as="geometry" />
        </mxCell>
        <mxCell id="qPYGIEaCDXuY3vX0Uv8o-26" value="11" style="strokeWidth=1;shadow=0;dashed=0;align=center;html=1;shape=mxgraph.mockup.forms.rrect;rSize=0;strokeColor=#999999;fontColor=#999999;" parent="qPYGIEaCDXuY3vX0Uv8o-5" vertex="1">
          <mxGeometry x="75.99812500000002" y="73.82857142857142" width="21.713750000000005" height="21.71428571428571" as="geometry" />
        </mxCell>
        <mxCell id="qPYGIEaCDXuY3vX0Uv8o-27" value="12" style="strokeWidth=1;shadow=0;dashed=0;align=center;html=1;shape=mxgraph.mockup.forms.rrect;rSize=0;strokeColor=#999999;fontColor=#999999;" parent="qPYGIEaCDXuY3vX0Uv8o-5" vertex="1">
          <mxGeometry x="97.711875" y="73.82857142857142" width="21.713750000000005" height="21.71428571428571" as="geometry" />
        </mxCell>
        <mxCell id="qPYGIEaCDXuY3vX0Uv8o-28" value="13" style="strokeWidth=1;shadow=0;dashed=0;align=center;html=1;shape=mxgraph.mockup.forms.rrect;rSize=0;strokeColor=#999999;fontColor=#999999;" parent="qPYGIEaCDXuY3vX0Uv8o-5" vertex="1">
          <mxGeometry x="119.42562500000001" y="73.82857142857142" width="21.713750000000005" height="21.71428571428571" as="geometry" />
        </mxCell>
        <mxCell id="qPYGIEaCDXuY3vX0Uv8o-29" value="14" style="strokeWidth=1;shadow=0;dashed=0;align=center;html=1;shape=mxgraph.mockup.forms.rrect;rSize=0;strokeColor=#999999;fontColor=#999999;" parent="qPYGIEaCDXuY3vX0Uv8o-5" vertex="1">
          <mxGeometry x="141.13937500000003" y="73.82857142857142" width="21.713750000000005" height="21.71428571428571" as="geometry" />
        </mxCell>
        <mxCell id="qPYGIEaCDXuY3vX0Uv8o-30" value="15" style="strokeWidth=1;shadow=0;dashed=0;align=center;html=1;shape=mxgraph.mockup.forms.rrect;rSize=0;strokeColor=#999999;fontColor=#999999;" parent="qPYGIEaCDXuY3vX0Uv8o-5" vertex="1">
          <mxGeometry x="10.856875000000002" y="95.54285714285713" width="21.713750000000005" height="21.71428571428571" as="geometry" />
        </mxCell>
        <mxCell id="qPYGIEaCDXuY3vX0Uv8o-31" value="16" style="strokeWidth=1;shadow=0;dashed=0;align=center;html=1;shape=mxgraph.mockup.forms.rrect;rSize=0;strokeColor=#999999;fontColor=#999999;" parent="qPYGIEaCDXuY3vX0Uv8o-5" vertex="1">
          <mxGeometry x="32.57062500000001" y="95.54285714285713" width="21.713750000000005" height="21.71428571428571" as="geometry" />
        </mxCell>
        <mxCell id="qPYGIEaCDXuY3vX0Uv8o-32" value="17" style="strokeWidth=1;shadow=0;dashed=0;align=center;html=1;shape=mxgraph.mockup.forms.rrect;rSize=0;strokeColor=#999999;fontColor=#999999;" parent="qPYGIEaCDXuY3vX0Uv8o-5" vertex="1">
          <mxGeometry x="54.284375000000004" y="95.54285714285713" width="21.713750000000005" height="21.71428571428571" as="geometry" />
        </mxCell>
        <mxCell id="qPYGIEaCDXuY3vX0Uv8o-33" value="18" style="strokeWidth=1;shadow=0;dashed=0;align=center;html=1;shape=mxgraph.mockup.forms.rrect;rSize=0;strokeColor=#999999;fontColor=#999999;" parent="qPYGIEaCDXuY3vX0Uv8o-5" vertex="1">
          <mxGeometry x="75.99812500000002" y="95.54285714285713" width="21.713750000000005" height="21.71428571428571" as="geometry" />
        </mxCell>
        <mxCell id="qPYGIEaCDXuY3vX0Uv8o-34" value="19" style="strokeWidth=1;shadow=0;dashed=0;align=center;html=1;shape=mxgraph.mockup.forms.rrect;rSize=0;strokeColor=#999999;fontColor=#999999;" parent="qPYGIEaCDXuY3vX0Uv8o-5" vertex="1">
          <mxGeometry x="97.711875" y="95.54285714285713" width="21.713750000000005" height="21.71428571428571" as="geometry" />
        </mxCell>
        <mxCell id="qPYGIEaCDXuY3vX0Uv8o-35" value="20" style="strokeWidth=1;shadow=0;dashed=0;align=center;html=1;shape=mxgraph.mockup.forms.rrect;rSize=0;strokeColor=#999999;fontColor=#999999;" parent="qPYGIEaCDXuY3vX0Uv8o-5" vertex="1">
          <mxGeometry x="119.42562500000001" y="95.54285714285713" width="21.713750000000005" height="21.71428571428571" as="geometry" />
        </mxCell>
        <mxCell id="qPYGIEaCDXuY3vX0Uv8o-36" value="21" style="strokeWidth=1;shadow=0;dashed=0;align=center;html=1;shape=mxgraph.mockup.forms.rrect;rSize=0;strokeColor=#999999;fontColor=#999999;" parent="qPYGIEaCDXuY3vX0Uv8o-5" vertex="1">
          <mxGeometry x="141.13937500000003" y="95.54285714285713" width="21.713750000000005" height="21.71428571428571" as="geometry" />
        </mxCell>
        <mxCell id="qPYGIEaCDXuY3vX0Uv8o-37" value="22" style="strokeWidth=1;shadow=0;dashed=0;align=center;html=1;shape=mxgraph.mockup.forms.rrect;rSize=0;strokeColor=#999999;fontColor=#999999;" parent="qPYGIEaCDXuY3vX0Uv8o-5" vertex="1">
          <mxGeometry x="10.856875000000002" y="117.25714285714285" width="21.713750000000005" height="21.71428571428571" as="geometry" />
        </mxCell>
        <mxCell id="qPYGIEaCDXuY3vX0Uv8o-38" value="23" style="strokeWidth=1;shadow=0;dashed=0;align=center;html=1;shape=mxgraph.mockup.forms.rrect;rSize=0;strokeColor=#999999;fontColor=#999999;" parent="qPYGIEaCDXuY3vX0Uv8o-5" vertex="1">
          <mxGeometry x="32.57062500000001" y="117.25714285714285" width="21.713750000000005" height="21.71428571428571" as="geometry" />
        </mxCell>
        <mxCell id="qPYGIEaCDXuY3vX0Uv8o-39" value="25" style="strokeWidth=1;shadow=0;dashed=0;align=center;html=1;shape=mxgraph.mockup.forms.rrect;rSize=0;strokeColor=#999999;fontColor=#999999;" parent="qPYGIEaCDXuY3vX0Uv8o-5" vertex="1">
          <mxGeometry x="75.99812500000002" y="117.25714285714285" width="21.713750000000005" height="21.71428571428571" as="geometry" />
        </mxCell>
        <mxCell id="qPYGIEaCDXuY3vX0Uv8o-40" value="26" style="strokeWidth=1;shadow=0;dashed=0;align=center;html=1;shape=mxgraph.mockup.forms.rrect;rSize=0;strokeColor=#999999;fontColor=#999999;" parent="qPYGIEaCDXuY3vX0Uv8o-5" vertex="1">
          <mxGeometry x="97.711875" y="117.25714285714285" width="21.713750000000005" height="21.71428571428571" as="geometry" />
        </mxCell>
        <mxCell id="qPYGIEaCDXuY3vX0Uv8o-41" value="27" style="strokeWidth=1;shadow=0;dashed=0;align=center;html=1;shape=mxgraph.mockup.forms.rrect;rSize=0;strokeColor=#999999;fontColor=#999999;" parent="qPYGIEaCDXuY3vX0Uv8o-5" vertex="1">
          <mxGeometry x="119.42562500000001" y="117.25714285714285" width="21.713750000000005" height="21.71428571428571" as="geometry" />
        </mxCell>
        <mxCell id="qPYGIEaCDXuY3vX0Uv8o-42" value="28" style="strokeWidth=1;shadow=0;dashed=0;align=center;html=1;shape=mxgraph.mockup.forms.rrect;rSize=0;strokeColor=#999999;fontColor=#999999;" parent="qPYGIEaCDXuY3vX0Uv8o-5" vertex="1">
          <mxGeometry x="141.13937500000003" y="117.25714285714285" width="21.713750000000005" height="21.71428571428571" as="geometry" />
        </mxCell>
        <mxCell id="qPYGIEaCDXuY3vX0Uv8o-43" value="29" style="strokeWidth=1;shadow=0;dashed=0;align=center;html=1;shape=mxgraph.mockup.forms.rrect;rSize=0;strokeColor=#999999;fontColor=#999999;" parent="qPYGIEaCDXuY3vX0Uv8o-5" vertex="1">
          <mxGeometry x="10.856875000000002" y="138.97142857142856" width="21.713750000000005" height="21.71428571428571" as="geometry" />
        </mxCell>
        <mxCell id="qPYGIEaCDXuY3vX0Uv8o-44" value="30" style="strokeWidth=1;shadow=0;dashed=0;align=center;html=1;shape=mxgraph.mockup.forms.rrect;rSize=0;strokeColor=#999999;fontColor=#999999;" parent="qPYGIEaCDXuY3vX0Uv8o-5" vertex="1">
          <mxGeometry x="32.57062500000001" y="138.97142857142856" width="21.713750000000005" height="21.71428571428571" as="geometry" />
        </mxCell>
        <mxCell id="qPYGIEaCDXuY3vX0Uv8o-45" value="31" style="strokeWidth=1;shadow=0;dashed=0;align=center;html=1;shape=mxgraph.mockup.forms.rrect;rSize=0;strokeColor=#999999;fontColor=#999999;" parent="qPYGIEaCDXuY3vX0Uv8o-5" vertex="1">
          <mxGeometry x="54.284375000000004" y="138.97142857142856" width="21.713750000000005" height="21.71428571428571" as="geometry" />
        </mxCell>
        <mxCell id="qPYGIEaCDXuY3vX0Uv8o-46" value="1" style="strokeWidth=1;shadow=0;dashed=0;align=center;html=1;shape=mxgraph.mockup.forms.rrect;rSize=0;strokeColor=#999999;fontColor=#999999;fillColor=#ddeeff;" parent="qPYGIEaCDXuY3vX0Uv8o-5" vertex="1">
          <mxGeometry x="75.99812500000002" y="138.97142857142856" width="21.713750000000005" height="21.71428571428571" as="geometry" />
        </mxCell>
        <mxCell id="qPYGIEaCDXuY3vX0Uv8o-47" value="2" style="strokeWidth=1;shadow=0;dashed=0;align=center;html=1;shape=mxgraph.mockup.forms.rrect;rSize=0;strokeColor=#999999;fontColor=#999999;fillColor=#ddeeff;" parent="qPYGIEaCDXuY3vX0Uv8o-5" vertex="1">
          <mxGeometry x="97.711875" y="138.97142857142856" width="21.713750000000005" height="21.71428571428571" as="geometry" />
        </mxCell>
        <mxCell id="qPYGIEaCDXuY3vX0Uv8o-48" value="3" style="strokeWidth=1;shadow=0;dashed=0;align=center;html=1;shape=mxgraph.mockup.forms.rrect;rSize=0;strokeColor=#999999;fontColor=#999999;fillColor=#ddeeff;" parent="qPYGIEaCDXuY3vX0Uv8o-5" vertex="1">
          <mxGeometry x="119.42562500000001" y="138.97142857142856" width="21.713750000000005" height="21.71428571428571" as="geometry" />
        </mxCell>
        <mxCell id="qPYGIEaCDXuY3vX0Uv8o-49" value="4" style="strokeWidth=1;shadow=0;dashed=0;align=center;html=1;shape=mxgraph.mockup.forms.rrect;rSize=0;strokeColor=#999999;fontColor=#999999;fillColor=#ddeeff;" parent="qPYGIEaCDXuY3vX0Uv8o-5" vertex="1">
          <mxGeometry x="141.13937500000003" y="138.97142857142856" width="21.713750000000005" height="21.71428571428571" as="geometry" />
        </mxCell>
        <mxCell id="qPYGIEaCDXuY3vX0Uv8o-50" value="5" style="strokeWidth=1;shadow=0;dashed=0;align=center;html=1;shape=mxgraph.mockup.forms.rrect;rSize=0;strokeColor=#999999;fontColor=#999999;fillColor=#ddeeff;" parent="qPYGIEaCDXuY3vX0Uv8o-5" vertex="1">
          <mxGeometry x="10.856875000000002" y="160.68571428571428" width="21.713750000000005" height="21.71428571428571" as="geometry" />
        </mxCell>
        <mxCell id="qPYGIEaCDXuY3vX0Uv8o-51" value="6" style="strokeWidth=1;shadow=0;dashed=0;align=center;html=1;shape=mxgraph.mockup.forms.rrect;rSize=0;strokeColor=#999999;fontColor=#999999;fillColor=#ddeeff;" parent="qPYGIEaCDXuY3vX0Uv8o-5" vertex="1">
          <mxGeometry x="32.57062500000001" y="160.68571428571428" width="21.713750000000005" height="21.71428571428571" as="geometry" />
        </mxCell>
        <mxCell id="qPYGIEaCDXuY3vX0Uv8o-52" value="7" style="strokeWidth=1;shadow=0;dashed=0;align=center;html=1;shape=mxgraph.mockup.forms.rrect;rSize=0;strokeColor=#999999;fontColor=#999999;fillColor=#ddeeff;" parent="qPYGIEaCDXuY3vX0Uv8o-5" vertex="1">
          <mxGeometry x="54.284375000000004" y="160.68571428571428" width="21.713750000000005" height="21.71428571428571" as="geometry" />
        </mxCell>
        <mxCell id="qPYGIEaCDXuY3vX0Uv8o-53" value="8" style="strokeWidth=1;shadow=0;dashed=0;align=center;html=1;shape=mxgraph.mockup.forms.rrect;rSize=0;strokeColor=#999999;fontColor=#999999;fillColor=#ddeeff;" parent="qPYGIEaCDXuY3vX0Uv8o-5" vertex="1">
          <mxGeometry x="75.99812500000002" y="160.68571428571428" width="21.713750000000005" height="21.71428571428571" as="geometry" />
        </mxCell>
        <mxCell id="qPYGIEaCDXuY3vX0Uv8o-54" value="9" style="strokeWidth=1;shadow=0;dashed=0;align=center;html=1;shape=mxgraph.mockup.forms.rrect;rSize=0;strokeColor=#999999;fontColor=#999999;fillColor=#ddeeff;" parent="qPYGIEaCDXuY3vX0Uv8o-5" vertex="1">
          <mxGeometry x="97.711875" y="160.68571428571428" width="21.713750000000005" height="21.71428571428571" as="geometry" />
        </mxCell>
        <mxCell id="qPYGIEaCDXuY3vX0Uv8o-55" value="10" style="strokeWidth=1;shadow=0;dashed=0;align=center;html=1;shape=mxgraph.mockup.forms.rrect;rSize=0;strokeColor=#999999;fontColor=#999999;fillColor=#ddeeff;" parent="qPYGIEaCDXuY3vX0Uv8o-5" vertex="1">
          <mxGeometry x="119.42562500000001" y="160.68571428571428" width="21.713750000000005" height="21.71428571428571" as="geometry" />
        </mxCell>
        <mxCell id="qPYGIEaCDXuY3vX0Uv8o-56" value="11" style="strokeWidth=1;shadow=0;dashed=0;align=center;html=1;shape=mxgraph.mockup.forms.rrect;rSize=0;strokeColor=#999999;fontColor=#999999;fillColor=#ddeeff;" parent="qPYGIEaCDXuY3vX0Uv8o-5" vertex="1">
          <mxGeometry x="141.13937500000003" y="160.68571428571428" width="21.713750000000005" height="21.71428571428571" as="geometry" />
        </mxCell>
        <mxCell id="qPYGIEaCDXuY3vX0Uv8o-57" value="24" style="strokeWidth=1;shadow=0;dashed=0;align=center;html=1;shape=mxgraph.mockup.forms.rrect;rSize=0;strokeColor=#ff0000;fontColor=#ffffff;strokeWidth=2;fillColor=#008cff;" parent="qPYGIEaCDXuY3vX0Uv8o-5" vertex="1">
          <mxGeometry x="54.284375000000004" y="117.25714285714285" width="21.713750000000005" height="21.71428571428571" as="geometry" />
        </mxCell>
        <mxCell id="qPYGIEaCDXuY3vX0Uv8o-58" value="" style="verticalLabelPosition=bottom;shadow=0;dashed=0;align=center;html=1;verticalAlign=top;strokeWidth=1;shape=mxgraph.mockup.graphics.pieChart;strokeColor=#008cff;parts=10,20,35;partColors=#e0e0e0,#d0d0d0,#c0c0c0,#b0b0b0,#a0a0a0;strokeWidth=2;" parent="1" vertex="1">
          <mxGeometry x="440" y="620" width="206.75" height="195" as="geometry" />
        </mxCell>
        <mxCell id="qPYGIEaCDXuY3vX0Uv8o-59" value="" style="verticalLabelPosition=bottom;shadow=0;dashed=0;align=center;html=1;verticalAlign=top;strokeWidth=1;shape=mxgraph.mockup.graphics.pieChart;strokeColor=#008cff;parts=10,20,35;partColors=#e0e0e0,#d0d0d0,#c0c0c0,#b0b0b0,#a0a0a0;strokeWidth=2;" parent="1" vertex="1">
          <mxGeometry x="915" y="436.21" width="90" height="90" as="geometry" />
        </mxCell>
        <mxCell id="qPYGIEaCDXuY3vX0Uv8o-60" value="" style="verticalLabelPosition=bottom;shadow=0;dashed=0;align=center;html=1;verticalAlign=top;strokeWidth=1;shape=mxgraph.mockup.graphics.pieChart;strokeColor=#008cff;parts=10,20,35;partColors=#e0e0e0,#d0d0d0,#c0c0c0,#b0b0b0,#a0a0a0;strokeWidth=2;" parent="1" vertex="1">
          <mxGeometry x="915" y="259.78999999999996" width="90" height="90" as="geometry" />
        </mxCell>
        <mxCell id="qPYGIEaCDXuY3vX0Uv8o-61" value="Finistère" style="strokeWidth=1;shadow=0;dashed=0;align=center;html=1;shape=mxgraph.mockup.forms.rrect;rSize=0;fillColor=#eeeeee;strokeColor=#999999;gradientColor=#cccccc;align=left;spacingLeft=4;fontSize=17;fontColor=#666666;labelPosition=right;" parent="1" vertex="1">
          <mxGeometry x="47" y="487.50000000000006" width="15" height="15" as="geometry" />
        </mxCell>
        <mxCell id="qPYGIEaCDXuY3vX0Uv8o-62" value="Morbihan" style="strokeWidth=1;shadow=0;dashed=0;align=center;html=1;shape=mxgraph.mockup.forms.rrect;rSize=0;fillColor=#eeeeee;strokeColor=#999999;gradientColor=#cccccc;align=left;spacingLeft=4;fontSize=17;fontColor=#666666;labelPosition=right;" parent="1" vertex="1">
          <mxGeometry x="47" y="511.21000000000004" width="15" height="15" as="geometry" />
        </mxCell>
        <mxCell id="qPYGIEaCDXuY3vX0Uv8o-64" value="Tout" style="shape=ellipse;fillColor=#eeeeee;strokeColor=#999999;gradientColor=#cccccc;html=1;align=left;spacingLeft=4;fontSize=17;fontColor=#666666;labelPosition=right;shadow=0;" parent="1" vertex="1">
          <mxGeometry x="45" y="426.43" width="15" height="15" as="geometry" />
        </mxCell>
        <mxCell id="qPYGIEaCDXuY3vX0Uv8o-66" value="Echelle géographique&amp;nbsp;" style="rounded=0;whiteSpace=wrap;html=1;" parent="1" vertex="1">
          <mxGeometry x="40" y="376.21" width="170" height="33.79" as="geometry" />
        </mxCell>
        <mxCell id="qPYGIEaCDXuY3vX0Uv8o-73" value="" style="verticalLabelPosition=bottom;shadow=0;dashed=0;align=center;html=1;verticalAlign=top;strokeWidth=1;shape=mxgraph.mockup.misc.map;" parent="1" vertex="1">
          <mxGeometry x="370" y="192.22" width="376.48" height="376.48" as="geometry" />
        </mxCell>
        <mxCell id="qPYGIEaCDXuY3vX0Uv8o-74" value="Département" style="strokeWidth=1;shadow=0;dashed=0;align=center;html=1;shape=mxgraph.mockup.forms.uRect;fontSize=17;fontColor=#666666;align=left;spacingLeft=5;strokeColor=#666666;" parent="1" vertex="1">
          <mxGeometry x="40" y="450" width="160" height="30" as="geometry" />
        </mxCell>
        <mxCell id="qPYGIEaCDXuY3vX0Uv8o-75" value="ZDep" style="strokeWidth=1;shadow=0;dashed=0;align=center;html=1;shape=mxgraph.mockup.forms.uRect;fontSize=17;fontColor=#ffffff;align=left;spacingLeft=5;strokeColor=#008cff;fillColor=#008cff;" parent="1" vertex="1">
          <mxGeometry x="40" y="538.7" width="160" height="30" as="geometry" />
        </mxCell>
        <mxCell id="dpha32R9wAHPKwejQila-1" value="Cables" style="rounded=0;whiteSpace=wrap;html=1;" vertex="1" parent="1">
          <mxGeometry x="900" y="220" width="120" height="20" as="geometry" />
        </mxCell>
        <mxCell id="dpha32R9wAHPKwejQila-2" value="Points techniques" style="rounded=0;whiteSpace=wrap;html=1;" vertex="1" parent="1">
          <mxGeometry x="900" y="400" width="120" height="20" as="geometry" />
        </mxCell>
        <mxCell id="dpha32R9wAHPKwejQila-3" value="Boites" style="rounded=0;whiteSpace=wrap;html=1;" vertex="1" parent="1">
          <mxGeometry x="270" y="620" width="120" height="20" as="geometry" />
        </mxCell>
        <mxCell id="dpha32R9wAHPKwejQila-4" value="" style="triangle;whiteSpace=wrap;html=1;rotation=-90;" vertex="1" parent="1">
          <mxGeometry x="178" y="455" width="10" height="20" as="geometry" />
        </mxCell>
        <mxCell id="dpha32R9wAHPKwejQila-10" value="" style="triangle;whiteSpace=wrap;html=1;rotation=-90;" vertex="1" parent="1">
          <mxGeometry x="178" y="538.7" width="10" height="20" as="geometry" />
        </mxCell>
        <mxCell id="dpha32R9wAHPKwejQila-11" value="" style="rounded=0;whiteSpace=wrap;html=1;" vertex="1" parent="1">
          <mxGeometry x="40" y="570" width="160" height="30" as="geometry" />
        </mxCell>
        <mxCell id="dpha32R9wAHPKwejQila-12" value="&lt;span style=&quot;font-family: arial; font-size: 13px; background-color: rgb(255, 255, 255);&quot;&gt;01110&lt;/span&gt;" style="rounded=0;whiteSpace=wrap;html=1;align=right;" vertex="1" parent="1">
          <mxGeometry x="43.5" y="575" width="57.5" height="20" as="geometry" />
        </mxCell>
        <mxCell id="dpha32R9wAHPKwejQila-13" value="" style="shape=cross;whiteSpace=wrap;html=1;rotation=-45;" vertex="1" parent="1">
          <mxGeometry x="48" y="579.7" width="11.3" height="11.3" as="geometry" />
        </mxCell>
        <mxCell id="dpha32R9wAHPKwejQila-15" value="&lt;span style=&quot;font-family: &amp;quot;arial&amp;quot; ; font-size: 13px ; background-color: rgb(255 , 255 , 255)&quot;&gt;01111&lt;/span&gt;" style="rounded=0;whiteSpace=wrap;html=1;align=right;" vertex="1" parent="1">
          <mxGeometry x="107.5" y="575" width="57.5" height="20" as="geometry" />
        </mxCell>
        <mxCell id="dpha32R9wAHPKwejQila-16" value="" style="shape=cross;whiteSpace=wrap;html=1;rotation=-45;" vertex="1" parent="1">
          <mxGeometry x="112" y="579.7" width="11.3" height="11.3" as="geometry" />
        </mxCell>
        <mxCell id="dpha32R9wAHPKwejQila-19" value="" style="rounded=0;whiteSpace=wrap;html=1;" vertex="1" parent="1">
          <mxGeometry x="39.3" y="600" width="160.7" height="30" as="geometry" />
        </mxCell>
        <mxCell id="dpha32R9wAHPKwejQila-20" value="&lt;span style=&quot;font-family: &amp;#34;arial&amp;#34; ; font-size: 13px ; background-color: rgb(255 , 255 , 255)&quot;&gt;01112&lt;/span&gt;" style="rounded=0;whiteSpace=wrap;html=1;align=left;" vertex="1" parent="1">
          <mxGeometry x="43.5" y="605" width="57.5" height="20" as="geometry" />
        </mxCell>
        <mxCell id="dpha32R9wAHPKwejQila-21" value="" style="triangle;whiteSpace=wrap;html=1;rotation=-90;" vertex="1" parent="1">
          <mxGeometry x="178" y="575" width="10" height="20" as="geometry" />
        </mxCell>
        <mxCell id="dpha32R9wAHPKwejQila-22" value="" style="endArrow=none;html=1;rounded=0;" edge="1" parent="1">
          <mxGeometry width="50" height="50" relative="1" as="geometry">
            <mxPoint x="63" y="578" as="sourcePoint" />
            <mxPoint x="63" y="593" as="targetPoint" />
          </mxGeometry>
        </mxCell>
        <mxCell id="dpha32R9wAHPKwejQila-23" value="" style="endArrow=none;html=1;rounded=0;" edge="1" parent="1">
          <mxGeometry width="50" height="50" relative="1" as="geometry">
            <mxPoint x="127" y="578" as="sourcePoint" />
            <mxPoint x="127" y="593" as="targetPoint" />
          </mxGeometry>
        </mxCell>
        <mxCell id="dpha32R9wAHPKwejQila-26" value="&lt;span style=&quot;font-family: &amp;#34;arial&amp;#34; ; font-size: 13px ; background-color: rgb(255 , 255 , 255)&quot;&gt;01113&lt;/span&gt;" style="rounded=0;whiteSpace=wrap;html=1;align=left;" vertex="1" parent="1">
          <mxGeometry x="107.5" y="605" width="57.5" height="20" as="geometry" />
        </mxCell>
        <mxCell id="dpha32R9wAHPKwejQila-27" value="Zsro" style="strokeWidth=1;shadow=0;dashed=0;align=center;html=1;shape=mxgraph.mockup.forms.uRect;fontSize=17;fontColor=#666666;align=left;spacingLeft=5;strokeColor=#666666;" vertex="1" parent="1">
          <mxGeometry x="40" y="640" width="160" height="30" as="geometry" />
        </mxCell>
        <mxCell id="dpha32R9wAHPKwejQila-28" value="" style="triangle;whiteSpace=wrap;html=1;rotation=-90;" vertex="1" parent="1">
          <mxGeometry x="178" y="645" width="10" height="20" as="geometry" />
        </mxCell>
        <mxCell id="dpha32R9wAHPKwejQila-29" value="" style="rounded=0;whiteSpace=wrap;html=1;" vertex="1" parent="1">
          <mxGeometry x="40.7" y="670" width="160" height="30" as="geometry" />
        </mxCell>
        <mxCell id="dpha32R9wAHPKwejQila-30" value="" style="rounded=0;whiteSpace=wrap;html=1;" vertex="1" parent="1">
          <mxGeometry x="40" y="700" width="160.7" height="30" as="geometry" />
        </mxCell>
        <mxCell id="dpha32R9wAHPKwejQila-31" value="&lt;span style=&quot;font-family: &amp;#34;arial&amp;#34; ; font-size: 13px ; background-color: rgb(255 , 255 , 255)&quot;&gt;01112&lt;/span&gt;" style="rounded=0;whiteSpace=wrap;html=1;align=left;" vertex="1" parent="1">
          <mxGeometry x="48" y="705" width="57.5" height="20" as="geometry" />
        </mxCell>
        <mxCell id="dpha32R9wAHPKwejQila-32" value="&lt;span style=&quot;font-family: &amp;#34;arial&amp;#34; ; font-size: 13px ; background-color: rgb(255 , 255 , 255)&quot;&gt;01113&lt;/span&gt;" style="rounded=0;whiteSpace=wrap;html=1;align=left;" vertex="1" parent="1">
          <mxGeometry x="112" y="705" width="57.5" height="20" as="geometry" />
        </mxCell>
        <mxCell id="dpha32R9wAHPKwejQila-33" value="&lt;span style=&quot;font-family: arial; font-size: 13px; background-color: rgb(255, 255, 255);&quot;&gt;01110&lt;/span&gt;" style="rounded=0;whiteSpace=wrap;html=1;align=right;" vertex="1" parent="1">
          <mxGeometry x="47" y="675" width="57.5" height="20" as="geometry" />
        </mxCell>
        <mxCell id="dpha32R9wAHPKwejQila-34" value="&lt;span style=&quot;font-family: &amp;quot;arial&amp;quot; ; font-size: 13px ; background-color: rgb(255 , 255 , 255)&quot;&gt;01111&lt;/span&gt;" style="rounded=0;whiteSpace=wrap;html=1;align=right;" vertex="1" parent="1">
          <mxGeometry x="111" y="675" width="57.5" height="20" as="geometry" />
        </mxCell>
        <mxCell id="dpha32R9wAHPKwejQila-35" value="" style="shape=cross;whiteSpace=wrap;html=1;rotation=-45;" vertex="1" parent="1">
          <mxGeometry x="50" y="679.7" width="11.3" height="11.3" as="geometry" />
        </mxCell>
        <mxCell id="dpha32R9wAHPKwejQila-36" value="" style="shape=cross;whiteSpace=wrap;html=1;rotation=-45;" vertex="1" parent="1">
          <mxGeometry x="114" y="679.7" width="11.3" height="11.3" as="geometry" />
        </mxCell>
        <mxCell id="dpha32R9wAHPKwejQila-37" value="" style="endArrow=none;html=1;rounded=0;" edge="1" parent="1">
          <mxGeometry width="50" height="50" relative="1" as="geometry">
            <mxPoint x="65" y="678" as="sourcePoint" />
            <mxPoint x="65" y="693" as="targetPoint" />
          </mxGeometry>
        </mxCell>
        <mxCell id="dpha32R9wAHPKwejQila-38" value="" style="endArrow=none;html=1;rounded=0;" edge="1" parent="1">
          <mxGeometry width="50" height="50" relative="1" as="geometry">
            <mxPoint x="129" y="678" as="sourcePoint" />
            <mxPoint x="129" y="693" as="targetPoint" />
          </mxGeometry>
        </mxCell>
        <mxCell id="dpha32R9wAHPKwejQila-39" value="" style="edgeStyle=orthogonalEdgeStyle;rounded=0;orthogonalLoop=1;jettySize=auto;html=1;" edge="1" parent="1" source="qPYGIEaCDXuY3vX0Uv8o-42" target="677b7b8949515195-16">
          <mxGeometry relative="1" as="geometry" />
        </mxCell>
        <mxCell id="dpha32R9wAHPKwejQila-40" value="" style="shape=image;verticalLabelPosition=bottom;labelBackgroundColor=default;verticalAlign=top;aspect=fixed;imageAspect=0;image=data:image/png,iVBORw0KGgoAAAANSUhEUgAAAggAAAEECAYAAABN1syFAAAAAXNSR0IArs4c6QAAIABJREFUeF7svQeYXWd1LvzuctpUTdGMRr1bsi0XuchF7thUU0yHSzUX/kvIz01Ckpt2QyAhuQmd+yfkEm5iMBAMGBsXcMG4N9mSJRcVq5eRNL2fuvf+n3et7zvnjGR7jmDAlrXP88iWZvbZZX3f/tb7rfWudzmlMIoQf2ILxBaILRBbILZAbIHYAlUWcGKAEM+H2AKxBWILxBaILRBb4EgLxAAhnhOxBWILxBaILRBbILbAURaIAUI8KWILxBaILRBbILZAbIEYIMRzILZAbIHYArEFYgvEFpjaAnEEYWobxUfEFogtEFsgtkBsgRPOAjFAOOGGPH7g2AKxBWILxBaILTC1BWKAMLWN4iNiC8QWiC0QWyC2wAlngRggnHBDHj9wbIHYArEFYgvEFpjaAjFAmNpG8RGxBWILxBaILRBb4ISzQAwQTrghjx84tkBsgdgCsQViC0xtgRggTG2j+IjYArEFYgvEFogtcMJZIAYIJ9yQxw8cWyC2QGyB2AKxBaa2QAwQprZRfERsgdgCsQViC8QWOOEsEAOEE27I4weOLRBbILZAbIHYAlNbIAYIU9soPiK2QGyB2AKxBWILnHAWiAHCCTfk8QPHFogtEFsgtkBsgaktEAOEqW0UHxFbILZAbIHYArEFTjgLxADhhBvy+IFjC8QWiC0QWyC2wNQWiAHC1DaKj4gtEFsgtkBsgdgCJ5wFYoBwwg15/MCxBWILxBaILRBbYGoLxABhahvFR8QWiC0QWyC2QGyBE84CMUA44YY8fuDYArEFYgvEFogtMLUFYoAwtY3iI2ILxBaILRBbILbACWeBGCCccEMeP3BsgdgCsQViC8QWmNoCMUCY2kbxEbEFYgvEFogtEFvghLNADBBOuCGPHzi2QGyB2AKxBWILTG2BGCBMbaP4iNgCsQViC8QWiC1wwlkgBggn3JDHDxxbILZAbIHYArEFprZADBCmtlF8RGyB2AKxBWILxBY44SwQA4QTbsiPnwd2ECGCc/zccHynsQViC8QWeBVZIAYIr6LBPN4fhYCglk8MGmqxUnxMbIHYArEFfjMLxADhN7Nf/O1ps0Ctbp8gglAijixMm+njE8UWiC0QW+AFLBADhHhavGIsUB1BOBIAvNTvXjEPEN9IbIHYArEFXkUWiAHCq2gwX22PYkFBHC14tY1s/DyxBWILHA8WiAHC8TBKJ9A91sJDiAHDCTQh4keNLRBb4GWzQAwQXjbTxxc+0gJStRDBUBWVsFhNW3QdR5gHMUCI505sgdgCsQV++xaIAcJv38bxFWq0QBhFcB1SEF/6EwOEGg0aHxZbILZAbIHfwAIxQPgNjBd/9bdnAYIFfkITQhDgYCIIv72rxmeOLRBbILZAbAFrgRggxHPhFWMBFUZijiEAEMBxbIKBMQUXgCf/jyMIr5ghi28ktkBsgVexBWKAMI2DW0uZ3vHu3F6IRPhSz2TVEPV7IYASEJXgIIcoLCCK8kBUlJ+HURGloIRsqYhiUEKEknASPNdFyvOR8hPw3QQcJwk4STjw4bgp+XsE/b+CCNVJeLEqiFoUGo/1OadxGsWnii0QWyC2wCvCAjFAmMZhONKpWMepP6/eDR8fRLsXcrAOuLvnR5kCfEZLLLT8gRAOXAEDIcKoBFdAQAGIJjBeGEb/xCCG870oFHuQLfSgUBpAGI5gojgKgGDB2kpJi3B4DSUoZnwHjtsG121Hyp+B+lQ76pMdaEzPRHO6FXXJRsCpR0Tw4CQAx0fEqAO/b8gNluOg4/Ni8MYCGv6f0Qv+OT7GbRqndHyq2AKxBU5gC8QAYZoH/4WdqnU2Fcda7WCn+Ram5XSVHb86SDrZo3fVtleC3a1HCCI+GSFCHkEwimKxF7n8NuwbOYgDIweRK/bAwxCiiBEDfr8ID3m4Tl6jC0fILVtnHkY8q3HVjo8wSqGEtEQTPCeBYpRCymtEW10n2uvnoqN+FjLphfD92XBdAoWEgAYCBYUfjhAi9VMNElSp8aU+x3sUaFomSHyS2AKxBV71FogBwjQN8UuFrSuO1UYS6ICOlguujjTQIb8cn8n3Wn0HFigQDDCKQOfOcD5QiiKQLuC7JUTBCKLSfhwY2Ym9Q7uQLR7EeGEAUTgMF4NwMaJRBZMWcBwCjxAuSnKeIz8EBtWwSjkKRTgOQQhTC76CEieQuEUERhDakPRnIOG3oDUzC0tal6KlfgngdSBEvYAFhQU8F2EHqyf0WSZ/joz8xBLPL8ecjK8ZWyC2wMtjgRggTIPdp8pXv5j4zwvLCdv6/5cLIKjDtCH1inms81ZwoFEFD2EUwEMWpVIfxnPd2De8AweGtyNb2A0v2o8wGkUYJWS37jl6boKfMKp+Po2wVHb0latK5CCC+b64dAShZB0EZAnUciI5Rv/O/3oIIkYLAuEmhO5SNGWWYnHLAnQ2zEdDejYcrw0hIxCMdggZ0j8qDaTPyedVkuTLBdqmYYrGp4gtEFsgtsAxWyAGCMdssqO/UNn5T1XBXwlmTwUqpuG2fq1TaCD/xQBCqIRCR51lFE7ADUfQO7YHW/ueRv/YU0C4E4iGxfESANGZe+L5yQVIAJErDtlzyDUoIkIgPAMCBpIRjwzv86ulUK3lEwgIKGC6AAhDAgD+hBGACk/AFSASIoj4uxCe46AQpuC4rfD9RehoPBXL21ehpW4+IrcZcNIGEPF7Nl6h/ITJ3JE4gvBrTar4S7EFYgsclxaIAcK0DdvkeIDNzptA9hGOR/8ZSUhdd+Z0cK+E3DbvSXfUNrTP3Tl32XKXUoLICoSg1Iueka3YNfgcekafAcK98J1xBQGSHjnSufLf5BhYkqMtWxRLGPtYB/1Sg8K0QEErIiRVwJ0/0wN2t1/t5O01NKqgxxA4JOB58zCr6RwsajsbrQ1L4LiNcu9Ua+RxQRgZYGNTD/Z5XhnjNG3TNj5RbIHYArEFXsQCMUCYtqlRkQmmj7H7TxtTsJx/dZDVrHg9lnn0UuSIG/NenuxC2RLKp9BaBPtR4aIQbjSI0fFn8Xzvo9g7/ByKwTB8DMFzhqVM0XO5G68zz8goAZ05n4rRB0NCdOjU6dyt0+ZxdOxaojj1x4IMC0b4nWrwwfMoz0DsHeX0r04KUcQySY6Ai1w0A3WJdrQ3nIwVHeejsW4RQmcGQiTgOYRrZVpkuWzylQDiprZPfERsgdgCsQV+cwvEAOE3t2HVGapL40xpnqj/GQEgIcXRUdlQusKISELhWs5nMunTelfHfjKzW5YcvkgYwo1yyOZ2YkffE9g99DSKhR3wnD44UoWgcKIUevBcs5O3hMPyM/EuqkmIR4bw+ftaAUJlN1+x1xFRCF7f1jWKo68+v5Y9ilaCRG6aUZc6CQtbz8b8ltOQTM5BCXVISGrkhQmlx27T+BuxBWILxBY4viwQA4RpGC86SYRZOKDwzzjCIIsgKkgOPGKePCoipBBQaHeknjgmz/WFPe+5CfheBq7bhMipR+ikJu3ep+EWaz4FUwz0iwJpWG2AAsJgCH1jO7C55xH0jDwBH4dR7xeRDQiCWFHAHXlSSg6VRjhhxI88I17E57bOlrfCf3Nnb35e5g/UEj0QJGWex/IllERYidvw3IZMKdUJqsDIa5K4SEKj77LM0UUQeQjCkEwFhM4yzGtZjeXtq9FSvxRwW8z9V8wXRxBqnkrxgbEFYgsc5xY4YQHCi6ns2fF8cRU+Oh+Gsyn8kxdQUCwNYXjiEHqzQxiY6EGu2IcwHEIpGEcY8s8EStGEOlMJXDPXnUDSy8B3GwG3HZlUF9rrF2J20wI0ZbrgkDxXDpMrubFyT9VO8jebgUeJO8nGmwJHLD3MI1/Yj+2967Bn4H4Ui9slYsB0iOuog5f/y06dDtjyAYxiYpnweKTjt//md5gKIOmQ6oiWU1AdYbGRByUeaopG0xXkQmgKo5rXUA1ELO/BRhdsaicU8KNBGw9M7Kh+QxGh04ZEYhUWtZ6HUztPR+R1IXIyVeAjFkz6zWZc/O3YArEFjhcLnJAAoVJ1YMv1bLibxEGG1DX/rE6ZDkEdkxOVEIVjyBd7MJLdh6GJHege2YfBXB+ciCqAFPvJCWjQ3bF1bnRG/GPz7NahURo4JdEEborDqAWROx+rOk7HwpmXInS7kCAhgedy/EnZ+WPdyb4w4BEdRONgmSjQ+yU48KJhjGW3YdPBh3FoeB0Szv6q6gbeP3kD1uFWHLpUIzgRSix/dEoIRMcgqR0UHKVuhixBRBIJNw3fa0XCn4mUzwqDNqT9eqT9lAAorU/gcHCHX0SumMVEKQsnHBQQli32w4n6FYSRPOkwOqBAotwaWh6KVRMcT5vksIBBqyv0U/08aUTOLHQ0rsZpXWuRSS8D3GbVfWC6BbyOpieKYWRSEcfLKx/fZ2yB2AKxBWqzwAkJEHT/XZ0PVx6A5tsp3FMJYgd0dHT+wQEcHN6OXUM7MJTtRrY4AAck6A1rPwEjHqQgoDrkbXfT3Ony5ynzf7MTFk2AlJTy1fmRKALmsQRnzX07lnach8hpknulQ1KGvYUdlttQa1i+MiGqRZ0qiokWvIRwwgEcHnocT3Y/hNHsZtR5PVKOSEevn6wpd+SzSAFiWUcg4eaQK/kifZRwA5RCAgXfpE864HmzkUnOw+KWuWjKdKAh2QjXScF1kwIKJKLgEKzY5yKwsEUR2p8hCIuIogLCMIfR/LCoNB4a3YNsfjcQdiPhDMJx8gjCPAKJFKREbVF1FpSAqR/+wKYfLNHRjl8SxagDTZlTcHrXeehoPh2BM0vmB8GOdpnkmNjIhh1zCwrjksjalqD4qNgCsQVeqRY4gQGCzV9bR6GlfeKYJH+dF0c5MnEAe0d248DwVkzkdwJhLxCNSm5eNvei5KeJAwUH1eHs6ly5jRpYhj0dF4EFgUkKrugE0Blyt9yG5vpLcPHid8HxF4hjI5+B9fxWrKdae6HWaELlHtUBW80DPadqHESlg9g7sB5PH7oPYWkjPIfpEV+uXdFHsOCmUjpon1uiDw71DVIIQY2BTiQTC9HZMBvt9XMwI9OFpnQ7QqcFrtdgyiLV8sp7UHimlSD8t43yVKCRjJj5PXf+TjiKMOjDaO4QDo91o3/8AAayh1Eo7oKPfTJGjGzImZkSmZT6sGkR/tZUO5hSTY5xKWqAn1yNU2ddiPktq+H4nQgZ9SmXqVqBp0oUSu/8ZS5FeaWuOPF9xRaILXDcWOAEBgg25F+pxxcnLN0GBzA8vhfP9T6LkYlnkS/uQLF0AEmXhLwUSiyVY6dBqZdPy0bUd0xtfnl3asPvR+4sOTfolGyYnh0LtbbeldSGh1LUhIbUUly89JNIpk8WdUCS61QrQR1PZedfW11+JZVAEMPr876sKiIdfYBCfh929z+Epw/9Cm64DRmvH9mgESkvKQBFw/DVO24LhoqGl8FnSCEf1iF0utBatwgLW1ZiadspiLxZEg0pgfl8hvyrozQRShKqVz0IfgRqRTzuhSIkGgGo7OLtbj2AS65H0IOJfDcODD+PHYPPYzR3ECnnEDyMqHiS6DzYP5bEqC2mNW2ikRKmLjx3HAHmIHRXYWXHeVjZeYE8i/BIxIZKPFXApeBDtSDiT2yB2AKxBY5vC5yQAOFoDgL9RRZONIHRXC92DzyNfQP3oVjajkikgkvwROufO29WIOhukQ5Mq+mss7HJiWqnZn9nw9p0zhVeg7j6yGPfQyQYFmeFvtOEVPJkvGb5J+EkVkpqwWoI2ijHsQMEJeVVrm3JdiGcKI9coR9bDt+FPf33wol2kNMvHABE+rwKBawTtRUIxpVLm+UMIof6B+1oazgVi9tWY0bdUiQTLfCkJTM5BSQEKjDg2TVYrx+1o9rNciH4F7WtxBTKb5rIKss/9WcafdBPGQgxGhIVUSj2o2dkA3b2P4nBie1wowE4RsWx0hyK5ackW9KxW0CnUQdGeTj2pagOkbsEy2dehVNmrQEE8FDzwdJHbUSGP4mjB8f3shjffWyB2AKynpZUAecE+5DFzp2kbSNcQFDYjf1DG/FMzwYUWOOPA2Xynu4SbfqAnAF18mTwe+xCGJE7oLtG39UweYlMf7GwJTpq2LwY8BhGA3LCXWCfAsdhg6EUikGAhJNFIZqBlsarcMXSdyDy5pnIwQtJCFV2r1MPIIc5lJ06d+USjYjo+Ipwwz5s3P8z7Ox/CHXuPpO3t+kDAgvN1TPSIQ7RYdSDkQ7m9fksLI3sgpM8A2fPXoOupuUInBY4btqkYCL4Vc5fYhdhBNdVt6/uXWIoR/RVrCRPyjQEU2WhbaY5BhYY6PhYrkZlUpeAcBRROIj9g89iS88TyBWegRsdlh1/gIRGIqI8fFcbRxVCB0mX1iLwYUTJ8EecRgTuYpw083Kc1HE+Qm8efFebRfGjxEgSNB2JkMSf2AKxBWILHM8WODEBgjDeqfFfQgLD6B/bjE2H1mFsYiOKpT1IuGMShteF3zbrIQBgcx/6S4bUNV/NXLu2N6bWARn86iSkC6GkDMR1SL09f+a5zPW7oovANIXsN00nQf1eAoG7FGfOfQ8Wtp0PuE3mOtXtlq33qeJN1DALNQTOP+Q7ECCUgNJePHXgTuwfvA9hSPEj3hPTAPKgJmTOiAGbLSVQol1CRlToUJMI0QrHOxknzVyNxe2nwfVYollv2kMry4HnkWc3vAF2bfSlasPsv0VHQT/iq6swazUx0z5ixflXvHBAiehyoJ9QQysZ5IymY6MTDaNQ2I+9Q1uwpedJRMEWONEgCmHRPDcBgaZeOPZMeVRSEcpV4DWKzkosnXk5Vs26AKE3tzx+WqFBO1WEtmsYlviQ2AKxBWILvCItcEICBEYPXEwgKB1G9+AmPH34IRSLm+FEfcKS14A2RX9s3T3HTmv01eUURFZYowgsU2REgk6hUaR6+X/HqUfKT8sOkwBAOx/azoMBgiCHIMyiFI7DicbhChmwQVj+82eswulzLoOfmKMpDXGbRq64Stmvuhphqtmlx5o2zaaTYlQ6gOd77sPzPTfBifaaVAqdPqsTLJtfQVKJIk9OAp4kH9iu2UcJ8zGr6TScNuscNNStROjMLMcDCAYUvtj/q/u2lEOOgRAMCbQoLhWOoxAUEIT6R+zL8kZGYlySJCkmRe0ICjLVwfXYtrlONAoYzaikIipBf4kM2JJV0yRKQFk4jKGxzXj28OMYGN8AJ9xT5leoGmQA32H76SN5JEwAsTIiAcc/Ays7rsCSmWsReR1SeaHxFfvMcQhhqjkZ/z62QGyBV7YFTkCAwB18FoX8Tjx76BHs6H8QSexAGBXE6dERs6bedbjDJ0jgz6yOgfYMYO7ccVgrX49imEExaobvtaCrvg2zGmahtX4WUol2OE6D5N8dyW2b8DzJjVRWpJ5CaQSlYAiHx4YRhlmkky1oySxEc/1iuH67aAUImJE8vOUtWELcse1SGT2Q3byE5fNAMIKdvfdgY/dt8PE8InIwnIyUXNpyQJtWkT21OEtGDhLIh01IJhZj1ay1WNB6pug1eF6dCe9XohrMXnE3zf8L/VLElQgIJuCE4xjJj+DQWC96x7sxkO2RctIgHBetiSgaE65AQqo6GKWpBzyWRPLabeion4U5TayImAnfJVBII+T9y7GeUYPU6IU2mNZSVg1oMF2SB4o7sbPvMWw89AScaDcSzojYphgQJFhtBxtFULBYCn24GAWcJsA7E2fPfT3mtq1B5LSUn1/0EuJPbIHYArEFjnMLvEoBQoWyNnl8SMgbw/jEZqzvvh89I4/Ax25ESAsjXXPrdIuMFBAM2F2g1QhgNIAchAQipxVN6cXoaFyO1vplaKufh4THen7uvvl7nkOdjM2wKxGPZEeriqiVFLYXg/YG8BGIbDErJXT/XdmFK+eg+lNLiaOmLgh6GNZnX4Uh7O+/DxsP/hJB6Rlx/GyhLM2WnLwKAsmfCv+ATt5BHsVoHtoazsTKzgvR3rRaQBAdrtyXSa9UCIWMAHDXzfMXkC30oW9sJ/pGN6N3fBcmCgMIo6yQMwnQRHxI7E6FSnttawFaIYlIZKh5PV+iBwmvCa2ZThmDmY0rpYWzQ8DAMaQthS9iRqHcRIvhDYKGLKJwFIPjW/HcwVtxeGwL6twDKARsmEX+BD+mwVRZyplyzeReaAlkOnU2zp73FrQ3norQaTDApNaeEsf56vGKun0bu7GATkf9d/t5sXVniruovvXf7Q3HV4st8JIWeFUCBHEyFD5ykib3HaEQRkg6YxgbexR37rgbXrhNyhmlb4Dk1ckPCISg5jOU7pJIx94KDtKSPC8gHyRQxDJR2Fs160wBBeQIRMgIIS+M1DFYNr7WHliGvi5Xup+1nRIdMHeuhDYFEhV2wdGLW3VKYer0AiMlVgaZhELN+0fBKIbH1uHOHbeg3nlWIgf6oWNmF0MHhZCgJUDKI2EvJWH+BB0i2tDR/CacPfdCpJMLEVEmulzqx3OoGiPvnEQ9humpJZHPP4utvduwb5jlovvgRsNGIpnX5nX5MSJJkgapVp3k76rLMenweRVblaEVFHAbUAhnorVuPk7tWIGOxpWIvDmA22jUHJUboPa2bAUdi0IpC5R2Yv2BX2Lv4ANIYzd8t4QQGRFvoogVU0gJjwqKvG51aWQ9MukLcfHiNyOZWiFpj2otjIpE9mS+yNTjd8R7yxRPGMHxrWaFmTOmLFRhlFbVSPVHmT9hKkNCzjXtFBoEajvftyqS07NKhlp3qhEbgkXHETKqVOawhoXcDDbJCkO4NV2bgN7U7xC4y+mV3MoHlUeV8FYJrushDEm6BVI+uSCMlClotSD6mG1eg1nCIGAODAgDGlYAv+OrToZcu8QIWCTj4XqeLgZy0/bV4bhySjlyjIzfpAZnL3YTPI8t57EbDiUil1eaULcWQRDAcV1EToUHRMAflsy9M4Xn0mYmwmZszX4l8gyGEyQrFHuZMB5HifIwkGeS1Cmf0ZYQm/v/bVTzFEtM/+lGx5N12QHnnayt1UtmVRl1DcNYwyERgmIRrkchN7VJGIQyZp7nynrnMiUqbeK9yaQqe2O0rwSDq5ORNVz6ZTzkVQUQbDFeRbOfPyEhD8LUPzi0AU9134dC/ikABAdWE0AlelMeJ54lJxp6nfAH6gF3AWY3nYyFrSvRnFmMRLJTd8+mVM+6d1227Eyd7OQtOJBFpFxOp0u75NpNOaES3WqfFfa5q9UHdSZW8wi4iI2imN+Ch/bciZGJh+Gir7yYqMNVIqWmNAiuVJuANgmdWZjX+hqcPGstUsl5CFCn7Y8kBWJLFLlIGC2AsB/D4zuxfeA59IxuRb64VyoHPGdM0hjsgSDggA5XvBkdvZzR3Le4MGMES65UEKKfClWR9hbFS0Z30IwA89BaNw9zmhajq3klGuqWIwTHSitJyuPDfg62UVQ0jlxuN7b1PoBd/Q/Dj55HIaSTEbgjYKcQ+vBJMi2Pnfm7OxezZ1yJM2ZfCi+52PBGjAOX2FTlXl8MMEw52lykA/JArPOnn7FpED2/uIPypdSB6FrNRZRru/m368oaNd31S+ViU+O3CBBs1Yw2KgvFketD1DLBI138he8bIVJSif5MJh3Bggs6aTpArbBxUCqx7binDtnOFgOcdHGevg9BiTwPn68UMoMHL+HLP+UeQxUAI6ix1S6eATq0idiD/7ZBJyE3V83Rl7rVskNnRRZvw1UbicEURPGPlSyX9UUayPG6OrdlVLj2iH11QyFJVDM8FbAnSTpEQSBN5+S9IAgUDnCEiCBDlMgr46R962sZ59rHg+tLkY7a9Q3407VHq6EtQDU/q2mO1XpttY/jGpVXiaiad8s0uJM7sOXa9n5kbE0suOoeawOBtd7bb++4Vw1AqCzC1kHz/6ZdcTiO3uH1eHjvLXCC54BoqMzmr+yANXxPZ8jwNnP2rtsi+fXWzCIsaz8LXTPOQMlpE7EkFS0yrsq+k2WKng2y8+2hoBLD0ror1k6JFB7S3bpqDFjyHh2uAoVj+dhagQpit6thxTGFlCcu7cST++/CgcEHkHAOaKfGsrNT5yx9BpBAEKUNf8BF6MzFsva1OHn2G+D6FAmijdTV6X5RYyN81jAcQFA8iOf7nsX2/icQlJ6F70xIikHvk4sPmyOp460AhGrHb1M6lS6MR4f6LQqnpapLHLWSJAj5dB1ozpyKZTMvwNwZy+B5HQi5wxdCoUYhRGFR7icQ+qUX7sHTBx/A5p77kMY+4SQUwgLbOclz24VTozO8v5QAghKWYPWcK7Go/TIU3TZT1mnsUoY0lYZbls5YS4rIQg3ZyREk0MmVW1HbFuI6FuWPrPw8ln7DVUctzkp3qpN3MZOhZTXNsgp6VEW3ynBk0s/E0ZRBCmejypfbRZNvI88tbqNmR23mcqhcFjoCh1EIcbiMMOiuTBwZHZI4ST43d8UCJ/T3nG9msZ5Op8Vraa8QQdKgvy8GEVxWSsmuXeW0FLyowxSwI0bhFBI51iNu6Rjef0V+igfoNCsBhApAIIgXYKYgIijxPY3gMvJSLCIq5BHmNZVWTg9Ki1YXgZ+Ak0rC407B192zRKhM4lSLhCJ5DjpPLQIykQgZgGN4lhoWPaYs+X4XQ1fHPmT0yKQ3Jf2rJxFsUn7vJs/XY5nT1e9CELDZniSjdchsmxytZxe7MKrg+rLTLF9fh91G8kzkRwDu9ILVGsx3zIe8agCCXUQriyQHhC/POIbHNuKJ/XdhInsfgpA6/UT9DI8zrE25Yw45nQRJeHxRGhE4M1CfWoalbWdjTstZSCXZ1S+luzJ5Q6xang3BcfJojwCXHQ/DAnKlHPKlLPKlCQQhyXkl+G4KDakWZJIkMFKFkVUDacmVkxiny6cEUmsazPKLKkukVjxUlnubZgDc4BA2H34IWw/fBj962kRW+AzVAk6sTuCuj1UDOQRRA1xvDpa0XYzlna+Fn+gwHADt9qidEE30gwAgHEL38LPYdPArRH8dAAAgAElEQVRBTOSfQdLZj2JQNPoCdL+qXSCNr4wAkoFYxrnZZ7ZbKrutqq4msZUFaiWrUaFSyiQnsqRUKzZYcZGPMoAzA/Oaz8KyjrVoa1iOUHQnVBRJ71+jJlx8JMxa2ovnDt2PHf33wYt6hNQaSNVKCInwl6McjHAwnDyOUphAXfp8nL/gzWioP0t4ENUJo4ra4uRoQk2DrPtmTZsZroeuz8Z52oXG7lDKu8cyNQTFfBEuQ8r8EwXiJJSIOX0f2YGaJTQoFcE/HA8vlUaUSjAWCzeRktW7NoCgsW5djB3ZvUaFAlAsoTQ+BjcsiaPwEwl1kgleK4Oin0IiRQ4PwZ+CRwIE2xStVlBWi2XCUglBIQ8vkUCYK8ANCijmcoSSku4gYkjw3rkc+T6cZAqB68LzPLGBYEzj1HVHqpTa2kCMAYdl8q3Z1VuoaFM+AtwhIMArFhCMT2CwbxBb9hzC+l17cai/DwNjJE2ziNmAOs9HayqF2c1NOGlOF85YuRiz51HrJIEix7S+Hg7H00QJmMZgBK+CoI31ph0gRCjm8vCZzmGqLJtFWMoj8hPwObfk/TCh/Gm+tqw2BAC0t+eg6CWQyqQVmHEsBSM68ITIxhCSoynBqvGJmPbh7xUl1zLFXtZjXoUAoYpUFuUwkd2Mx/feir6xR5FxB0zpGsPZ5B5w0WfoWSsX2EOAeWfHW4J5LediZcca1KUWCvlMauCtoqBZiKVro5AMJ1AoshfAYQxP7Ebf+B4MZg+iGFDal9EDFSZi2qAossopJNwkWjLtaM4swfyWVWiuW4CQjZm4YojzZWpkavRdHb5+IcRMkR8nyuLAwH1Yf+AuiaAE0RB8Jy0utKKNYDUAOMnpykO4XicWtb8FyzsvQyLRpaCCwkoSPVEugJAJowC5/B7s6HsIW3oYnegRdUaWLaa8LIqh2k7y0twEa9TtiBSCiSbIImlz/OW4axVZkAfYe62MtW/4BRWBKlYqKEHSdZLIh/VoTC/D/Nbzsbj9PCQSc1CKkgJemD/kszBKINeOSnCD/djYfRe2992HBHoQRHkpcdSKFEugVMlqqRCJsoicOWhvvATnzn8zEqmF5j4tiJm86NcytpNXBs3Ha1qBGMWoWdKm3Kly4SlntswiJIsonWoe/Yf7cfjgIfT39GJ8cAg9/cPoH7b8kxdZg47a2b70WsU8NnfGhWKAvvEsRnN5RK6L5bNasWRBJ049dQUWn7oSQboOfmJq/oMAAsmT0xE5yA8Oon/Pfjy1aSvWPbsN+w/24dDYuEQSZjbNwOKuFpx7ylKsOfdM1HW1I93cohteFdzQ9Vjm7tTvVa2rMiMIxUIRQX8fnnh0PZ56bie27O8R0OBGDupSScxsSGNGSyMWzZ+DFcuXYt7JyxDU1UmETlI9ksvmjt3GGmoBCAYcmM2r7FiFD6E7f/PgAggLEzlkB4ewc9suPPbYBjzw7Hbs6O9HsZAXR2bb06nQuCYkpL+MeWcJCBzfQ2dTE65aPA9nn3ESFpy6AvMWzUMpkUEiqWuV7JwlgqDRkUqUq1ZrTn3c6EQe6fFRbNu4GY899Ry27D6I4dFR+L6HjoY61KdSwgmwycqjzniMc7ryfeWREHu01GcwZ3Y7mrtmom1WJ+bPnwM3Uy8cDyfha2qrZACCLHRaBq8nMJEsO27TOBentt6xH/GqAQjqKEPZsSaYl5RFfidu33Y7Cvn74URURqRDZC29i7FigJTLXTIxcxpJt4Ai2y37p+GcOZdhTvMKRF4nPGHEqwOxAXWB/GEObtiNwyNbsWNgG0Zy3QoIwiG40Yg0/rG6A8o5sEQ7OzPo/Mht6ITrLcPy9hVY0n4uHH9+ORRZy0JmIwYavhfXK06LL7iQ8oIJZHMb8dDum5HPPyGVCDbKQucu3RZlYSLnQJ1f2itiPJyLuS2vwxlzLoPrLxDHqNwwVkPwqhRa4uIyiqHRp7Gh+wGM5x5FFB40XALajS2yx6RVdYU7YBZByY/bt1VD8ZaLwVAyFRp9ljiWmzfxerp8ye0Kf4ARH+WRkCBa0a3g8qD9LjQDy7/b3fd8zGo+F6fMugT1mZOMPDSjoqEhahG8OMiVCvDDXdiw/zbsG7wfSacbpTBpQpfV983zMyXDygsXOSzFmrlvxIKZlyN02ky6KJSoa/WOvZaxnfw6m8iDjRxIvjjCeAA0JHwEJUZlmADnNiZEODKKwt79uOO+dfjJhqdxYGAQExN5FIpFAYB0mpJmmU4igslyyAhb4hjnohPCo4ZF2wz83bvfhEtffzmc5uapV6soRFAoIvIS8HITWHfPg/ir79+CgZ4eRIxO0LGKL9K3IOe5SKVTWLZoIb7y/7wHHaeshJNK6eIsnAALsKYPIJSCCFF/L/7+X67HrY+sRymbhSdhf6ZDmJvXdEhI5+El0NHehn94/9U45dK1QDqp0Q+mKSwh0KbrprCOEgbJCSAZW/qLykbVkkPhBIhGRzHx/B78x0/vxt07dqF7cFAiSV6R+iN6f5p/KSNLvarVMKmeG+QmeC5Cl0DAR6a+DucuWozff9MlmHvGSXBaKZjGDYRuBLSLK5/LdoCderinPILzNjeB2266E5/7/i0oDg8Jr8YTQjqjNGZtsVi5KuM25bmnOqAsN294hp5GgRrr02hracO155+FK197EbzZnSjJ9bkh9CTiEPkuEsJPNdwQK+D2CgcHMhVeLVLLfGG48LH9rjiK0mE8c/AO7Oz9ORB1m2gBZ4yPYsjKBJXEZVqAIC8fzkZz/RqcNecSNNefgtBtgi+OrTppwYVmCNn8Phwa2Y49Q89jOLtLWgy76K9i30s80fyhs1JRIDO1jiDY8aeNcLxlOG/Bu9DWxBbP5DjUtohVpxjs+QkOlJCURy63A0/uuwWD4w/CiQ5XNVui82U0gDbzJK3A0HzKpdPpxPzWS3D6nDciIxEUhtErTlF9VAleNIDDw0/i6e57MJrbBN8h8dPm3S1HQEO8leSoKVFUGCOAQ8GBAhuVK+Y3FHVzkRHWtORuuQCGErpVp0AgpGkOSlxbLoKJ35nrWiVM/p7cEvIFZmNm4xqs6roYjXUr4LgUt9LUkdpOc8ScGxPZrXhi708xMP6IpBJEy0FSUxaQuQhCVr1QOjtEgBbUpc/AJYvfj1SaAITqm9UsEzujKuN7TGDBEM8E8EiXTxdBECHluygVSwgGBnHg2a34+ZPP4KZHN+BQfz8yxYIspIYir+QuQ/ybxFuYapGs9feWJ0BHw12oASRhKoEZCxbihj/7BNpWnTz12ShhHkTwmfo5eBCf/sd/xcNPPYcU8+aKEjUyYBQ5eZ2S56GUTuHjl1+Ij//eh+C2zDBpZB2DCrFz6svXdERQwr51G/GRL/wzRvr74JIrQfhsnas4W0tJdpDzfcxfsgTX/dl/RdOyxZq3N+TLSgSovL188VsQFn0JnPayLUj4AvoCjvXYGHq278atD6zDjx5+CiN9fQiLBWUOGXKd+E47BQ23Qx2s+WHV76pvQo6REmEgIBmzoRGXnbwM77zsXJxx5ilIzGwXrgIBT6lQQCLJfiXT9AlKmNizBx/+/D9j29YdSBULKIlcezXnqxqlTtN1zWmqGBrmtVEEEnoeipkUTp47Fx+67DxcfPG58Ds7ECVTSBMccnx8Vu9YF3AMRNTpfYRjPturDCDoHtKPBrB/8Ak8te+HCIJNxinSYVMemeGnkqrhOZ7ssvPhDMxsWouz574OdXWnlQmESn3SkLuHHEqlAewd3IwdfY9jNPukEP0oHMQdZEkcnRFU4kyQeKYFCWbSystnk448M8PEWRFlmgjm4qSuj+K02Vchkhx57fkpjU7wY8GIi3xQQgoH8dT+O/F87+1Iu4eOqBDQCAD7QuTJzheGfyBRlPaGc3DG3LeL82QDJgtCRKeAOf6wCD/qx4Gh9XjqwC1AsB4expELm033xer+BcwLFky3R64/KllNx06QwbB9wisKqa8QMorB1Ac1CLiweEh6ZA+z5JC8jgmEUQ5Jl8RPnidpuj8aW05ie1lgQJszFcRPQtN/jkaL6lJrcPa816C98QyUQBEm5VWo5oOSNQlQBofvx8N7bgaCJ0WvQVMcfMaicEiU68JoVApJj90sm3FS5/uwctbFiCg9LWNZIXVOBooKH2r/6KJkU0tjuSLqU0lkx8aRHBvDPbffh3/66R04PNSPlGRg1Dayg7UcBf64/O/arzzlkXbHZsKosqvjrj2M4IcBItfDeCaFf/69j+HSd75+6tOZ0s4cc/tbN+OCv/wS0kMjQrALha9jFlwWCzBcHwqNFHnXQWfnLNz8jb+RHZ3khy2pzsC1KS9e4wFRLof7fnI7/vCb30WG0RlGLzk+lqRGX2BS4hwAL3Iw3FiP//yjj2HlFWvhJZO6gxfgZ1/jGqo8eHxJFU79pC+VHGGhCHd0BHfcdi/++qY7URoYErsrb8ow7MVL6W5b7GeN+GK77TJQ0HvTqAPtrZE2EkZpb6cug6vPWoU//ug1cNtnwq+vh5+2ku01GnOqw/IFjDy2Hms//zU0jozJmltk+snceyVyRSA4zXWO5XenGkRJzFPGj2nXPOdhMoE3rzkHn/nYO9A4vwuBl5S1PEEugq15t+B2khjbVA//8vz+VQMQZK2QFyGHkfENeHzPLRjLPSJB38pH2fG2UROdwUTQgaVtF+GMOVcC/mL4HqV7dXemSDkQMZ3e0W14vvch9I8/jSjolutwxLmDqxDXqt8ynuBIJ28Jgbwjm1/nC0xxonp0tn4Ia+ZfjchlpYQpp6lhXihGtdcmM9+Rss7tfY/hme6fIIFdwrHQD0sL1VEzLE+nWAwZOfAxHjRiRt3pOGvua9DWdC6KYQoJzxfeBIFUWbgpOIxdfY9gy+HbkC/2wXMGUAhySHvc7dvcctXzTZKJtiRDzbMKl4FyyahHfaIZmUQj6pNUpiRIIkjQSEihNIqx/ABGC8PaYZOKi9EEEq6Og01FlHf25SoDSyZV4SvCwyLLldgsCx3IpM7Aqq7LMKf1AoRoKgMzjUgxokBYMYjdfQ9g44GfwI32mWiQ1WFgeoMCW8p1UF4D61TPxUWL3oaWxjPl+USDoBxa5ABU5katAKFCQFVnIvOd4dxsDtHhw/jWD2/Ddfc+gsLoCHymo5lqELB6tMMxrUJqmF3HdojuMHVXr3+hM9J0hlTMOC4+/YFr8IFPfriGE0cokFxZyGLrz+/F+//1e0iNj6vOSDksrmF8WaQNmOfvJ+oy2PDvX4Y3d7aG76sSazVcuOZDouw4fnT9TfjidT+CQ9KceX5GEkx2TN9MG/7muKVT+MInPoAr3/E6wDcheOFJmHKocoXKS99GqUQWEYn8RSCXxfZNW/CV7/8MG7fuQik3LmQ5Wz6tFBWdd4TXUtNQ3mxX26eCGez4yUZJq0rLy4yuBjpzpWCGO2Xfx5zZs/CpN16OK664AOGMFiQzJGIfCwB+8WcmGHvsez/Dx777Q9TlmCplxM6TqI2CHgNiymthzcN4TAeWp57Fp1ImqlOSADFIp/DGs1bhMx+6Bs3Ll8JhRMXawIjJScmkxzW+9o3gMd3kNB38qgIIdH5uaTce23snDgz+Ak50UEoSK1LJuqsvhkDaK6GIOZg742KcMusKJFNL4FPfXznPOv3Z7bC4Hzv7HsK23odRKO5EFI0j6ZVEArhoU3giDFNdH1896FVvVTnUruQ2w+jRUD8cdLZ8FGsWvA2B12HUAqce5QpJUdnpWuaVw+Doo/jVjpuRiDbp0uywysKWD+q9knPAqg2WwLluMxxvKc6a+zp0zrhUeh0oIFABFU3dkFGVx+HB+/HonluNRDP7SOhCwfM4jul8WAZAWtpopaZtGoD9FELMRV16BeY0rURX0wLUp5qlykOqI2QnbxchG20poBTm0DPej+6R3egZ3YygtA1BOCDPrvoNdNzssGlAk6SJuJPhv/OGza4aD1yPE14SobcaFy58K1obz0To6HOrM+bH9Nko7cem7nuwb+DncKL9ZmnQaJCCE9oyEPDB6IbrpjGv9b04e/7rUXJmyhnLzaNesOLkpcfa7oC1XK+8VRdxoOyhPtz4/Zvw1V/cDW+CqpQ2oWP48EbqWq5gto102pMKSaaeajUcoQt12fMYC2qOXHefXEivfe/V+MQffKKm8xUKRXiFHO6+/mb8+Q0/QzI7gZDzg75UtBU0GsLZySiU4pIIQTqNR77zVXjz51Tux97eMUVsprjN7Di+f91P8OXv/VTKBn1u7AWs6C7W0mxsbULA4Uun8U8f/yAufefrGHsu7+6rx6cG4+g8CAMU+/vxxK8exd/c8HMhoTKdkDDTRICuADO+x1yndIWTmIoil0oYRv5ZFck46iasAXX+2ZWN1Qvl99/zkKtL479ceC4+9V+uRt2CBQCjJNPwibJZ/PJbP8BnbrwVfpakYX0SeddNOkuWYQNMp+GSU5xC01ahlFdq8TcjKqycGU+l8P61F+Izn3wfvM6ZcCgMVp29MRuYWjcHv/1neeErHHcAoRzuNsu43T3LRAmz2Nv3C2zovg0INkudP50DGzBxlyflRtJZkQPajLbG87Fm/tuRSi0AKK0rNfGKiZ2ogInsM9jY/SB6R9fD5S7cEMMYdqbyIp0x8bjuzrWe3iwNJkrBOaG1/PIyyULNF5bHaU8HfeXyKGEWlne+F6fOvgqh0yph6cqOcfLgVUCB/lxdsJFTRgGF/BY8uPs2jIzfLXl09QmqeGBBiaY/bBVDEkVnGc6a80bMaT0Prt+lE192qBofJVPcxzj6Rx7DE/vvRi6/CQ6ygENyHtMwqg3Bck4qUpIYqFUPthMCQRWffQbgLcfy9jMwq3ERGtJd8P02o8pITQG7YOm9Tn5W2asISGFJJStHBrKHsGdoD3pGn0NQ2gHfGdIyR463gDj20+CLW5AmWyL8JOkL1bsQhoMzA4nUuVi78Bpk0uQksK+ELqbqenQ+FPK7cP/OGzCefQC+awSfZD/GUcxIysFxJiQaIsDLPQcXLXwrmpsuNqkQmwLi8VUiPjU4LGsHWdS5Y2TlguuhODiMe2++A3/x/Z8iGs8CxUJZNU/W+nLNupLlNPRtFfime9kxwKUs9qNgW+iiImIFJKIIH3rP1fhvNQIEiaSPjeG+G36Oz3z/x0iOMyVn5vERBEt7Wf6YOeF13/0avLkECPZTRgjT9uB0Wv953Y34yvU/EtIkuQc2uVUWK6ryw1w2ipkMvvTxD+Kyd71eyz3tGBkHomQ2O/8V6JIUT/UOihQJNyfhYWJsHKmBAfz7D36Gf7v3USGmOkaD4Ogn1RCALUu26VOdkfq22hhjOelV5i+alcO8msqysHl/c68SNTJMHt9DmEpixaI5+NInP4zOU1cgSlA+vipKYnbSSiOpLSfPCMK9//Ej/P4Pf4bk+IRSjwWEHRG5LSPf6YlcVCaLNYC5ni1IKEeNNPUiJdPUWmlswBff/lpc8L63wm9kWb15VpsiPIY08rRN2GM80XELECoT1DgylJDP78ITe36I3rEH4GJAmi0F4ghY7uagSN4B8nCdejTVrcHqua/HjIZzEbL3gQiZQHT4fWccYxObseHAHegfexwpt0dY7uzcqFOjOuevaoCqQWDFSLRmnl0Gee6I4kvyDiizVwN8trMif5eBmzgbaxdejaaGMyS0XhYsKWevzW6p7DQrYeqyemNUQLGwC0/uvxMHhh5AxtmDUELeRRTNbrxCFrQ7PR9FzMOy9itwyuzXwfXZQdJAExFgUQfP5koDoxvw1IHbMZSlxsGgcYwKjqzDs++q3WNIokV2kE1wvAWY2bgCqzpPRzJ5EvxEm/A9+NpU5KYroMCi6wpIMKHEcjqJSxsJeH0YHN+Gnf1Po3tkCxDuRxQNmogJl74IvsteD0wFEMjxmhwDjUzogteB9qY34Lz5VwKJ+fBkrGU5NRCMC+AYdvfegw0Hfgw33C2ERp5XP4xSkJcwLikFbVDVgqUz34CT57wPDiM0Es2w6aBjAwhVsV0FCCylCkLk9+zFx/7669i0axeSVPKTaHbV7rVq7SwDBBvKnu71c9LiU9mZisQUxas4zq6HT7z/bbj29z5S01LF2w/Hx/HEzb/EJ759PVLjWeM7qyMpVacyz1RIp/HE974Gd/bsmq7z6x4UTuTxo+/ehC9+5/sa6jYS0BJDPMK+ssvmu5VJ4Yuf+CAue/cb1TmWAYJNHdlaeaP8yZRn5KDItJGQaFygVEDh8GH863U34Tv3PQJvgmXbJmBd7S+rH8yGuQ0nwcYTxa0zHWFIirqN0dlfof+VYxEaHSk/nH3IKkhiUmmB52HNmavwVx95DzpPWgRkqCOjPB8Lnuz6UkWIeNGhIEC48//egD+94WYkJ3LyJiXJXTJdcjWMcLTdf92xPfp7ZYQ0CWSLtAsrSMiNkTa2Bih5Lrq6ZuN7f/9HaF40X6NFk4igv9UXcFoe+7gACNU7aessKrtm/a0f9WHbodux8eA9SGA7PIf10aw1JpGH3pkLvi/ljHmcLBUDs1uYd9aaeiHfCRkxi8Gxbdi4/ycYzm5Cgo4wYhievRoYeWDeXtyecfLcoeueQXsxaCdIzlTm8On86fA9ad7ED7/HXDUZ/FwwG5BJzcPJHeeja8ZZcP3OqlCgdeLVoMQ6NsOnMDLD5Eog6MOWQ3dgR+/tcHFIAE0+4K45EoCj4X9+tJyRSDcfdmF+y1qsnvtWOAmWWKaMEDSXAFUaJJFwdGIr1u29AeO5rQBGROegUlZIx0egRNIeSY1cQixp00cp6kJbw+lYNes8zGg4FYHTCt9VYFAJluuu2uY2j0LbBn+rnXXh1JE31StS5tWLwZH12Nr7KHrHtsBFr2kCpXwI6QUgof7qFdQ0zAK7QS7E8o7XY+WstXC8eUeQB7mIFpAv7ML6vTfg0MjjovfA6JE6fj6PfWbd8SXcDJzkhXjNkncilT7ZcCosyDnGxUEUA00ttSyy7Fo9iht/cAs++6OfIT2eF5lrKTETYpzN/5udaBVpblpWjpc4STUPQdSGBSwDkeehkEjg7659L978oXfUfBthNotD9zyE13/lW6gbY4TG5PRfqETzdwwQCuN53PHj2/HZ//MfolTJvL/M6rIznuywpOA5k8KXP/FBXPLuN6kNqpQJy46XaIAlq1K2GqFYYqkoZaRDuIUCwpERfP1frscNj6yDN5GT/iksV5bHlxJTW/ZnEwEGsZj7Km83RHxLUw4qAG+k2iTapw7XqjJopFDfeolvlsuUq9FQ1bvFKptkAqcsPwn/8In3omvVScJTEHElo00hN1yjYFeUz2PLzXfgXd+8HplxCs+RFOqXU2VGzsSssy+GkmqedkcfaMGHTkDze8OBMSBL00p6bQKuXCqBv/3wu/GWt78eDqMINtLCsYojCL/BYFR91QKE6nCzppq09lsW7vxW3L/j3zCWfQ6uMypM9YB165KspNQsFc2YEJiHFV3vwrKZ5wFeh6h/qa4HX5IJDI1vwdMHfoLDoxuRdtltkA6JKods3JQVohnFlJTJLtPAlORRQpiM1ZTsiimGlPTqkEm0IJ1olqiF4zYI+c5qoqT9eqQSLehomI36VCdKUb1IolYzris5XQuJ7A67ajfNMHk4gL3967Cx+0Z4wVPIU2HObSBM0VJBSYPYqIPu+ItRI2Y2rMZZ896KuswKfS7DbrY5eCcqIp/fhnX7bkH/6APw0Ysg4nMy6kLnSu7DqO7InToRhvKdPIKoSdIJCX82lrSvxUkzz4GXmI1SlBGgZWuC9Tp0ILbvgR34iiOtHvfKzqU6e8fnU0axE00gW+jGzr5HsGdgnaQdPAxqUSLtK+81iY226ZLRSBCVS/7mLKxd+FZ0zLjYaCRUO3JV5uwfekBku93gCQNWFOxUmkpZmWEfeTB181osmvkmRG5TVY6+Em6s5S2h8xcJYekvoJGNsW278Pa//gp69+5XyVxJcylZ6iiAICJLlXVNc7W/pU+5xI918yrxLPr9fgL5xgbc+GefwpLLLqj54mEuj8JjT+Lcz38VdWNG3MmU2x11kt8xQAgLBTz581/hk//0z3BYky+AtYqXV0HAcqu8vYlMBl/5bx/C5e98Q5kDIHPchtv5F0lnGtcsPw+1FxTXvOEhfPu6n+Kbt98NP1dQHQU77rbss4oYaOlRFXJdBUAE1DVgoytZT6vBhP6b35UiY5GT1iewBcwV21e/I5MdM3+TT3q44uzV+KuPvRv1C+fBT6V/PcXFYhETz27GlX/1ZRR7+qRZFEmB1llXggdHGL3mmTbFgeYCakeTdpFL2euZDUgFOohWwumnrMA/f+4P4c3q0LmhghUmsnqMG4XpepYaz3NcRBDssxwZahYxJCHl9WPrwXvw3KEfwEePLNTcoXPas6eALwIeLJGrQ1vTG3HpkvcgZKc/qWhgAJQqFkXkc5tw367bMJ59DBlvCMWAIWQCAO72i8gFPjLShY5/bCmf1f2uRzZagYbMSZjXtAidjZ1ozTCsTO1/Rg9IUlENAH3dNVzFNITj1puSOj4pVfk0LH9UjNLwho90mHSKQ2NP4/G9P0Y2/5h0XiwEdLgM6iZRCEtIigqqVSjkdTw0Zs7H6rlXoan+TEQEMGVEq+x33kM2+xy2Hr4buwd+hYTTj1yJeXYXCdF2F7erkQPJI6oipchWowltdadjYfuVWNB2OiKnRdpYixxr+QXSJ2SnSW23bV66MpnTerTqOIPtOse0hJ7LlpHLwiW7ay6aI+gZ3oT13b/CWHYDUu5+lMI6UbAkF4FliVpySaDHFbggzZlYpthQdzkuXvR2eKmVYr/JvS4CuGEP1u/5IXb03YykS3vwPmkDm27RCI2q0TWhpe4crFn0UaRSjErYSFIF8NXyrsqiYvZuGj4o4qm7HsK1//RNeKMTiMIiHJctsCvd98rrllnPSOqrlH/Zhak6RFxZ+CqL3gv97IUcQmdC8boAACAASURBVGVWqrNTYE5SXoL6BMyf19XjLRecg//53z8Ad2ZHLY+tY5vLovjERpz9N18WgKDr8ysjxUDnvPuBR/Cuv/xHVRCUzYZtxlblOySSorvxQn09/r/f+zDOf9vryjaY1DPCRiAMX4TTnK0SPIKG7AQevP1ufOa6n8IfHUcYlpSkyeinpBGVtFmJYFRHMywAoOiRhyiZRFBfj0XtbVi7dCGWdrTC8z3kwxDbDvbiyd0HcKivD9mRUYBy0gQipvlUudnQpHEwHtRE4s1qxrce+YSLN1x4If7Hx69B/Zx5QJLMfnWuMrVrqdxgVU5/P77wjevxn/c+gFRBpaFlg1fGJdXljUcChWrw8mLzvtrhVx+j81tWJEuOtfdcBlbk+Zh7kempGi7Jpgbc/Y3Po27pQtP9UtPZmnqNAUJNC8FUB00mq+lE11RqiEJuK+7d8X1kc48gQlbkQqmdL93KorSGgEkechbgkiUfQXvzOarHL/NFnWFU3I71B+5G9+BdcCI26WmQ71Mhj+Ag6bJlcp2Ep0tRTgiQzDHDnYP69BLMa16CLkYC0nOEdCfyzFJBMbmiwb47ShbSLoWO1NLzN3Sudhra71U7R410VHd+5A5/LLsZm7rvxqHhu+CzQ6Ps7mkfsntZGV4U3QHf9VAIEhre95bgrLlvxJyWC1ByZkhkhAJEbKWqts0DwX48c+AX2MmeBDio53Do+LSqwYYkWQ1BIiiv47kJ5IMGtNSfg9O6LkNzwxnwvBZtZmP4COXdtg2Zy46YraFHRRcC0QSKQRaFoIi6BFM6KQEw1IcQXQYp0TT5UYPmNTbC/5o8vJBWBzA89iyeOHAvRrOPAmGfaeCjolBclFmJkhIQSLDI6okcQmce5lNFct41cLxW2ZmrzVVJkt/rH7oHD+6+AU64w6SUDFiS56SOA/kOPNJDwl+Es+Z9WFJIbJFtoyaV4O1Us98sWlbTnWfIjuMH3/0pvvTdm+AWWfKljkHsUNnQ6InNGiStlj0HhVQCBd/HrAwjYdO3QJUoikSoVCxivFDQxmOeg9ZMBotmtuO155yGd7zpciQ72oEk342pP0JyzedQWPcUzv2bryIzxsZfNtVSWfC1uKOSPvpdcRDo3fY9ug5v+5O/h2eUHeX9OaIsUKP1Oj5BfR2u+8OP49Q3XG4QhIkKCrnWODgOiwUI5Ebl2D+jiJ3rNuC/fu3fUeztVWdt3ldhz6vIBwK2dS4D54qYFAmRRc9FU0sL3nbeaTh92WKsXr4Ede2twotgPwmW3sm9FgOE4xPI9vbj+d0HsH7nbvzisY3YeagHXj4nUSHhlBAEGi0AHRcrwmUfjQJBTH25CBsb8Pn3vw1Xve0q5NNM/1Jh0DxvLZoAXMMLeQxt343v3XoP7n9mG3b19SNLYi4cpH0fdUxhMEIpBRmToxlTz7aXPiJXKGCcFSL5IvwiN4hmUTgCU8jQyUKvlULFVBJf+3+vxYVvuBR+fZ22iqbSbY2pld/0vn+T7x8XEYQyg7vMw1eAIHLC0SgODD6EJ/Z8yygmVrgBbKSjPc4pi9mJrua1OHPeu+H5HWb3aI4NBvFs9214vvceJLENxXAIvtcpiovcnZOVHyGDUpiC7zLESVJiGxLJ07GsbRUWtJ6GRHKh5u8jLWepAIHqJViDdDZCoHXslrSoTlLnmmoJTAZF+ptKqRLD9EWg1I1N3XdgR9+d8LHX9Iyw8WNbXqjpBYKDxmQK4+F8nDbrtVjccRHgzZVzCrfGXpUyxuEhPNt9J3b234Uo2AVX8uyy3y+T9rTxEu9SlQVdp4jIaUVj+nScOvt16Ghi2SDZu5PTIhWAwOjDBMJgCBOFfnSPdmMw24+e8REUghGVvw49KT+dkWpFV+NMdDa0oT7ZBs/TyocQKcn303mzSoXjTfuyx4JWL4xgeOxprNt3F0az6yTCpMTRJDJ+DlmRKOb3q5/PQeiehkuXfATNDatM6aOCSS2pchEUtmPd3ttxcOgWJNzxqneQNrJ8BCpURvC9GVjc/hac3HU1HL9Tx9gQmcr10VO8xTLjRTdfgXHY34fPffHbuPX+x+CKCFH1LsqerLKVI3goJj0s6JqLj605A5ectQKZlqaa87+1LDL2WaJ8EaFwIiIUXBfJGfUIGuuRaW9D1kkglUpI6LWWj6RVigXkHl+PNZ/7OjJj47rwSys94wDMY9qFmT8tZtJ48vrfPkmR82H/Y0/irZ/5gjYQMm/wCwIE8VoOcg11+PGf/h6WveaiyQBBdtOcjBbXVfQuiiTl9ffiD/7Xt/DkU88BAfk+FvmZCgJXRYsyVGmJIqSpRGmACgmDbiaDq047GX9yzeVoXLkMXjPHnx0aj+y6qE2yrLMvFgMkinnk9xzAjT+7B9967CkM9B5GQxAiFxbhaWsqJV9biQr6TimAIvdHNxNF10FDezuu/6tPYu6qU5F3EsKPcn1NL9aym87m8kJMdHNZ5Pr6EfUNSBOyyPfhZVLSM4JpGJHXnkbwS0nrYDyLPXu78fW7Hsbjz++AkytUJB6OCFZY2WdG/gLfxxUXXYB/+KNr4bW3mhlSiZjW8h68XMccFwDBOsvJE0gXSvZb+OWOWzE8egM8h0xeNlbSnbkyy0ek3j+dOh8XLboG9fWrVZjHyhGHY+gdWS8EvEJhI9JeHrkASHppISaK0zPsF5IPyRMI3UVY1HIWVnScjUxqCULDULe8X7tXmDxFLS3ICjXZNrDVQ18R37E/rWbya66e7y3BAUPdfXj+8D3Y3HOXlHWagJZoHujHltVZUR0foTMHS9uvwMldbwK8WbpzNgQ+WRMYCYgG8HzPg9h86CZE4V5J1WgGkkREmxulQJD2l2cqg2WOcGegKb0Mq+e9D831KwGXpX96vwbelPUJIkZhInZ/3I4tvRswkduKUtArcsasNNH20FoMGoS8A8oZE6A1oCG9GDMbTsPclpPRnCFLPa1dJk2HTcuxVn0CovhREc9at+8OjGbXI+EMo0ReicgmUzeeqaQK8FG7dWJ2y2tw9oK3S8tv7QaoTyGlj+EEeocfx2N7/hUIKZ7E0bZOjwsUT80ug/xLCg2Zs3HZsmsR+UtMu+tja+tNRynzK+QYOMju2YcPf/Yb2Pn8do1IWHKUbp0UuBn/QYda8hM49dSV+IePXoP2pYsRJpJIk1U+XR9ekgu1TDsu+EpoK+QL8D0PXjIBsPxNSPi2nHjqi9cKEGhmzmTunvkp/o6qGCSC8NgTuOYzX4DHxlK6WE2OIJQjOBpKz9bX4Sf/41NYdsWFOm0s4VZQoAEI+jIqCAhClIYH8d1/+xH+5Rf3wBubkL4IcilTFCMRFMlrM2VHNdlK1ROjBrNmdeJP3no5zn/NRXCaZ8BPpowWAls1y4XK/rR6Q0bVSkaCpBlaIY8oP4HuLTvx7R/+HD/dtAV14xQsYyMjo84oBElTA2Hy7QQn8nZEQCHh4Yo1q/E/P30tGrrYfp25T56/NoDAlI7MMQ54EKA4kZWqHfaHcPwkXAnzcR7WoEY59fSbdASBkheVMLJzF77+nZ/hpofXyZhrSm1yOqIam/D525YsxK2f/QMkFszVKA3TNaYT5jHexu/08OMWIATcmbklDA7fhzt33Ih09KTJA9uwqRTBiOqe585Ee/ObsGbh2+C4HYZ1TmGfEhDsxYM7vo2x7OMIwwGjUUDJYE58k8+THHuAAG1Ip1bj5I61mNd6hoSfWVPP8Lxwl802jg4kYJ9yI70chiQ4MjTPkBpD5KoRYPvDq8iSVSCcDCsmAwRTeCfVFkPoGd6Ax/b8GFGwFXS4Nl2hGX3LqFcnyR1z6MxCZ9PZOHveW+ElFkoqwojMyaLiso4/6sOhoY3YcOBmBKWtKImIE8P8DKmNCBFRP0zj8GUkYZH3XIfG9CqcPvcdmNl0KopoEGDBQKQrKQHdqYulgiH0j27A1p4n0TP+PFLOIZQCAjnuQvhya8KAZaq6RvIltD0bEgjRgCBqRDrZgfktq7G07Vxk0vNMtIL3yuvweHWqLA33MYR9/Y8LJyEsUSZ7RJoviQ0kzaOlqRohYASAra4XYe3ia9HccKqkOMzdG+2LCFFpF3657bvI5x8GwCiCBQhMLyhAk9AqdTecuXjtik8hnTlTeCkU09HSzto+tpUyZadpnuLzO/HGv/gShrspoW0AQrlSwUjN2jArx7a+Ed/54w9jyUXnw03X6SI1iaRQ23281FFWabNMQDVhVs5urXwLtFWu6yEyfU6mumoFIGzAms9/DZnRF44gaEyxktDLpVNY/72v/9bLHDXF8ASu+eMqgMB7sRGdqtdZ5gQBQkO9AoTLLygDhIrUsgUIRgGTIDw7gR2bnsaH//ZfkB8Y0jSXaLAYR2mNaFJM5ArwHWJb6TCZxNKli/HZd78By886FW5TM0oupdWVJ8IGVia7qSQJ/kOqJxh906ZeGrmUGKEQeQvZLIqHe3HdD27Ft371MBIssWSkx+hsTCLI8nuOK9crSLmrB7e+Dt/6/Q9gxaUXwG9qEgIrI0q1RBC4Zks7Zdv23D6HREHMK1xWD51qdh3b7wPTdTPMTuC5ex/BJ792HfLUnjDy1RYclrPEJqoQJDykZrbg9r/5EzSvWmFAX6DdL6cxynFsT1Pb0ccNQKh+HM3DayfBp/f9EFt7foKEM2bC3zzSGl7D976/EmvmvQUtM14D301X8slBD3b1/gqbDv4ECLqFt0BSou+kxGHKqxFFSHoBCmErmuvOxKmzLsXMpjMQui3GubJCgjtQRa4MaecL3RjP7cbh0X0Yyg1grEgeA0saOTdS6KhrRWfTSWhvWAH4nVWaBwbJm4c9UgegzPbHBEYntmD9vpsxMvE4HAwhH7gidaziq9UCQzbl0oiGurW4YOHVSKaWy25bw3AMWivhkP0UDg09jkf23gKntBkRWA3iSu8DdslUkiVFhjRCQ8fnYAIhWtFaf76IPFGNUHpJSFDR0rL48vNpssjlDuLA4GPY3Hs/coUd8v2US34XlfB0XLnzpEexYX/+joCQ/A8SLflvBQEECy2oTy3Dkna2cT4bjj/blKIaqeQwQoKNuViCFvZgd/8D2NR9M9xoh2gdFFi+6jCHb1MMvGcqMbooOkuxsPUKnD7nKniJ+cpVkbyraXoT9mJj96+wp++HcCI6arNCKeXSlIFqGiZAA5Z1fhKndF2E0GkRXoMFZ7W8qhqpcRAEgZCkStu247V//mWMHDp8dCrK6hyYaAIJaV2tbbjxG3+BxNx5yAcOkknpN1fLpWs+pgwEmBvn+yNdCt1yK2Mq/LE5kewmvanbPYv/symGdRuw5nNHAIQqgEMraysuvgOO9AJ48DtffpkAgpa+laWJj4ggTDTUSyXHMlZyWAAhBjMOmsdL62ZGWiJJJ33ta9/B9fc9CregTd+sUqOGKzTXTVAiFd0UbGJxctLHyYsX40u//0F0LKcOQQYltnimo0+a3bbNLVqEJbdQydkI0S5glEHnq5RLc/7lCoiGhvGj/7wdX7vzPmkQ5Ul0sUoG2wBEajcQJJAbxlWh5PuYuWgpfvSnH0XTqStUY0ZIz1N/uPESQSZG9FySoSN40vo80jbLjGSY9Mgx4O+pLyzpH/aqceFGAQY2Pof3fu7rGO7tKwME3b7ZT0WRkk2tki0N+PFffBpzzz9HUQylluVdqOao1XAbv+NDjguAUA5ZVS0IUVSAU9qJe7Z/H+MTd6EYsfGS3TVbkEAnkUFz49W4fMmbUHKXSW5awpyiOPgc7t7+PRTyG6Q0T3LxLlMKdMUMQbsosHTJzSCZPAtnzL4Ss5pPR+i2m3p9InnzMoWjGM/uRPfIVuwZ2omR3F544QE4GC6Xv9nSwWLUjnTqZMybcTZWzToLbmJ+ubrB7oOsHoDO9YpcCXcPxfx2PNV9Bw4O3Ss7flVIM7lppk5cbS9NF8DSRa4BfnINzp7zWrQ1nyU7cBEokbp5OmcfLsv3Rp/Gxu47UMrfj0IwIecVR2aUKEHiZoWBYK7pIJm6ACtnvRbzW88WcqYIoRiRJdv50InGMZHdhm29j2F7/2Pwoy1IOEOIUIdiyPI/rQBgukJloXUMlefA1cvq0xlXILsl/p7piAxcfwVmz7hAtBa8xCKROjaBdtW3kHVUxbQ2HvgF9g/eipTL1sc8L3OJtiU1rzwh4lch5iCRXI6LF78XDfWrtceFEFeZbqBscA7D45tx7/P/G160XZv0mPoU3ctalUX+PYNE5s24cskb4CSWmh1Q7fsHqc7gvDSthEvP78BVf/5ljB86JPPVWknX5LLXkQuEroe21pm48e/+OxJLFiGRpqodF1jzLkjZqTKrK5/qf5it0FS7HflKVXWB3K+SZVniqIR3PVfN3IsyB+GICEL1vVQ5YCnwcBy0N8/Arf/3f8Ht6joiUjK9boOOiSTFIyMIZRKSNagxC4FDoT6DG/74k1h25UXqUsrRaTtjWV7IlJeLIDeBwxs24T1/+03kRkYklE1HLBt7izCrujFKhiIE8r6PhXNn4y8/eA1WX7IGTn09wlJJCXx2DISQeKQ9yjsjdbZm6CUBUDV+BG6lfAnu0BC++n/+E//xqwdRny8gMOktTaBqtRZ3/NJx0o6EA+SSKXzx2vfg0ne+EW4yWTsnpWpqCw8tYMt3U/HFZxcekuVvTTHW1RyWSY5Xv6el02ZKMypT5CaJVXMhetY/gw984RsY7h/USItwYsxJTEkFIyn8qwCE1mbc8OefEoAg2whGQlhdN9U79TsGBEde7hUPEI6uXlD8zHr07Nh9+OXOW+AET6EQBIYVqqFlfetSIkS0ouuTWNr5GnGWVsnKCXuwved+bD54PRAdNOVu/I7pyCjfp0ZCGgl/CVZ1XY0F7WsROC1lhy1VAnQCQR8ODD2LzYcfRC6/Hr4zaICF1R6wCnpUUqRaI7sU1qPoLMJpsy7Gos43I3KaJ6ns6RSdXPJYDEmv68WWQ3fjuYM3wnfYvpnXqK7DZ0SDr6c2M4HTBt+fizPnvhtzWs5FSOEm6YIo+zPZFfPYXG47Ht97I4bGH4eLEdMBUeGARmwINrTxEdG7yE1HGaRSq3DmnKvRNeNMRKZtsgl+yrHSbc6ZQCG/A+v334XDI/fCQz+CiHbmbogRCd4TUyS2bwYFnfi2sbrDllNajoBF3DbaolsfAVTOHCxsuxSnzLoKfmqhaFHo72QkNUUQ5TAw+gwe3vVNINgp5Y3aq8IuJnasCFJ8lDATq+ddi/ntl5umUnaZ0+OdoBt3bfkqcvkNkiLRNArvn8cZnQj5ex1CdyVes/TdqG9Yq/yNqjV+6nWAKQ3NrVITobhjB676sy9jovuQKkmwuVfI+JEpa7OLlYFJYSaNP379FXj7+94EtLZIF0GXLYIlzEynoa+M8L/N38t9HySdO2lv9GsJ3Uz9jEcfIamVYhG5x00EwZIUjwQIFcKF8DHaW9twy7f/AW4nSaEV0l15xf91buaFviMAgSmGv9OdbDVAKocH7Be1C2UhncJ1n/4YVr3pNSoapDOpcnZx+NRxcRD19uIf//d38eMHHjPMeXtseYAn35Xhb7rNLfj8e96IS655A/wm8rKm7yMpVKp5cj1wIvQ8sxV/8bXvYuO2LQBbUMsc1ZVDBLYFWdjH1GoL/u6ic07HP/31p4AZrQIgp/dTBXT0pTQ2rrIbc4+imF9BmLLVMgxTznkeQsDBWCXfv2y+gOT4OH75s1/if95wMwIzH6NyRYKJ5gg5VNM4Ig7V2oqfffYP0XXWKVoVxYhmeeyn98mn82yveICgw3r0yxCFI9h68CZsOfxzhOFOrVSQcbbgQAFCIsEd4AdRX3+u5Ju1MiVCPrsJ9+66HUH+buSCMRFRqpD6rNMl4l6Ihe1vwMldr1POgewiuetmODOLXL4bO3ofxM7+exAEvfCdMdFL4PmUW2CdhD4JQ+TscZ+StEUafvI8vG7lp+F4nYJOj8S80nZYdrl8sXI4NPArPHngToTBFqmwgCHaGUaTiUSQPR8i5YUoYBFOnvUWLJ15njDotQ6/arEPcygWduKp/Tdi//A6JChRLc6AUYBhZTIjZcaAyoopKXUkVHH903D6nLdhzoxVcLwWubbZH6pblp0tZaufx6aD9+Pg8MPwsVvSLEr8NPoJsv8loLES1Lp7UuBjAYKGVjUVYMl1VntAGya5TgYlZx4WtrI7J9MC88r3ZPYEOj+CHmw8cBt2990iqQHaRNcIq2Ng/s40Q9SMmTPeiosWvh7w55t0TGVH7YR92Hzge9jccy+SDkWkeL+FI9pQcx6wjfV8nLvg/ehqvbKcg68ei5d8sRlWNURFzt/c3r34yF9/Hdu2bv//2fsOOKuqa/3vnHPr9ApMAQaGoYMUAekqqChYotEYoynmvUQTU1+Sl7yYxCTvvSQmMZaXqjHGJEbFggoiiAiChaIUpddhBqYxvdx2yv+31tr73jsjxjGPPOX/y/3FgOOde8/ZZ++9vr3Wt76P5Xe5bYrBgWy+ySfMl8r9hsjIz8EnL5yPSxfORFbJIPgzszgVzivGpE4fS5G8dG07VQ+XTVQTyd5p8z2dW5N81ukCCDoL2f+cTT/vpZ8AQUAqQMJEpK53z82fwryraE/RqfXUmiTPFyrH0Am248BRfOz7d6KlroG9HlJgIm1PTBPHogAXD4dww7xZ+MKNV8BXUgYjIFye0/WieejE4wwy6VpJpOvo1p246ee/R1tjI6fP5eq0zbYOzmouMnHYAIoK8OS3bsaAaZNhBU8jYVZmTq+xknyGSEonXxoX6DR/2q+wkKXiOdqOCzdBpmExxE82Y/WqDbhz5Xp0Np+EyeUNudfkd6qWViEvCkAIDRyAVT/8N2SMqYJDBmTBoKy1D/jrDAUItMk34IUDD6Crey0cr5l5A3JWlJM/TxEjA4HgBVhUdRngH8k1dN7ivBhqT67CG8cfh+FQapjEbjh8q8dFgYJOryGEQnNxXuVHYAWGS92e9QvoG2Js3rOr/kUca30NhksOf6LN77oJpseJJLOerGpzVSdx9ocwInDNKVg45jZkBAepBSXv1/bAXPcm0Scjjs7uHXit+kl0R7chaCU4a0Ip+ZQ3BC0yEQKi7IaNcowovgCTyhbBMaVjQQiVslzob+RWueP4Mzja/DwCBskzE2KmwExj0cXGSDwWTE4kYSpKy4fhWhNxVsliDCuaggRIOjnA3ABRbSQ9AUqT9iAaO4Ttx5fjaOuryLHqkPCo+4EUDSljoJ0f9emBeCS0YVJGgS1+1Hv6yv7Re1Rake+F1CLJxtngtqmIV4VJpUtQxW2c1OWgnCi5DEOgJY727l1Yd+A3ML2das7Q9+nMhcpOsI6BH4ZvBhZUXo6MzFmsK5EqHFM87kBL+3qsP/IEAtjH2RvSQBCwqgAPjSGBU/JmGHgDxpZeLnoOatvuX5pRTsHSJm/Aa2/B7b/4A5auWs8AQZcVUir56YIxqpmCuB7BIEqLBuCzMyfhnAVzUThkIIyMMLeJEegNaNe59L1LL6t0bkuvjVZvv6e/ntpvgMAnd2Zlvi2D0LdN+rTuyf0ECBwiyaiJtFmCfvZiOP+aJWltpumg3YEdp1ZjBzvXb8Lnbv813GiUtf5FDbOPSJSy1GZfNZ+F0SNG4Ddf/RSCVcNhkrYBk+FO44vS5vE41/z5lE17VEcn/vzX5bhj6dMIEHjg7gqVPejTUSOY1YUdDOK6eXPwpW/8CwI52f+wdLs8f/UPzxGdfUztzsLCVNk3BlyS6XASNoxEAp1NzTj0yhbc9fwmbD9WDX+0BwZnjPQ+lAZKkt8h3+lYPlSMrMLDt30BgaFDEInEEQpLme+D/jojAILgzzTkR6qH8UN4ds9vYDmb4HFbHNWcdfZAyecaeRhc9ElMLp0PkPYBbyLUqtKCzdWPoKblST6Vh6wEkxJTpwvJIFBK+KySRagoXgjHyIHFJD165DYS8VrsqVuOfU0bETKqxfUQGYqwSIFGtxrqSaAnpey2tBkTyCCAcNHY7yAcGMQ0QZ36l4lDJQ4K63FEY9XYeuwx1HdsQsBsgeNSTZdq63St+iROgdWB40VhGMXIz5qH6UOuQCA4TNleqwWh1oGbqMbehpdwsGkFTK9asaP1ZqKU+9hfgYJHiAMrnVTDwfGoKLyAA7BpFSnWvxANCRRxAPMi6OzehzfrVqO+41UeIyIEmiow0jNTtOm0bAFlDjTAo/ui99B4EYDQoCW9BJT6GWUBpHxjI2hR+nwipg/+EPJz57EPhrADdJ7FhW03YVv1A6htW4+gSSUPnb1IP6URx4Fq2uUYN+hDqCq5itsp5aVAlhdFJLof6w4+gER8kzxXQ7gdKYAgqo3UlVGUex1mVnwYnlWU5DT0DyDIpir5ARNePIJVS5/Ft377EHxEXGPiJLWSySpIghi+DqFMMheAniKlNgMBDCjIw8SKciwaNxazp0+AWVaCQG42tyMmZXd5oyTyGSNu2cT1UtTa/wxQpDvhdJ/Q+wsQUgSxDy5AoKEjfoQTCrAXw7yrl6TS2wos0ggzaY/OQC0t+O7P78OqjZthqe6VtwcUDQQFPNgZGbjjxmswb/FCeJmZDBz91HpwGnX/OeyRfLbtwOenmjz47901Nbj5e/dgb3U1fLadFDOX5aKP6zLb2czMslBQXoKHf/wN5FeQo+5pBjLJlaonrLagUusjrezBeFfV2ZiYGYnAPdmEQ9v34tGtu/DWkaM4VN/EP/cxmFC8g77foTN2ScEoD44vgM9+6GJ86sar4M/Ph2O78PlP/1r5R4CNMxQg9KC1cxteOHAf/NglZ2EmKeqToqR7PGMgZgz7N5TkTYHLgYnmQBymfQBrDjyMzp4XuPtAFAf1Nq3FTkIIh5dg4YjFsK0R8JlkOmRJGtdtxO76l3Cg8UmYXN6gerU6bSapOBSFxWBH1oZcI/MDjDgrMzrIhuubgSVj/hU+30AmC0pZSudC+IwPuLtotQAAIABJREFU2PXYeWItDjU9jYAhioYkCkQBmSVWqUeZTaQkqJPyYDA4B/OGLUEgRF0FBBxECTbZAui24WjTOmw/sQJ+j8aQm5gU40DUAmXTpSApyoPUVuoalRhRfCHGDZoH1ypl/wn6b7RLkFmMaA/YiET3Ycfx59HQ/iJMNHPmgcmQqq7HGQZpDlWJSFow4rzJKoRMsqTyCvEdNNuXMkBCfUqd4iVoyu9Sn70oY/qtEIpzL8PUwVfB5ytlcpZU2JWOgRdDe8eLWH/kafi87UL6SiZiNUjwcfcDKV0W516KWcM+DVh5SZjB10BGXvZJbDj0O7bXJh4CPY+UoZc2sRLwFg5fjgurroFtDeWMjryvPycJ5RTI84lMexKoee0N3PDj3yHWQqUNMgpSMDppGJM8+vNXcOaLiKkshU3cA8Amdb1AEGUFRfj43LMxY/JYlA8pQbCwAEZGhgILAhC4osxVDK32J08jCSY+aADhvh/DHERdQhIJ+g3E3stO+x4yCPyYDQOxUBB3fvbjmEsEvWSaWeYAAwQqJXgeevbsxwW33gGX0vZKrfCUAEHdH2kj5JQOxDM//CqClcPgkghSIgY/lRhOo2ofdRQRQKD1TvumHVeAOBbFpmfX40v3/gVmV3daF4++ap1pEjs3Xos5Wbj3m7dgwuxpwGktM6S6CGTu9iHvJiG+eh+RYaM9iLS0obX+JN7YfRAPrduMHbW18Eej8NvUoiv3zRiZysGs1NtnVqUtOYlBBozMbCz/0VcxYPIEeGxSR909lH05/Rm39zJ1+/PeMxIgGG47Djetx84TD7FIDYcYJohRGw0FEQqeFvexXzTm3xEOjWKFQ6rdkidDpOslrDq4DH5vJ6fD6TQrAEOCOv2dyH0Tyj6NiuLzAZNIPvTkyTmsCy0d2/FK9cOAvRNx1+Ngz4GctQjoM+jEKu2FhOBjLimNAWHWMSZNgDjiXhEs32hMKpmJiqJ58EyS9E0ZNWlAa3lNONz0MvbUL4XjkCAPnar1KZv+Ril/TcYjM6ksWP4pmFJ+KQbmzWSdBuI9aLAsRMd2HGvehL0NzyEW35bWHkrL1kXccRGyDCSI9EbW05w5cWBjIMYMvAiVxefB5ycSoKiBEUeCBVooxW/E0BOrwfba5WjuWIu426Lkm/UJXWVnGNDEeczp2TBYIFMtlrPOhd/KhU0+GoaLmNMFx2lDwBQTrgS3XKsTs9GFmOtHkIBeMpVI45GAzzcBM4dehpzshfBZASZacl6GPCpYZKsaLxx4GD2RFfL8kgZcQnSVUgttZlFkZVyIuZWfgS9Q3kezgmqQUWw+cj/q21bA8zqU8JRe/EpfARncDWL75uOKMVfC85E/hTb8evelqtOkuuWacIVd34Af3v0gntjwKkKUkiZBJNqQ0kpbQpRS4Ce9Ay2p7SK7J883w0IoM4zS8kG4YvpkXHPhbFjZ2bD9AZjhDPiDRGqUfIQug0ncUcHtH5AyfS8ZBDZKoplqAAMLivDUvT+CVUIAQV7vN0CQUrWBRCiIOz5zA84lN8fkmKWu0uU2RQ/blq3Bjb+8H4EI7SssS/g3waTj8+OSyRPx3a9+ArHCAgTDGVzCoLJistuqFxhNK7onp+A7/axPzUkUr5i4x/wUWn+Og47aE7jp+/+DffsPwufIwUlNF/kGBqoaIABuyI/vXH81LrtmCYwcao8+PS+6Lu6cID0HBQ5obhCoIT0r2j8ILPd0RRCMRxFr78TWrTvx6IYt2F1djfaOHnjxBHzcoilHC+b2EAhXQ6FJiDy30vgEvDtzVg1IWBZmTRqPe277gviP6AwDgel/wHo5PaOX+pQzBiBodM1/uk3YfeJp7G9cDnjNavXHJFjxeZROyyHkhM/CwlFfYXKZ3iLgdmLviT9jXyN5LiiRGc4AiFe37TrwmRnwzNFYUPUpZGRMldImGy4ZsGO7sbX2edS1vwTLOwSPWwZJ3JTKCtpOWZjuFDjJ+TBoESElhIhNIIVOY9koyBiFYYXTMTh/EmAVMnBQMkgqONG3JdDS8QpePvoYXHs7L3ThBNAuLYx/ulcK+iHLQY+TjYxABSaWXYeSvLNhWnmKD6DO3XzK7ERjxxt4vWYpYvF9sFggiJN+6h8JjrQgYo4PPlPsjB2UY0jB+ZhafgE8kmcmEaPknqFPtzHE48ewveZh1LTvQNBsZQEhqY/rTgt6EuLpwJbXxIuQcxMS3kAUZI5j8aPS3DEIB/K57NERaUBD5wEcbdmG7thbMNEohlDkDGlEOTMhhzPd6SBqmjQHBuXOw4zhn4dl5Yp1NV+zkBotrxvbax9CTfNflNAUBWxpT+TuFC/AGSbbjcLyz8B5lR9HRsZEZdssnyMn6AT2n3gEexpXAO5xlcXR3Q66PZOIni5scxIWVV2KUMbcZGanv4tat7IqOU0+Hdbt3IVP/ui3aDtRx4p7kvvQO5hY8ib78dPjS1rFTr9dy8MSkY44CVmZmbh4XBXmzJmOieNGIpyXBSszS1Tr6ATFbZKSIeMTquJH9Pd++vO+/gIEziFxOx0Z5hgozsvH0/f+GFbpIHVdkqs67a/3kEHoL0CgU6pn27j/7j/iV8tWwK/6/JMRVpPgJC+ubslgSd/MokLc+YmrMGHaBNjBEPx+X/+MkHpF8XcZJa67CUAAsflIbMkyEYsmEHIdrF+6Ct9cthJed5cAE5Vo0lNTl4PoyhM+E1dMm4Lv/MctMJUM8el4Rhpk8TVSkE+uDY+5A0Yiho6TbTiy7xA2vvw6Vu86gNrmZiBhcwlBjpoyuixvzwC6r8YDtR5LVoh9UFTnAkMS5ouYiGSE8T+3fAznXngejEx10KTOHNIB+SdAOB2PWi+L1I5GrWVbqh9EfftLsN0OOYW6cSYh0mmZ5q7j5aI8bw676LlWiapAk8hHG1btuROx2Abe+P0s0kPkOyG+xVlmOQvh8ALMG34FfCQqpIiJVOOub34Wrx37KyyvGgn6fa7PEzmPvl+dCFkRkGZLPkxzCEz/cAzKKkVOsAj54RxkBcII+ArECIh1A3Sk1YQXCjpRxGIH8fLRpzl1HTCprVDX37WjZIzbKcOWhbgXgo0yjBl0BcYOmg3DKk6edDXw8Kg1NHoQGw8/iu7IKwhYpF5IbYb0ecIJoIyKtODFEDDFRMo1SlGSS50BiwHfUBE1UQQkElIScifpUtTgjZpl2Ne8GdkmlULIt4JAABEcGbYlQQjbb7M4AZVuyHFzIKoGXophBRMQCgzkrA1lgSQrkYDltSESO4qdDTtxrGUjfN5RzggRCBP7aL1V0jyh66YATxyPSbhg9JeQHR4B1yAeRWoeUSniSMOT2FX3JxgetYzSNWpyJKlh+uAn8Sm2lR3DNtBFeQtYCEoYDfRZ9N1xtLY9h5eOLofh7mFgJ1kX/V1S8iKA4plVmD30EhTnL1Z20u91jaSRqYhee7IFq5etwdcfegyhaBz+5EaoILWaW8k0u8YOjCS001/6GZvMfgRoEPGTNj4rEIQ/JxsfOWssPnnZfGQMHQpfXh5s0+JsTshvMqGON+PTnDbtL0DgO9DNFfQv2dl45f6fwyoTgCCg6kwACCIO5UUj+M5/3oPVL77CmSF5QikwkBJiUoqISvXV8VnwZYQxMCcX4YBfApsSp3qvM+1vv1/l0nlspSRCa4tk0XMSMbzZ3AQjGhNVkHRSpRIZo1VGhE2Sea4YVIK/3nMbrBIiap+eF3Ud0NwlImXCJjspE0FyvmzvQOfhw3hqzSY8+MYudLSchE36BtSOzbchhyPZ94S7I6tXyOkCcgR481+TGE3KLaxDoeTlewIBXDhhIn7y3c/Al18o5To9Fv1xrzw9Q/G/+pQzJoOQTlI0nRqs3f9LdEc3I+50s/qhdADRiZeIfVS9HoBRAy7AuNKr4VnFakN34DoteOrN2+F3N/Lm5iduQVKlD+zuZ5kFKC+4DlPKzwMsag2U+hV5B2yreQzHmpfChx4kXErfUcsfyRHTrKBASCdy2lgHozh7KioLJyMvXIKgP5cq0GztnGrfE9TJvcLJ1B+tuDiTIN86sRzHWtaxTgPV+iWIp7djksYAZRB8MMwyPi1PKr8EPn+5IsVJjYwmrunF0BnZj63HnkNnz1q4HgErHRg074LaFLUJDmVkPMS9CpTkzsaUsoUIhaqYpCeqfmkpWyKNxo5gX8N6HDz5AttCu26E0/YEOOiZCDjQQZPaACkDQHW4bC61nFVyPgYXTOdsClksi6GVWoTM36BUfgSJRCP2NLyE6pYN8JwD3GlBHAnpUKHv0V0GlBWiJ1OJKYOvwfDi+aJhofMlvOkaaO9ch7WHlsLvvameXYooJalQ0knwwTPJ4GoBhg38MDyTPkdTAWm84vBiG7Fs73JYzuvcnSLPk/5Rn+f1wKH2TGMYziq5CMMGXa3km/u5fjUColuUNhpuFU1E43Dq6vH7vz6FP774Krwukn5NiyV88tGzKz19nDrWqa0+eSEK9qiUqiKV0QnR70M4MxMzKofi3PFjcPb4KgyuGgonKxue5UMgqIx/+nlL/XlbfwGCkCfVfCFDpIwQXn/gTgEI+vWP2JRPewaBeNQO7PYOfO7bP8XObTQv0199n5aKWRoccUAmmWVaW0JKldcpUkbpgCO5A/UtMbz991K2A0qmWaUIaFrSKtROhkldiF5dF1IKlKKsxZwrMzsTG35/O6xyKt+dnhdzBZwEB3+jox11B49h81uHsHH3AWw6dBQ9nW0wyVuBiFlqfPhvzN9JjRiXraicxznmXhhNwQgFPlUpRdYObfEWRo8ahXu+eAOyRo9kp0zVKpf6cN5+00s3p+feT+ennBEAIQUOZHGY9lGs3Hs77MSbiDsR+Pl0LcGNyIQkMGKjFBNLL8OIgZcAJjlosZ8YYvF6rNj1cwS8V7jlzmf4xU+cRIpVfYzIjePKb8aIohlqEychHReRyB5sPPIkErEXWWfAMj0kSMmL3R6p15jS/t0cBAqy52D20HMB3wg5IRMtmf0LUq2GDDq020oyeFJ7UysON23A67WPIGQc5lQ6LXCqvyedAj3KWIRZYpkMjHIypmPOsA/BH6zinwtpUmp9FMBc+yheq34BJzuWc4oeRohPyEQe5LIFAxCt7CXiSPS9xTnzcXb5JbCCE1j6mAAHpd3JV4KJjWwLXYM3T7yAXQ1rkOdvRMyhsYmrPYk+M6GoiFpeNw7b8yPDF4ZnjsWUsgUYVLAALqj9UQKrPjPR3wQsaEDiwLKPsPFSdcuzML1aZZetl4WQgASQUHtmMcrz5uLsodfCMUuUyJWbksdObMPju55GwH1JFBSTG6rSuyAfDS6nFGNYwSxMHHIjPJNKQnqd04UlYNnb8NjuZ+Cz13MLZ6rerSScvQ44XpCB3KgBF2F02Q0AWVj3d4OgQRARj+SfLHJEBjjUAtfQgJ/c+wieeG0bQAY26T3fvGzSdj1dF07eRXoOWBdZqEZLTG2ZQ6L7ISRglyyjqbc7KxPzRlXhc5edh5IhZQgWFcHKzIBxCoZ27/vUjbb6AmSTTCcT6r+zcmQ/hJLo9ug6uXeIFFCTAKGkN/bu73j3d5clgMBmTacSSur9IfwEKCsfCqVxENL651WgdeI24vUn8Ylbb8dRcg1MV/xLj9e9Pl4fNkRinOlUvE5T49rfW+rX+/pkBeh3CBwkVCaBlTqTWb0kS1A+Wiky8h5FYC7kx5bf/QShyuFvcxdNPxjq48Lbry9tPtF8cT0kWlsRb2tHY81x3LfiJSzfvRfo6kYgQVLlIgktOU1FkibytCpT6YvUUEw3vWtnzDRcldwF9CQjISzH78eA4mL86ZbrUDx7BmdwLCrLJcmyCmj8EyD0a6r14016aqgKq30YT7z5Q5juwbR2QnoAlNqndjJaiEMxsewaDCs6D46Rp+TFo+jo3ot1B38J0yVkrmvv0k7IhzOqbRtDcfHoryEjg1Sv6POIuBhncuPaI8/As3eoIKSyBURGcSlQEyEwioLsKzBtyKUIBoaqtjh9Kj0V+ifCHKWkqU+eZmw7Gjt3YUv1X+E5u+Ey8ZF+n8onlEGQbAbXxcgtkWBJYAamDb4YBTlTJW2ttPiF1Z+A5zRiZ+3TqG19EY7bxN4DZKNMXR+yLATTC7Y32Fkt4eUgO2MagwOyPKbsiFDApAwi9fAo4vEa7K1/Hoea1yOIIwyGJED35mPIONKG5bCNM5ktGf7JmFa2EAPzaBGRt0V/25wS6O7ejjUHH4XpbGX3zSDbcNP49FVky0ZWeCoWjvocPEu4KKweyd9lwLD3YeX+FbCjy9VcSrVRUlsiXS8BRwc5GJB9DmZVfh6eSeWb1Isq35a9Fyv2PQk7tpI7GcRHQgs++Tj7QXuqg2IMzl+EqRWfhkPlpfcUsFieTnaXNBlcsqJNdEeQaOvC0mfW4A9PP4eO7k5YDtXliYtBYEdY4zKBNCBQBEVddtCZh/RDDf9KH3VGVYplSzDTgC8URlVJMc6ZPBEXzZyEypFD4YbCMEkMhnUVDC6FMUeX/AVUBkrmXcpqWDbQVLmDyzJ0v/0ACH0PyLFwCFv/fBd8pSX9B2H92In6voWW2vFNW3HZ1/8LgYStgl/auTAZSLXaJ1jIKEVSFDGhpDo27WI9PYhWn8C13/05mmprWG48GUvS9SfkYaayVbrOoi9SP7v3NMf+jkH4m7/y9j2PpzADT8mcOgE/7vn653DOwtkgoiUz/GmOsBeFukeFj9mTRREC+YBlkSqhCy8W53nidXejrqYOj760GVu37cKBuka4sRirXKaEktQcS5/buuMgOb7pZES5Qfa5SAqNity62pCZ4EtqiiSrfOHks/D5j1yMIeOr4GVmS/uxJkumP7L39bn07zmfERkEnk8iKCs1IfsQnnjz+zDcI2kiQVpxT4hohjkck8qvxeCCeXCMXCn9uN1o7XoTLx/+LdeKU4Q0rUtAy40MP4Zh8dj/YP6BENskGLa0rcLG6hUw3b0qCEoAIGe+TCuBqBPgbMXkwTdjcCFJ89I1CRP+1C+aYNJOKDnjCCKRt7D20JNwE9sBUNCT7gjKYFBQDRg9nPkgNUIyP3LNcZhafhUGF86BTSdwsS+RTIvhwLFbcKRpNXbUrYXlHVFdA2JRSkFSWkTVuJpk4ERXFEJmaDKmll+G/OwxSHjZ8Jn0TvlszTlIxI9hX/1z2NO0CQHUEQWPU/Ip8RACEwRSqNOjEwk3AL8VkD/94zC5/DKU5k1ivoHr9V84hFOZTi3eqnsB+xufYP6AgCcaRwIo9L0xcZIkt03/BCwY+RWEQiOUwRTdO503DZjOUWw48hxaOx5VoCZNeMrz8x2T+JLthpERno4LR38FnkmaGukvB6a9H6sPPIVIZLkCfPpkSNfEFVcGsC7yUJxzEWZV3qzcJ/u3UNVOpNoNNECQQM+ziHTw4y6sSA9efXkT7ly2GkePHgNIGtZzEOcNmTZeSZkqxNzLUChNrTi93J1ysqVfUx2gbOSZjFoGXK58GbAysnHuiAp8eMFMjJwwFuHCPIRzs/m90r1nMK+DXQR5Fmo2tzYY0z9Xd9zPDELfU10sHMTrf74b1j8YINDcPv7aVlz+jf9GwKYDiqSck8DvbwEEJZSUBAgqcLqxBLoOHMZHvvMzNNXXs03yKV/J4KkyMMyw71MSSB3j04+t6uP6lhN09JIdN/U61cGmn/O2r6iTukcRLFPNzKEA7v7yZzFz4WwY4bAK5CSLoImvKfI/GUdxi6Qlpkzsj2A76GhsxpG9+7F01St4dtdemPEeFpYyKYXCz0PB41OMpZBzU/+h1xAmb1NxDKiDijG26m6gbgUqlwb8yCvIw7WzpuMTl5+PYOkgOCxnHuSJb/qUXTwDjHTp536O4/v0tjMEIKSSPXyaTxzAU28RQDjWR2xHSCbUymJaozBl8EdRmj8LrpHDE8R1u9DQ/ga2HL0PhkfZB5oYkgWQFjhK41NRbCQuHfdtwF+p0tsURLtxvGkZttQ+Bx9I+4BemqFOhC6XT+WmbzzOG/FpZGRMVzV0qQHKlpE+O3Xdn6a75C6c2F5sqVmJ5s5VsN1udiskq2OTU98EJDL5JEYllYQXht8aiHEll2F48VzYRimn/iUjIN9JMsCHm9bi9ePPI4ADsIwIoo6f639+y4btUuCi7yBAQe2SFGTzYPknYvbQxSjIngTbyJUqOgsyCYGRSaF2HXtC7GlYiZB5iHkQFts6a56ElApYblW5wBFgibl5KMycjMnli5GfNR4wc9XpSQSW+vsyvE6cbH8dGw//EnBJqEqBLLlzNV6kSUBheSTOG/k15GWN5a4SbbPMz8Q5ge3Hn0dN8x9Vmyr9vuIXsOqldpn0wfOdjSsm/Ds8M51MJSDPtA/ixcNPo6v7GTgu8Tfoc3T9V7gXAhBC3DK5YNQXeV6+91fKK0HFIpAULKXVLW3PG4+is/Y4XnjxFfzu+VdwoqkZATvB5Cm+WgJsqmyggYJM0rT5qVjZPJq8CeogpMiA3NkmPyNSnWaZUDeD7bNYSra8sAAXThyDj1wwE7mjKuEGw+jy/CgIaQK3ENh0dwGvD+mjVKCZgkB/vRjUSKopRH4HlEGwykr/oRkEut5jr2zGVd/8MYsDJQ/t+sH2AgjiaSEZhOtxLgMExctJqngZfBpuems/rvzuTxFvbknO6L81V3QZohfI0wqG/V9W/Z+O71jq6PMRaRkAaREUjgInAUhjhHaeYAD3fuvLOGvu2TBCQX7mJEEtmjBq11TJS5t6FLmEacJta0f93gN4fN0mPL/3IOrq6xkoE6+AXSdVuyF/VS+9CZWRTtqjqz0jiYNS2YPkY1REUaGfm7x+OJ8b8COelYnrpk3E9Zech4FDBsOfl8M22+S1wJ1vJCjlU9kQLRuiuzvew57X/4dz+t55RgEEEe+xEYnsw+q9BBBE3lin2ehU6PLmbMK0xmP60Oskfc2sczoad+JE22Zsrf4DDE/8G1Jyv8KEl/atkbhs/Pfg+ipUGxeREzpxpGEpdtatggXSI6DvTQGEuGOy62M4NAPnj7gGVmACB96Ufl/6Q6OZqH9XwIFrN2BX3XM40LgaPtRymw2lqcVkSE7uup5IQS/mlqKq+HycVX4RbKMcliklCskIECmxFQ3t27Hl2ONw7Z0A+zZIeYA6Iuh9zF8gcED6Ay5lSmwEApNxzpDFyMuaxv4KovgoZkaSPXAQi9WitnUzdtevQtw+hIDRBpuzGsTD0K2GND5SMqDrDlpA3M1FRogUDhcjP/ts5hz07vTp307G/Ag3gq7unXjxwM/guSfUd9MIdKtnI74QpD3gGINxbtW/Iz97IndtsJy05mc4jdhVtwaHm37PBmBJUqHmPiQT8ySZOhlXTvxeH4Ag3QymcwgbjyxHW+czsKmcoMSbUicxrtCKRkLgQlwy7t/g/V0AgUMyjysZvrB/hyckXfYIUYHedONwu7rQfqQWy17cihff2oO9NcfhxaKwbCqZqfbHXgfF3twAFnnpdTRPnTgZcFMWhueaAAitdCGwSjbZhN+PQYMG4fp5Z2P+OdMweHQFEqEMBJVRlNyIVvBSBFkFEsQ57z0CBLXX/18BBDrBHt64Gdd953YYtptMQyeHNXk4VeJnGiB89nqce/WpAQLiBBAO4Mrv/BSJkyflM9MDySlO5QLi+gaGNLntXomFPlLNPGb9+Nmp3tOfWMRj0LsUImtTJMLjGRl47o7vo2i0SEOzvwMZHKmjvBBQ5YuoO4GAwcFdB7BiwxY8vXU72traxMiKxJs4QhjwCTdbshFKOtlJc8XlW0528uglpQYw3Vuq17YtBkukRGqEwhg+oBhzx4/GtfPPRn7lEJi5uaS+ggBxcNRz5z9obcgpS26DgYnyOfknQOjPDHrn9/Q+dUtbW1vXbrx08AcwuOc8lR6igGq7Uqc3rQmYUXE9BuVN41Qup9TdDtS1bcaW6gfeBhCI7csBWGUQLhv/XQYImjxO+gEH6pZiT+NqGF51rxQcTfIAB8AihEPTMH/4FQiExqWx9vu2V6WbApEbZAfqWomU+Aw8dzc8ruMnlOqhbLYk2kNpdFYxM4pRnDUNkwZfgVBoJIsZsaIit2xSiIuis2sbXji8Cn53Kxy3UQV3YjY7kuoFfR61Z1LQ8kAW1FmBcgwvXoTKAVQeobIMrRQ5FZEPBWdb7AYcalqHDcfWIN+3H6ZB1yrS0nQyp84Q+XcibErLIF0XpejDwamYPfRihDNnwSMbah4WCvaUuVHiR/1aMNR/3Im2ztex5sA98ONkirzJZRlRVtSFKdMchPOqvonszLOUcJQy26KsiNOEXXUv4HDTfQogaJErUWT0GTQ24l7pmmfhiok/gEtkRwXHVM6fAcKrR5ejpYMAAvFGmPKUzGbQeJBWBndY+y7EZRO+DvzdAEHGTQCtwcp7rEOgbGfp3ymLRsCBA0csinhTM+rePIhfPb0Wqw8fhpmIwbSJEEutv7L7itiLIf/ODz2dpd6bwc35NpUuZSDBHAdmDbAeAdeWFXGQ2iE9vw+5gwbiP69ciFkLZsPMLwKIn8BqMragG2J6c41LHac5jdw/kqLcQGofiYeD2PInySCkCvj/u73oVL8d6+7B7nWv4l9/dDfXuaX81lvFL0n9UFwOziB89gacd/ViIeXxwMlYsxZLLIbuA8dw7a0/xck66mDSGRV1Bb0z4ml7YC8UID9PBufTf+/9/sRe16uT/aIIGrMsVAwoxuO//k92GTUtHwNfIliKcJ0KrHRrPVHY9fW4+6EV+Mtrm4H2DvgSYgxlk6W9colkuXH1e3KNqfLVqUnBfb0t0p6fAk9EPqTMmOsP4Nxhw/Cvi2ZjxNnjECwqZH0DPkCpjAhDH0WEZJIvJaX5gKVeKZzdp5TT7xH9P3vjBz6DkKwdJYfEhpXYhyff+j5c57hMIj6xSBCLOQkWDXKN8Tin4noMzJsOFzliHuR1oan9Dbx65H4YHrWW8hJ0AAAgAElEQVTI0SzSNXP9BRZsowpXTrgVjjU8JYXrdaK2aTleP74SprcvzWVQTuyssmXkIiMwBnOGX4dQxhSlnyAqZsmTPfMZKDugum29DjS1b8O2mmWIJt6CgQ6u01Iq3wW5QlIwozIDERmDcLwMJg9OG3wpsjMmcJcFfz53RBBfIY6O7n3YcWIlTnaug98gQqD2BkjfRUkVj4JglLMPsKZiQslCVBROBawS/n7p56frtBjVu049qptWYk/jeoBNrigIioqjXohE5vSbMTietHPSk/GQi5zQSEwpX4y8nJksEKR7i1PLRnKI/WX1e3Y9dte/iEOND8FxWzhTIGUG0UDQmSFqUYQ5BAtGfo3HiwSmyHdDWjwdGE4dNh97Hg2tD6rsgwYIAkbpKUizGIkHTcYVE77zdoBAY+8cxPMHqcSwgoEAATHJRuhME40TEQaBrPACnD/6azDM91piSOZA0zaIPrnetGADEtjhYC+neScahRHtQX31cax5bQe2bN+NDUdrYMSiLMZDc0ir1bNRDd23IpOJTLNiPOi0T6+NrveelaqzioMed5f7TJjhMD48expuunYJsoYMhhkOwe2JEYsLvrAimGrXQn2S6w9JMTm15aIoCG/+4y9glpclpc41c/207q7RKB5+4DHc8efH4HOorVdRLVOJzeTyYAilOiwYIHyYAIKWsRQiKA0tAYSuwzW4/jt3oLGWsqR9nntaVkJrO8g7qIwqpuykMaC7svqFud/ToMhJu/dVnTr7Jx0DaR+usiGUmWRdgOwsfP+aJbj4qktg5tCeocAQzTWXumcoQ+XA6+nBm5u2464Hn8T2YzXwJVx41EHG2cC0a+m1HGRMlXuzFB75AEXjI26N/HbpGpbCor5W7j834FgGfMEwRhcXYM6MKbhw2gQMrqoAMjK4jEalEFaS1BiDt7EUm1GWSvoxNx0t9S9j+p4ezWl+8xkIEKjeux9P7PwBDO8YtwmK0hU9ampZJNY5eQaMwjkVpCg4G67aiA0vglbKPhz6LUx3t5pWwkFIzXgLrlGBxWO+AV9oDLe48SP2utHd9TJeOLwMhvN6L4BApwZyEiQOgGmWYuqQT2Fg/nxuJRTmvkw8rQKQ3DtISMg+iI1HHkNT5xZYIOVBQtaOCNBYlNUIsGujYXTBQB5CwRmYUr6ISye6LVCd/7iGTg6T6488i0hkIywcU6e8DFZDlMBJ96sEkLweNjJKGBMwoWQRKovPAcwBipOgOxbU0nGbcKhhLTbVrkLQOMKdCOK7oDsH5H0MUghaOKTVTkGyGJnhGZg++FLkZI1hFcl0ECCpeJbleUdwoGNeujuqHduL9YeXoa37BQTNDtguaSvQ9ZBcqzZ6IngSRMIYg8vHfhkBktxWXQ5aLthyDmPtoZXo7HpMkUJTJiqUQSDehPBTgggFz8aisd+Aa6b0/QWcurDsfVhzcBk6u5/jMkyS4ZwET8TPoBDhR3H2Asyq+jKPxXt7/Q2AoNOl+gTODn6pk5HUdU3YsTifyqleHm9p53awu558Act2vAW0dcKLx8SIhiiNVLpQnJZkfzuXEqT1tNeRXaeBNXeBsxey2XMeSQWsOEl2BwIYO7wKd3/hYygcXQUzFOaxsZKugymexXvPIKQAwpY//gIoK1OeAWosete03tvwn+LdXk8ESx94FLc/9CT8DolzqYDU970qcFEw6coI4Z6bPoFzr7w4DSCoAz8BuUQCkfpmfPrW21Gz7yD3ZvWKsr1iTDKiiVgRacDQjyyLtRCYb3Oa4xAve7azV0BB1eff5k6oFAwpkNOcok5vOhhR5ws5TBp5efjM3Bm44frF8BcUcz1fbk3dIAEECq7tbdizYQu++IfH0dJQhwAJHxHnhgG35Gx4runr4ewZI4y3OTfS2FCmgVp46TMk06CAg5Jwj9NGE/AhlJOLOVUj8JlFM1Exbgx82VlAMMCOmeKloLk06vmkERDTS3Nvx9Hk6aCAxOl+OP/rGd37Az7wACEtcic3JOpiWPbWD+A5R2GBnBhFMIhr5OwNYMMzhmLakOtQXnAuXDNXgjwS6IkcxvP7/gemSx4EWtlPghu1E3EYN0swY9gtGJAzVfkw0ISLwonvwXP7H4GbeCHl1MfTk5j5BoJmDJ12LoYVLsSksosQCFaxyA4TH7nbgU6iFCRIIiSOWOww3ji+FvXtG2B4x1l+WEh0RJokFj5dM4k/iRFU1BuGqeVXYGjhLHhmkSgJUoqYa2sJljneeWI1GtrXsjujkBCDMI1OTulrdr+kvmmx+tDjjsDEkvNRNWAODMocQEh8bDOtTpCwT+Bw0zq81bAWlnsMNgMLDRBopmvtgTgTKynz4SOQ4+UhGJiMmUMuRn72WYCZwwua9yy+5hT2l03h1DtZ7wVGJ9JO1Le+jM3HlsJ098MmH46koyWVPHTrJm0vYVj+6Vg85mYY/grWb6Csk/4+M/Emlu97Gm78eQV29AIRYyIq63geyWDnoih7BuaMuAWuScJbqaMKtZL67F147sCTiEVXp/EYNB9Dt4ZSniMH5XkLMXXYTYBB0qun45VUyVG1Xtrp0kGvsHeSIJj5Bx6itgu/mwC6utBT34Q39h7CKzv24ekduxHt6IBJxEb2BZA8nmTpVAo9Tdurl3COrparr6O9NsE8CbVhs0i2gUTAh+lnjcVdt3wcRukg+HNyhLiWjIUq+PSXg5DEK/LFpDXw8v0/Q3DoECHJEi+JwffpjZbE83jkgaX46cNPIagyCHwbRMBPP81KIocjSiQjhD9+6V8wecmCU6g7SlnFbu/E5777M2zfuj1V6TkVQNF1dVVeigV9OHtoBS6aOg6FxYUsYHWab5nr8JmkrqmnmBbk7Lt+PQ+t0SgiiThaOzrR3NqJ9kgcI8uLUZibjaoh5SirKIOZnwfT5+8zZ2Uq2+3tqN2xGzf/8s9oqj0Ok8EBnf4la8tJGTUuvYnger6nnjdv7zQYXMJiqzQhh9P8JkBFZle5+Zg1egTOnzIGEyorUDykFAbNzRC5BQsJnvdOTjuYquUy7Tv6zMPk1SVNN5U1O02GfwR6Ox3bSdpnnKEA4QhW7flPdMcOw2dEGSCwsxihSTPAREWSB55Q+lFUDrgAnkkOfIwT4STqsGL3HTCdzepELSdlZpiz2BL1bRdixMBPY2zJbCWyRCl8G55di41H/oKOrmUqCFAAoO3Oz8I7QYuMhEzAqsLg/JkYO3AGgoEhKjAqoEBpa68d8Xg13qrfiAMnX0LYaGT9BJE6JrU9clCMs+BT0HIRd8NwzQqMGTAbowddAIO9JTihyARCujbqKtjTsAF7G5azuJKcVilzEITrnWTeLf1dMgh03X545igMK5iDMYPmw/IP4cAuqXcJCHQStu0WHG95FbvqnkQkvg9+i3geDvxmRJkZ6RO3DvaSjo96ZSjInIhp5XOQnTkVBrcyUuuluFBKJ4GOBqnI8K4lBs+BG9+NzceWo75jDQwvwUucwJX8rm53ZXYDLCMHg3LPxbSKTwFWqSKd0vdK0I71vIrnDjwBKzkfBFwQiJKODVKEDLJ+QUX+bEwe+mm4ZmEvgOCQQ2hiJ5bvfRyGvToNjJFYFPXGS+6IOTLeAFQWXYBxgz/FQkmn75VWN9XdCMnhTcEZlvFNxJk9T+IttMnZDmVJAJ/rwGnrQPzYcTyxbjNW79qNow1NaO/uhplwEaT/rtUKkxkD3e6Y3Blh6GOZyibIHFUStEy7FXSRCPlw0cyZuPXm65BVPggGXY8mLOpN/z1zEFIA4Ylf/ABDJoySPZpSwUof5PSNOeB1dOJPv38Ev3r8Gdb4l6yaTK9TAQRi05OI02NfvwkjFs7nk2jfTAyXemIx3PZf92D52o3wOdKml3qlMgosuUy1bzLq8vtROXQwfvOFjyNnVBXccAiO6UOATk+nFxcxDHzbR54CiTiU/SSwSn/aCfaYcAjMhDLYhjpiy7wL+EkNNo2+QVosCRude/bia3c9iO379sOMS3u2RpK0+/k9aq5OHuWlpVF3whB4Um25PDvT3kblMs4U+EwEQ2EMGTgA548fjyvmT0X+0BL4igpZ14AzaQbQEbGRG1JCbwwSXBjkp0BaDWkApRf/hL9UoSd+BCKTLhQd3cpxmh/M6ZzcdJk2a/F+0F+9z5CkpLj+wO042b0fPqNLuQlKz6zJbomkwz0AVQOuxtjSxeyUKM+KUkvNWPbWnbDsjQAoKNOLRIiicNwAXAS5nXBg3tWYXXEBXKtczk4U1NCG7ccexrHmR1SNW3QQRItLnYA5YGVzFiI/YyRGFM9Fac4QGCalUcVsqamrGm/WbUR3hMoK9ayjQGlsSsnTJCKfAkLI1BkQMB1E3WJUFMzFlPIlgH8oDCYGal4TTbrjONBIjo8r4PMOiMQxAtz3nmACIAVKOkPSSZ82pAg8oxTl+RdifMn58AeGI+754SeXQ9bgp3sRAt/Rk69iW906WM4OeOji7+XNgbMcWtaYxoHAR5DLI3E3C2W5c3FW2UIEQ+NgkICU2uJkummAIJ8mL13SEL6G3hDlyav2TS/Gro6761Zxe2W2dQgRJweZvm702AQ+6N60WiOpGbrwmeRPcSmGDbgCJss4KwTP7ZcGWtpW4+WjS2G4+xV4SpU8xAE0ygAwgXKMKp6PsWXXAUnAqa6clCqjm/HU3scRwno4bliVaYjfogipJMeMMEtwjxt0IUaUfBQu8Uf+rqWXvmT7fAKNL7c0EDMqbXzZXU42K9d2+BQoVQlFcOSNSyV4XYfFeuzuHtQercVrGzbhoc1v4nhLi8jTujb3mKdRT1IsdcUY1053ZFjDkEBlz7gzgaSAJc8ELzsTP7rhSpx/+UKYuXkpgKAPgLQZxxOIbt2B6d+/Exld3Uy+fFvKne8l+X9IBEO497avYfLsqVzrFqMdEtnpSxh+pwdwqjF+e7I4dvIk7vnNw3jkudUwbWk37UMpTH4B/zaXGMJ4+pufw7Dz5ogYUB+IQCAuYbu4/8578Ydn1rAA0Klf6QJWHpduvnflElxw5QUIlpZyq5+PAq/sFuojUuDi75p6aj3yilXicjyndMY87b/zdxLAU4ZJDHxc6rjx+Lro77GEg4DhwvKTyqja1FQnltvZgfvvexS/eGYVsiJxJiLyIVAYXQpmarAvJYb0bo4kQEt7bASoSNkw4bNQmJmFSyeNw4LzZ6Fy2GAEiwpgBP0wfaTAKnuS5o8Jl0cythYZYNHFsphT6umlDjdKSC592Plt2kelz9r8+x/EP/w3P/AAIcUWl8DBa8ypxZaj9+JY2+sIGCdhu0RQowkbgJ9U+lhquQTDihZgyuCPwLMGqkVLrl6d2HbsfpxoWwPbaeZAR61+HrrherSxk5+Ci3BwMuYOvx6h8ESVXKWWLhsn217ExqOPIYj9SpOAVAlJRVG0BCQgUCAmsEFWyQUI+guQHchH0OdHW7QNHdEmmGiAD91cmpBafbIRWj102tCoYluMnIyZOGfoEoRCo2CYdH0CdvhUih7UnHwBr9c+zel2zmiwJLPulKBrESImBTwqX9goQGneQi4thEKVbDss3b0CEIiQaLiNON6yAdtOvAjPoc8V4yXZaKRkIix1qf1TaSRgBRH3ClGUfQ57N2SGRzMhsXcIo9+nkyi5OBKQobVI40+UOK08qBed3INN8s5eF7qjh7C7YQtOtL8GJDUwJCNC90amVTGXMjr0opMKmaZNwLzKTyMvi+yV6Vpkg5Q9w8O+E49ib/1fGPwJYEzSlXg+SCnFgmGNwKyhl6AwbxE86vBQ5REW+vGiaGp9FpuOPQ3X3seiVsJBUCUrmhdUljGzEcM4TC9fhJLCxQycTvvRjsGs/ti/BT9SgaI3EVj9juYy2DYSkSi89na8+sZuPPvKVry59xDqWls5IOp8AOse6dDIBWEycKJxSKsp65lAa5VIwzQnTROVQ8vx+29/DtljRjNPwrFtZrNzzzuNYjwGZ99BzLn15zDoe7mTJ+3e9CWzHa9cCAXLL11/FT527RKYWdnSeEknbZ9kjv72izZy8v7gdij1doMdAWmu62DI2ZT6enz+v36NN3buhEEyvsrhUsZDjbEiw/E4Gya6szOx8tYvYvCcGarkQRmWpPIU02KJoLf1yZX4zG8eRJhInEQi5RNtb0GpVHuixxK/sydNxM++dTPcwkI4CRuhTGrrVeuJiSOqzJLOqu+j0dI3i6fzib3GTANRdRLmLhZ9Wk96XmjXR3V4YsCg2rvTgZoCrpzdYktmE04shp4De3H9f/4WNcdqlRKi6vhIanTI+NI8k/KNyYCEg3rqWC9Pm7gPPguZmZmoGjYYi6ZOwiXzJyOjuAhGOJM5EdxW1cvQKx1MvfO6Su0mp5pXfUClbuF91zn4D4/9/fqCMwQgpG0+tGbdBrxZ+ygOnKRaewMHF2Hxm/DTiZvcNI0cFGTNwrwRN8G1yhSupUnciabW5/BaDZ22d3GAJkldkcelxU/ZBPpzIOZX3ozcnNlKBCbIJ2svcQgvkfJe51Mw0Qy/GWBugYAD3s6Sp1gRLRKiHOj0SLQaNjFy4SdCo0GeAGT0RL4K9HsUzOUEQieugGnD9c3DnIrLkZ05DglkI8AbEB1ESHO8Ew1tL2NL7VrE4zvhNzoZmFCAkjKCTvuLUyXdadQbgAHZczF32AIYVgVzLESoJrXxGG4Lqk++hNdPbOCA5zdaFDij99HnysKRQySNl6gEOt5ADMhdiLPLL0QoWCE+Fko+WcZCv0Tamfws/GYChtsDz22H6bUoO2t93XTaiKM10oojrSdQ23EYnnsYpkdjSICFBKTEQtXxaByppdJiR07SZHBQiOEF52DSkBtgWOTqR1VH2SQpzUmgY9PRP+FE6yNpttc6K0JzSohIBJjgm4zzKj+C3Kyz2YEzdSdUM45g74mH2H6c5iNnPJPmVGrMOIMQQsKciotGLEFm1nyW4X4v4lD9WtGn+U0aoCeonSyegNnVhbaGZuzfewh3Pfsi3qypQSgag5GgRK9APSr50WZLkt1M0OV/1EbJgUmf/ijf56EzKws/ue4KLLn+CsDn5yAqBzTFQo/F4B6pxoXfvB1dDY3KGO3tm3F65onS7ZcvmItbb7kByC9IZXr7m0FwhWyrT7+6j5/ukr7HT+Ro14N9+Agu/o+fo/3ECViOrQAC+Vio4nj66ZV+1wRiOdl4+b//HVmTJwpUVWQ6yeDQfHORiCeQ2L8XC753D5yGJvg4CKYFWnX72piLlf1MC2ZhPpbf9lUUThorLZfpLXbaFVIiZh9ScP8zC3LNWrg7zc5Zf4QCb/p9IoaVmgeawCtnHKrFa/9EDyQbzntLTw82PbkSn33gUWT2RNnjgQrALMmlygjSlivpepGfB4Keizi7+nqwucXQZC2OjKwsXHrWaFx/0VwMGj6U3Um9QAAGOV5SqeCfr1OOwAceIOiprCECBzKvDYcaX8CO40vhuTUs/EOtazRdAqaBCJGvCPj7JmPJ2G8AJHikk9xeD9z4m3h231KY9lpO75M8LwUs0gRIuC4ClILyghhWfD0mlS1iQiABB4uCndeNxvat2Fz9IAdPCdaiL6B2Qv6TJiwT8rjsISdumcuphB9riHP9XKcm0083AXjWeEwuuxiDC2YlbaGTqnNeB5o7tmPTsaeQiO9SwVJAh6LvqAcu/fhE4nNQiuyMOThnyHyEQyOZJKeJiLoNE24jGtu3YfuJVeiJ7UbQ6ESCteD1qZ4CMwEO6oRQ7aUkAGQMRHZ4JqYPuQjZGaPZMEpAhJgeaXVCtaLl54giFj+GmtZdONFxDE2RxjQ1Q/olyjJQHb8NhncS8NpVNkTZanMHhfhUsAgRB2E6BQjR0/RNwbTBSzAgb7Yy3Urrh/ZiMBP7sOrAo+iJrIFFz485GromTJsgaUSQRZGNYHA+zh9xI4LBCr63VDASoLbx0H1o7lgJ0+jhbIbu5pBZKZsegRLTPw+Xjb4S8E+Ba4g/xQf5RVs7n5Rd4seo8hIFh2gEdnML9u85hLXbd2Hdm/tQ3dAALxpHwCZZcJflcEk9L2k2RL+nUrIUDCWj7MH1+3He7On46b9/Bh71lAck3czpYnpPwoZTdwJXfvNnaDpCGiRJVlzvoVNRiL7DtXyYOLoSv/r2LQgMKRfoonQG+jXe5B6qa9t045Qqp4MDEdPU+qY5cGzdq7jsx79EqKsbpgIIrIbQCyCoyEngnjInRUXY+NNvw181XCUAFMdAtUOzABbl2Zqa8INf3I+VG19jcSu9BFWCRvYTdZmSgDBgBwO49foP4UMfvRxeIMhMfXEZ7jvPUv+eksfq31xMZXV1ZSmZwklmW6S8IOBH2gApiMv7BCDQuhHp7SShlsZXCR5R58JN37gd2w8c4IxSgAiL4kClOBduUreDP0IBUcdnwvP7kZWbg7FlgzCxYjBGlZVg8phK5JQOhJWXA4+Mk0S5SCUM+lt26tfM+f/qTWcEQEiBBJWG9yJobN+Olw/fC7j7ELLAAIGCDlkLk8Oiz4whjlFYOPIbyMkaxylwwcwJzkCsO/hntHc9oU57xFugDIGNhEu9tcQH8OBaszF/2OXIzpomwY4DLa3c49hWuwLVLetYzZGkjyVLoIx+PMkmkJIiAQs6NhAPgJXuVN3eJWIbdTOYpJBIAU9S77LCQnBQjvGlV6KyeDYMi7T/iZuQgI/8EtwexGK78erRpxGLvYao3cafQylxdmfkbIaux0s/vu1lICs8A/OHXQp/cCR5rKqsgtQSWSfCbWPws+34KnTHdsKHesTdIDJ9YcRd+jwKyFoEiUoo4r1gowglOXMxuXwRwqHRSoyo72bTO9VG7ag+9zjePPESdjeSFDT5RGibZJ2aN5XaI5FQqYVMqaKxeBONN6XoCTRIeYm7OqijwMxEj5ONyqJLMG3IFXC5xCSZAbL2puwNgY2GFsokrQKc3fx8KMuTAjJ0/XFpW4MPhTmLMWv4v8Ak/gGLRqmXl4Bt1+Olg79FV88Lwphnx059nNL3TS6jUeRmLcaCER+F6xvGpQsRUOnfxvz+7Dwe4jYJgRlcO7bjCfj9fgbSIb+JeDQCIxqH0RPF9nWv4scrN+DoiVp4PTRPyO0zaRGVzLgn+160kJJhoWJEBf70wy8hWFICBFNpcV7xZEbV2orPf+9O7HpjBzsA0kv3t/Pf+eCQYqS5lon83Dz84QdfRunk8YDlTyNAvvt4688S7gJ9AauLqVM8FQFEOXLZfY/gtj8/hnCC5qektzVA4E4Giuta5ZACoGWioqoKf/7hV+EvHajMOekgoVvyTETjNoIBP7xIBK+tXo8v33U/vAhxYZI6vUnlQy2DrevvVOKoHDEM93/n8/ANLuNsDLWPmlwq0XNNEflkY0179W8ucg5Ir0V+QMpnQGcWdH5fAwRi+amygxxw6GmpLCGtL80eVPwY03HQXl2N+TfdCh87k1K2xpXuLsUl4ftO63um9s6EaSBQXIRPThqD65bMR/bwYXBDIVihoCinkmAXcSA8yB6gOiF4bP75OuUInJkAATY6I0fw4v574NlvqJY6CYiSrJJ+f+5kKPtXVBbPYkfHlDBGBLuPL8XBhodhGRRgKIBa8KsMXtQhx0H6WT4qiy9iV0iXA4Nwdz03jkT8CNec27o3wnUbFbGPi5ZJwR+WyDdEbEdnF2j7ICKkUJOIvEV6AbTwxYIUyOAWzdL8czGl7ALAV6baJKnOTr+VQDSyB5uPPYvW7o2A1wWfScCG5Iw9Tq8L8UkL39I1FSAUmooppfORnz0JhkkqiTqtp8mbrahv24wdJ55HJEY6DwRo6DRMwIo4Crpsod0aSemRSJBZKM45j9s6szLGcfBkApHqWOhDSk+evD0vgpPtr2HTsRVwEi+z14XBWQcK/DI2EqBpb6Hvp84OGrsI215T+6IEdAItJK+dBc+jDosI/FYG4J+JBcMvRWbmNOEQ8EZIm7iSJE6cwMuHH0Rz1yvwGaQ/QS8K/KLEyV0eLJQUh2uUY2jRlZg0+MPK1VJTLum5xdDVswuvHnkA3bEtiqoqQCZFmJSQSIZfg/Kvw9lDiehYpAih/ReHen/2MPLdcHhOaaIf/TufSOl/lgWP2OkJB260Gz1NJ7H1tR24/fFVaD7ZxAFSXPQ0oJLHK10yKoJ6BsLFRXjyts8jf9w4lrHV7+D30SSKx/CTn/4GT6xcx2UMXTMQkKCYJWkAgU/7gSDuvuUTOPuCOfDl5DKDnjsl+lFm4BKR+lzdJ+gpiWqT0pOuh47GJvz0rvuxev1mgEoSlNJmUSh12O8DELjI5vPjyvPn4htfuRG+/BxRiqSeeuX/IVwhSbXTCDXv2oMbfngXWuobueW01yu9fMGMfflBIhzCx8+bh5s//1EE8pQiKk/IlPmRlEyEmJo80TMXqx+naRpnzqgoJ84kQ9/heSBCpj4RQuIFl8IhwrWQRchLRJFneb+gzA8bLCVw8PUd+NA3f4IgeStofgO/VwBJMqGp/pqwLJQVFuOHn7kK42dNZZBJLqO8z3GZUOaMuJoazHXhjgKmmfyzxPBOe8sZAxAE7KYWiOE0YMWeXyMe2wDP61L2urrFTdc7s5GZcTEWjrgcLtXb+UPEW6C5/SVsql6KWPxNdipMkfpogVCQoPqwDdci6eSPIieTVAvphK5IbG4nIrFD2FzzIlq6tsLyyA+ADI+EgyDJbDphi+wu6RhwCyUHKyI7yRmEMgzsX+D1wDAykUAFBuVOwzlDLgF8ZDSjT1M2kyJJkOf12udxom0dTJxUhERVwqCWOvp2KxNdCSDb14EeJw85GdMxtXwJCrLHc6qdrsUgdTJOe5NueTtzGcjUybb3MOhIBWntY05ZCR9MMwu22wkLEcRRieLsmZhWvhDhMJUshOApv5t+NEntZDo173oRvHFsKepbl3EWJuGRqJQu0/DOof6RJy8v+RkboHhU45a0N42hj4WgRMrY8J2F6UOuRYtFtgMAACAASURBVHHOVFhWriq5kN8EKRzSfpXgMsorR/4Ey93B4lo+UpPk76GTL31PQFpXzQ50YzYurLoaOVlzpRNEdXlwaHe70di2Fq9UL4PFCpseEi59ngYc9JlCvnQ8PyoH3IgJ5dfwXFIsuL7HuPcHB7zDtyZr5GrtcLZDPxp1qjZIAUft+67tItHcjJdXb8AX738YoRjN7VP4PnAGQJetgERWJtZ85wsomjaJSWNMVPT5pIjF0tHAX+99GHf86THQCTMlTSwBlQF3UhhHhpb62keMqMS93/4cwhVDpHuD6s6kpc96Kepge4p751MyBWTu/5TTN7ksMi/CZyIRi6Pt9W244ee/R2cTlb90R4Ge6yJdLUFblQxovgRCeOy7X0DZnHMYXDFMJ60CFZdlfD3mUVELn3eyGf/9ywexbMOr8MUSMs4UFFXFIbXM5Pd4vAwTGQX5+PnN12LKubPhBcJ8eT7qXOFDDpEp6U8N+tTeqhxO320CEqhx6RkwsBEA6doJuNEIot1ReAb5EfgQzsnkjAmNt0kpfSaXituurCFVWvE8EK6wEwkEQ0EgFsWLqzfgKz/7DfzxON8vTTGeggQ49faS3FYMOOEg/vjJqzGGtCWys+Bj2W6XNN7lF1nLnbgt6p7pZ2Ju0y/A+G5j8v/rfz9DAQJBwg7sPv4I9jethOGReZLWvRdtAn2S9/sn4NwRNyKcMZU3Yh1q3MQhbD62Eo3tT/HJTmrGvdPCJFJE7ZKF2dNxztArYZsV8FOqUtlOw42gI1KNwydfQU3ry0g4DfAbzZxqJEtjKnfwkiWdBtbFEA0AOU7RlVDwFRIbpfJ9vjEYXjQLowfMgM8/hEsPJJJEc5w9E+zj2F67Asdaybq5hssVxLKXxaYJjpRpoOlKnR1Z8PsnY2LpxSjLJ9GnwrR5LBwJC+2ob92M7cefQk9sP3ympNWF0a9OHfxbcqIRSWNioQ/BoNzzMbF0PsJcl+/d06/T5ql6pb5nFRS8KDYe/B1aOpaq9kn6fQII+jnwqu4TPKX0INkEWvNC8KQMAVu0GKTtMBpjBy3ByAHz4JjFSnRKpK0FvJC8ciNer1mG2pZV8Lx6lVnS46c7SmQOEcALhj+Mcys/BMM/Qp16aWTUKdZtxs6aP6O6ZT13prDFNu9JmtNA9ytqnQ7KMG3IJ1FWdImy5NaWUe+e8n6/NqDk80vvhlbZJ00+TAY3KkFQDZlq4TVHseiLP0JXy0mw3G4SNKZAgZz+pSMhlhHGmq/fhAHzzuEMAqtYUnsiHQscyWC89vTz+PTdv0dWJCJ1aOJHqKxesmsgiSXlc3sywvivj1yGJddeCjeUIe11SlyIQ/ffAAksVU1lAwpudE8JUod00WMDgeZ6/PBnf8SKbW8gEJc1yJ+rTvH6MCK4VkAC3UM4Nw9Lb/8WCsZWSaSj7+C2OfWEaY+gDI0K9G4khsa3duHq79+JWHsXLLpv0vzwUoZAet+i7ycAQ14ECb+FkooKPHDLx5A5bhxCWWHEHTJqo3Gha5HdUKf8+9Qa/uZ0k24DAlAOQKCgphYr1m7Bmt37Ud/azvtcOBhAZckgfOnDF6GgahgSnFEIMNHQRxmY5LCIaZHneOxKSv/NiEaxZvka/Ns99zNA4CtVLbi8ryglYw286LOyigrx6LdvRv6EcTCCIVjknqj8ShS0SJY55Nmknz8+uOvv/Vr3+nvPSIDAk9rrYenjNYeeBJzX00h0tBnrfn86MQ7ElCGfQXkhGRBlqtQ3HTs7UN++BZurH4LnHIHB/e56IxNjIjotuq4PpkWaCh/C2EHnwTULFLGPRG8oJxCHHa9GfcdO7Gveh67IHlioZbKdiKYoIxuVrmRZ3mR/AaHpMByjBIUZo1BVNBmleRMRN8qYEMmug8ytIN5EHfbUb8CBpnUsE+14EQQsMmlKnVCpPEHZD9frhGnkwbPOwqTSBRhaeA5co5BZ/Lolh3kHbgsaO3Zi+/Hn0BPbgqAZQcKlEgJtaNQhICJIAmII7BARkCRxh6Ewaw6mlC9AKFgJh9Ua9ZrTRMD0DgreDnqBE2rhfOXwfWhsexKe1yFulEqAJO2ImgRS6el60YwQiW1Z69RF4YNrjsL4QQsxrGgeTN9A7mTQGQupehow3XbUtW3D9tq/craEulf8qjUttWvoLAipQuZi1KCPYfSghXCMfAXyaK8REqObOIbV+34F194O1+tmvQnSsRDSqian0t8DiBrTsKjqGmRnzRTIlfTk+CBvUFKv1vBOp6UlzZt23RRIXdLAkBSuV1+DxZ/9PtpamtN0C975PiMEEL5BAGEmM8v5dKrq1lR/pg29fc8BXHbbnYjXneCToRy6lSpmrw1fRx/R0h9SMQS//tLHkTeyCv6cXCG69WfIeX4Jr4AhoQdEu3tg9XRj0/pN+LdfPwBEqQsnTdK3F5BSX6IAguv3YcyoKtx725dhDhrIBwhQK2dSYlpOupyYYe8YOp27QHs7br/rfjyx4TUYcYdlgnnmJ+9Z1gG1QRIGJhBDgDjuszBh7CjcfvN1yK0chkA4SAwsBIjIp9oBU/l/Tfx894FhD5d4HG5zK7Zv2Y47lq3G3qM1CMTinO1hjRRuyvJjeMUQfOWqi3D2zMlws3PhC1J5VVstKs4DJ3/SiKfRGNYsfwFf+5/fIxDVJT/hLmiuBd8v6x6IU4qZn4snbv0cA4RAZiZnCrTNRRL89J0jH2juz/sNDRSsOjOEkjQGlAAuqDcBwz6C1fsfRlfP8/CZ1JZGGzshTsom0D8R1jUoy78Gk8uXwPSTfbNS26T3Jo7i5aNPoq3rRQCtadNF6veUeuYMIGkPWGMxvuQyDC+cBI8Fd9KIalxj7YEdP4r6jt043LIPLZET8KGTa+Kkn0AESOIaUJ2cyIuUYTDMTPitgRhVPB4VBVNh+srhmSKeQ/9I2SwOy2vA/oZXsav+OZhePZsKGYgyGVBEjbTgE7XfSc0uirMwvXwhygumI2EUM7mRBXeZSEWpulacaN2CHSdeQDT+BoODiEMZCdpstJ6DDnAS9Om6o95QFm2aXDYfvgBJSaeY+NI9oXq1PXoOdCNUWpFNJ8XFoNWdwKGGJ7G7fjkcp5ZP3lTzT2UN6DqkZCKAj/6hnxH/wEOMu00o25uJHjsA01eJqaVzUF4wFz4/kTp1bT91WqFsQzx2AK9Wr0Rb9/Mw0SYcCwZOWoOB/pR55niUqhyH+cOvRSapQbKdNbXxGdJ54nVyJ8mGQ79FwDgMx6WyDcszMVBIgSK6/2yYwcVYVLUYZmCUnH759PruG/L7u1VwDSeVAODbUotIl6vVzzwCTESKs20c2bQVl952N8I9EakzJ+WW1d0kT/ry725uNlbf9mXkT54Ak/TuudVR7KR57tDpuL0dP737j/jr6hcQIj6Awp2iS9DHkY8DiMw6O+jD8OHD8dsvfhy5VZWwMojno+fkO42u7nuXqMIwnOrjHR2o2fw6bvzdo2iuq0eAAq26jrd/krQ16i6ORMCPT15+MT7/6Y/AyaS1L3VwiWQKZLBlvQjwSBAHnO4o9m1+A1ffcR8yW9tgOZQ50Vms3uNJNsckZBl3Sd4LsEMBFA+vwJ3XLcbwyRPgz89Dj2chTJk0fo7UB6mya7wxvDsHgUoJTn0dHvjrSvxq3WswujqRQURSDuBq79IsKMtEeMAA/OTjH8KM82Yi6g8iIxxkPQRWWFRlDSLA0kCyzHssgR0bt+ATP7wDwR69t/WZMNwyKh0yPIThIO782BWYee0SWNnZiq/VBxHwxpq+3lKlz/d3jX1wv/2MySDIyTepxCF1ZbcD22oeQW3zE/C8HkWko8CkGfzq775ZmFdxGXKyzxHnQtXDb3ptqG15Da/XPATTO5K2oUsWgk54grDJBMpAODAMYwZeiqGFcwDyd+DAosVL6ERLgjhkhtOJnngzTnY3IBJvRHesGQmnE7SBWqYfIV8mwsFSFGYORX64FJaVDc+kVktJc8sUFlKgHT+G/Y2v4WjzKtj2YVhGNxyu1ysRH24DVF0L3KYXgGuOxNiB52PkgDlwjGKWc5XyANVdKQXZjhOtr2Bn3WpEYjtgGVHVR0wnc6nNpkSRxLKZ6vaeWYGSvIswbtB8hELDOKUv9y+blfK0TLZ0pko2b18AdHKP9ryKdYdXwklsYUdGIUvR80k5Ksp1aA0FASzSbeKD3woh6uSiMHMsRg2Yh9K8s1g1k8ZRnalSNqsEPpzj2N+wFgcal8N1TyrXRXqn7pqg69TgiHa6AcjLugCzKxbD8Fequ1RlabaKbsCWmrWoa3kYnkfiVzQCRO5UrGgGPPRrlNYuxOBCaps9D7AGKRa4hoL/iw1CCxoxcSyN5a4/Uu+HyY1R/SC5T6Zndt7hOnQuPvmf06R7JcXF/8UhLwLbhn2yBT/49V/w/KYtoOKyDrE6e5X8mLSvDhUXYvmPv4bsqhEwicFPs5UyO3Q6Z90lMnVIoG7rG7j+e79AV08EPnW/Er5V6lnJmsm/E2nQ5WDqBgKYPX4cvvWZj6JgaCkCBBKU3TQHqr4vLouo+jSd4klmOhrBrlffwDf/8Diaamvgd6ibQb3eNoxyPellFCMrA4/84KsomzAWVjgzqWIpIkNaktdksyaSwXbJ5IgzkAbstnbc/8sH8Ju1LyMctZWkWdqXMuj3YJtkspUigNJ6dywLpSWDcOOic7Ho4nPhy8+DTxkOKZ/1NAGxdwCsVFawbSAWR93+g7j7wSew5q39sHp6+BTPBUg+0SvCqCpKEmnT8fkwrGIobr/poyifehZnEUTtk5aGMmkjqWgqj9Azdxy0HTqMc2/+NkJd1NmUyl8lQTcDQjXGNBqWH5XlQ/Cr796EvPIymBkZwnvgl1oXHEL0mKl4wgDpVF0Mp5CnTs8O8WemT5pTSJ2zmilJ76eVSs8wTHLGAATeZ/mJaCIb1aETaGpdg5erl8Hn7YXrUVqcJrhmpUo7XMIrwojixZg0+Co4yOOWQPm8BGDXYufxZahueQmuW8/SxnHXz9r+Cff/sfceYHZc15ngX1Uvdc4JOZMASIAkwCAGBUoWldM4e+xxkO3RfrPjIHs93tlZ73pmv/F4PLOe8dietWR7bI+tYEkWJUuUKJFiFANIggQBksi5G0Cjc79+qcJ+/zn3vqrXaAANCpBIoN73gSC6q+pVnXvrnv+e85//cDfOXJ8tf3PhZDbjhv63YVXvHQg99ponmbHxozvlGhASoNCBc9ebyG0LW1iVFqWiQaoOlPnPu9LUQhWevw87Tz6Bw+NPIYOD7BxgvsgCoJqQiTNuDWXmFz2mK9Zg+7KPYEnXrXAz3EmzjJJOlc9F91vE8MQTeO7EA4h8kupUPllBlWrJt2ZDzNTIj1B1SIpPlcLlWNH9Tmxf/m64meXmuW1z4MbVMVm2p8DB7tas2yavIkSOkZHRHdhx8iG0OU8qv0D6YdjSOJK4qHGhok/kY6jmgTaCYhnr2p5t2Dp4K9zsMon0xNUZJK/peQJiwimMTj6OR498A03Oi2ae6DMLsJH1mVwQilExTVND6N2Me9d9HK3Nm4ScqVEFq+sQoFR6DU8d/hTmyi8kQIzJmYrdGbEhYZHwahDvvf6TyBW2wzVqmLp0LS6CwJ10dW4OuUJBGNmUSpbdUK0Gyv1G1RKC6TlUZ8vwCiz5NHwX10M2x6iVWaxk16ZO55xmAeatqC+q9bV13mJoN2aWkM5ZQtb91CReeWEP/uChZ7H3zGkUmD+22/zEwigkU74BJBIaxzKwcgX+7H//BPo2bkA2lwU1/FmaKPCTzsQ8rz88jF//93+MJ198BRmfqSUlKapzShDYzD1akiDD73RUuY52/D/vfwfuvO9ueIMDcHMFyaWTyS7cGpkHRrKXbyWddLmMyvAI/u5LD+IvntgBf3pKSi95byLGIwAq3uHy/0STVHbHRlQol8Ev3vsO/Pwv/QiyA/1CX5YWCaZUTwGCiZQYuwtwYJgpYGlehODoUfzC730au197VSIX6jYtt0YrrBg9iHtAKHyRbY7rokiQtGolfvPH3ovlN2+C19UNJ6PN2ZTpXzezGIIOWzfdEfxiEeVDR/F3X/gW/vzZFxHNFaX3RFxamqgsMCuKvFOmGVIlm8XtN27EH/6rX0TzkmXaG8OEXqSSg9UUibbJ0dgY3vozv4HKxLhWehiRs3pnABlfCxD0nSx7Lj5y01b81s98ANGSITR1tiEMqNlRQTBXlnbnUdWXe2b/ES/rCVhxslZXxeg10DNEEbL5vHJWJFJBgFRDjedzvnCMJXpEKMvfBdI7gikjppwITpymJuQ6O+F0tCPMZCSVGRghKI+drt7w0cM3TS8GG562KxN36zopKuVX8MzRf8TE7DdMqN3GQ/XFUWKgg0L+Lbhz1Y+jpXmrkbjVwQVbQM+8iCeO3A83eB5lvyQ1stRVoACTdWk2L86ctOOuxZqebVjXezMK+XUInTbTnVCFgbRTYaL+uwE/2B2rrgJaT2xliHg/nMCTGJ/ZjZdPPY3JuZfgRsMmNaCSyRpu5+lavVHhbpoSys4KXD/wQVzXfw+cTJ8K9og+Au0WwgvP4NTUC3hp+Nsolnch40yZdI0lddJeBAdZtGZJdmSIs4DQWYNlnbfjhsG7UCjweZv0hV6cbzOpBT24ETxUEfinMDr9KvaN7cFk8SAQnRVOghtNAw4dNc/g4s0+Bu0IwQ6Rq7C8Yx2Wd6xBe9NKOBmmfBj+j3cvNqbBklQvmsDZmT149sTDiPxnEQRjBvTZFtha/iiSzWjWaAk6sLT7/bhl+Y/AyVBHQSM7tKXMDUzg6NknsWv4r4GQ4j02HaNpEdXJ0R0meSYt+RvxtvWfgJvdWG+nbRUs5+HLhf9pdOwlf85dMRsDjY/jWw8+ia/veBEHT5/FFHdzwgHQOn3eAZU3WzMZeEK0syFWC9isk4k3aQ0bHOtwFwgysDsi20GLMwwjlAIf5UoVxUoFGZamBdooWtyWycHbXb0Q9hJ1Q4Hj4fZbb8B//b9+BWjrFEDDhVTKz3iuMOYV4ESzs/juNx7Fr/zZ/wRm55CjHSQubTCftZ7YP34HJQLB3S0X+0IB65cPYdvG6/GW5UPYsn45ch0tCPMmIuZHiGo16Wj58sGT2HHwKJ7c8xpOnBlFtVxBE9sQGw0H2kE5x3H0RvCCaZdN78u7aOrtw5/++sexYduNcFubje4SuwGaV9nubOuVHTZWrwCBjt+tVfH0A4/if/305+DQcZp70M2OsjGELJmQnJZ1yyhactUoZzJobW/D9g2rccd1a/G2GzegZ0kf3LZmRB7Tnhk4GUcaK/lTRRRPn8VL+4/jkX378czLr2J4bAL56rzeEDGlwERyYkApFY+iDeIAXe34q9/8BWy87VaghWDerOemvbiMM3/G0tmpSfzGJ38fD732CrIiuW1KMu34JtYemdYmtcI0TndHJ9YsHUBHSx5zlRpm5kqYmStjtlTGnPS1UNvm3Qxasp6QYZONtYTs6bpozmbRls8iMqqgpXIFxZovQICREV1VeWshWBo/x2oOPgsHJoqQKzRh9ZIB/Py9d+Kue9+CkGkldq3keBjS+qLe/R/gQW+KCEKcXkhqkZtqhXAch0e/g5dO/k84EevZG3NWzLlTJ8DHSqzrfTc2L/0IHG/AtAYyoatwHHtPfQt7zzwEL3pNejvQ8aqQDScnUweKYhmd8MQp96O7dQs29t+GntYN8DK9qErlAnPatoTq3JWV90MCkSXPcey5O6gGPgrOJKq1UzgxuRd7Tj+Bam0fmr0xDb05JMzZ69lVZU70G5q8HGbCVdjUfw/WD7wPudwSiRpwp63PwSZVEzg99RxeOPEAytU9KLiTqErbU20Jrfl+7ZHQkqFcNZ+bMqQbsaL7HmweuAuZ3FIpR9S+E4tDB/PHThczjRHQ0WZIm4qK0oRpqrgP46UzGClOolidFCIqIzpBRGW9dvQ0dWJZWxfam9cjl1uOSNpHa5e+en2zAVs2TUJwMD7zIp4+/ij82ouo+qPIuSwX4zNzydQURr0NNSWjye3wtuDuNT+B7rabRcVSx03BHTUn2Cb6iSNfx9jsY8g65IXYNIWOkUp3Q1IhjtOPlT3vwS3LPwx4S02bWiVzLdaOUahCW34Q6e6kUsRDX/k2fvvTfw9/Zgo5CsXYPaU0FlOHoYFyG9xvHDMFyBdZfc4zzJzB9toWGpF/YCMG3EFLnC55fbmWbdGr4lw1RoQyLn7uQ+/Gv/jkz6GGDHKepzs8Uz1gJBzFd3CnVh05hd/8D3+Gp17aDZfOyubybc8DcVgG2tdBkXlOw59gC2qW/ZFdX83nMNjSjJ62dvTkMpgsVTBVKeMwu1iWKxoJCdgPREGfAgCr7WCL/DUVYsmbXki/TvCSRZB38dG7bse/+rVfgNvZoekDuzu3EQRxKub8ZGmFfJmqWVZqVeSnJvHFv70fv/+1RyS8L1EM8xbbqj1FC3YzRb6CK9UDFlAQ1tVY8siSz0IB/Z0d2LqkH+sH+tCcL1BBBsfOjGHn8REcHZ9EOFdElo7Vp7iZphNi4SON3CTTALqxj6OF/F02Aqaa8vibT34cN91zJ5w2I1dOm2prV9VQkCChJxGKZz7/dXzir/8emVJZSj5rNkoTt63Q2R1qHxkms0QJh++JtYm5D5VpNh1/zfrDChi5SzGVomF739LfV55DQzJcJWsGdHrmPlSwS8myOif0YhLJiSIU2NqbLR46uvDXv/ZzuP6u2xCRpMkOqr5WbCx6l/UDAglveICgAxbva9Sl82XkIk+eQIRqeTceOvC38Ks7DfveivrQsbIundOjScoIb1/14xjooJ4+8/gM66sMcegfx67hb+PA6DdQcE9qiaF0N7SVDRwhFRIR9rnsNtuRy6xAd9utWNF1MwZbe+B5XQhFD4BI0S6d8ejKrlK0ErQ5EYV4qOVf88dweOI1HBrbiUplF1xQfCkjaQFWJpAUx2fQ2cxIAl8BhgcZ/l+Gjf3vwLqBDyOX4243zsFLGiWcEa7FnlMPoVTZhZxbRCVQWWZ1bHSWvKaW4ykJj+HTDbi+/524fuAuOJmVqoNgwgavh2AX56AVINQXEcOSl1CdECkJyCoIqJgoraE9eC5LwXifrI3neKr8s96ONruJVQlNJCY8i9PTr+Cl4e+gUnkOfjhhOmbaBY2hRXWl1DxgKoD6DJ63Gsu63oOtyz6AwOnRvKjU2lt5nxpGxr+BJ498EVnnhJAd49SWLhokpmp6Jw8vsxY3Lf9nWNF9q8hbS+pcfMElCC2HWkFi06nB6Bn80r/9E+x8cTfybKjEPiTcqSUK16zan66+C6ww1mGf68XPc0J8DQsO+EZozEJjLPzbZnTp1OrNcBOLuhtqbEUcvudhrrUVX/nVX8Tad98tLXSpI+FKmJb6ADbaYUL17HxamsOh53bh43/4F5g7M6qhbrMrVI0A87D13bQxgAELorgqqSsCS4bldR7xbWQcKhCFPSBjhHnCKIAnziFW/KmDBKXv1kPtJFfyVrhG8Bw+38o1K/Bnv/mL6Ni0SSXTvIzhCURxiiE5PJYEqttTiZyIgBCvWysLQPqjP/8SPvvYk/CqNXXQNj9uyJoS0OCNMAXOskcz39Tfaa8XNZkNq+sUtpwKgiH5dnk3I3hGGIk24nsax+oauRaxx7XYV0M7HJKgox1/+9ufwPW3b4PTVNAKDv6CZZ76ZfE8DXzMHDyMj/3r/4yJ4WGjymm8wTzQyvHWSF18GTtr5LJGyNG+Avo1yskyxqtb30YS5H0376dlQGlMrjHaplGbRpgv6QgjT08FnCCXx8abtuCvfuuX4fX3yFqS5U3lWa1zcVLoDwgbKNx5o1cxnENsMqudLMCyo+eqOIo9Iw/jwJnPqGa/DCNfiYpW7ktXPg/VqANLOu7AXat/EpHwB3g+1b40V10q78fzx7+JidlvwsWMWTZZyWBq84VvUJANSzWoiKKf5+Sk5XDG60VX0yoMdVyP3pbVaMoPopAlkZFlg8kdN6cpQ8QllKqjKFWO4vTMXpycOoBidQQZZxJRxPsWwVZdqNhRUO7GVmfQCIZ17wxgqPO9uGXZvXCzK5ToKC+1QbfRJE5P7RD5ZBIS2dCJu26Rlhb5YhsuVHIglxJGOFx3NVZ034vNg3fD43WtQqLJeuoe6vVJlC40pmIVCdvpi2lXinp+2SzEdORG2r0ew+Bc4HF08NLBERUE/hkcG38Br515TCIxfjiOvPyeUaGKAZh8Zk3X0AnQztWwHT1t9+KOlR9FlukjUIJbw4Y2MO6Gw3jq8BdwaurrMk4qEc0nsPbg8eYnThuaC7fjrrXs47BCFg4BEMaelxJBELY2Y2Rkdh86iDt++z8iNxZX36hShXFYtiTMllPWrRWvriylW/yncVUm+U/ZHcap2LSa3KOVNDNV9iZQZ4GKxmGU8e5nM3jnbdvwH37t5+EtGVKlisBHLpeVbo4ZG0WghY0ugeyAJ6bx+c99HX/81W+CbYGVkU8dAgWMurqpNoGs4SbNUQ9rE2iYR7L8HzvrZMmWhm06w8UdGtvbHafOBsvBMVY0ZEper0aA4GbgdXXiD//5T+Hmd9yJTFOz4Ybo88u7zWqF2D0Zx6sGE/6BAQhlRkrIEfBceGEVc8dP4N/9yWfw4M5dyFZq8Niim1ym+REbU4SibBs7O9QZy7/qPBJLkrQ8vjhNapk6ugLZYnA7qNY76oRXXQvj9ASsabvnWiGPd267Bf/mX/5TtC0ZUnKicA9MJUW9msMQCT0CwSJ+7/c+hc8//BgyPqXpWdWSmLF1Eqhu3cjrUEykBxGgMsVsQY8Fr/F208rM2yhIjItj5lRcfmmtZxNXWq6p75uBJgbA6+aL8yZLgimPWTKIb/zrX0XXxnWImMIRCezFRxAX/55e3iPf8AAh+bhxmVzsQPT3PsLqATzw2p8i8ndKNzldumyLYhtO5i60D5uG/gnW/PtsDgAAIABJREFU9N0DxxvSenVK6lJfP6qgVN6HHcfux+jMs8g6BBs2JcBQvWqmx50JNaJgGsBKZ8HQ6UTG7YTnMbrQho58G9rzrcgIMc3BbHUWs9UZzFSnUPVnEIWTiMIxOLDpEYIA1WHg/ahAEQk97DipyzGnJImW5bAf/R3vwe3L70E2t1oiAbJwmRSHF03i6NiT2rLZf5XCrQZY8Dv0tS+4NRSDPLJuBrWghkLGQylciw3978QNQ28FvCVwZOduIykx4l0Mwe58KQaL0BOA/Dwzu477TR6S76TuYawr5Ina7Y2kqRmUy/ux+/SzOD75ArLRQdEnkPtwaB/t485xZwrJcllkI8Pume523L7yIxjovMscb7UjuOtiqqaIUxNP4unj/wg3eElSOBrkVbenf7MLpYesW0IxXI3tSz+INQMfBNyuOpmRd6uplsWlanjdaqmEXD4vNejDjz2Nd//+n6JlZq6uVCjOsM7UM4nZC64Xi/zuhlX5Qhese9w6Z092qybsqjNHl1dWe7DNeq6zHZ/6rU9g/e23wCs06/0Lw93scBP9A6xwEd8DOpfaqTP4L3/1D/jcww8hXyFxVbtJSkmkIZ5aoBB7YbPgz3ekDY+VWF8uhKESQFa/R2WfuStm5ZDf1ox/+9Mfw1vf83YUerrrUY6kP7Ggqa5wbKMfwpkw3l2iDua6phsmqlVMHzqG//gXX8JXn38BrXNlWfcy1D+wEZEoRJ4pAaliUufdQOS0L18SwF1weJPrbpzCsIMt48p0hqi06h49cD3MtTThZ+++A7/8o+9D86plyJAUSC6INmY0rwxJqWYjZdC1X6tg+Mkd+NAffBr58XEVmdPVUKI9fPNUeC6ha5H0/vZZ5o9hPQyggxaTqK1BYiPUuafGfvXfXAxb11tOa4TGa2/D//jkP8eGt94GL8d0MaWlzaS5vD79sl7tTQMQkjLLyXyXWoM7h3G8NvIV7Br5KrLOcWI3UR9kmNoktoxTzMLLbsG2ZR/CUOftCJxm3fdJtzFi1DlMzu7GrpFvYXRmBzI4Y3aOWQ1nUxKZ1QQOd590nPbtUodrlQBV7S8v5DpKKFMyWaY3ZYyjGbmONnAiDrXn2l0oZ45K1FqHo+kUvhpUfSygEq3G6u5bsWXpu+FRP4EpE0edDquy2Hb42Pjz2Hf62yhWdsOJZk0ZIR9Wew5wZ1wK8igwFxv60gnTd6/H2p57cH0/OQds2ZyrI3Jr68U7NZuLTL61jSuzrgWmR708rdmt1fOY6lCU9GeaNZmdcrz71jRKuTqCkal9ODD2oghWZZwRsXO9Q6MsDFopoUsB7a9Eu5DtuN1VUsbKBlluZshEDVibrffgRFWUK4ew4+gXMDb7jPRwoHyy8lQSuwjJ91KohVLdt+Eda38Krc03GnJsEvCYEq9FvNJk01f9QCRsUSvjmb9/AB//y8+hUCzrLk3wiY2xJi54wSiBSdpf9PsvthraC8ThZnmlzGn11LEhdgm7xXFRairgl973LvzCz3wEhf6+2Ia25E/kgJXIG2sxRGC1HceEEr8T+w7iv33m6/jaU8/AqVS0FwIJYCY8Hj9acnzOZdyb9LSuJsnHne8861M5Tn4y/x2FuhuneHroZhE2F/AvP3QffvInPgB0dipvxKaUTGpHLjXfoVlp5gSfoz62DVMsQo1tkE+fxp987mv4zKNPwZ2ZVYa9AVXKE9FIgUm0x/7NYrmGoVWnL4/coCuhzzb/k2yOZRIwdaIk0zbVTBYbVy3Hz/3Q3XjrPdvh9vYh21TQaI4NA9af3zh6O26sPmBlwtg4Pvu3/4D/9pVvw50jGI4LRlg9UtdXStrmIvM5fpZkxG1hNDEfIMTmMunB+iAmwHGD3zflti0t+PRv/BJueNfdMhcYDZO+IIveIFz0Jb0iB7wpAEJyF6pWsJTlxKyNKpgr7cdTRz6L2dKT8JxpIQ2q8E9SRpk/KyBfeBvuWvUeNDdt0VJDiU2y4iGDDEqYKr6EHce/LY2LwmAcIdsDyw6Nu1TLhGV6guRFu+vXVIUFDZRDTYoEkeSmDklZuSQSCgdCQnKCv83fdlWyYkzm/iWCkUUFa7C+505sGnwrvNxqcVKMVllSJUWQ9p9RYSW/9iqy7qyWXFGeVZZOXndOqzs8D5XQqCW667B54B1Y33+3pGDYs4EhOn0pFrnbXGCaJrkHdqet1o5JQfaJ55dExmuofr8ex5QCORzMVU/D90/jxPRhHBl/FWdndyPvHpU20TVRNOR5tC8jMuStECCQo8FxUNloRDmUoiVY2/su3LzsvSJYJTLUhoTEb+VCxIjModGH8dTRz6PFOwrX6GPEnRvtwzPq46IS9mBt77tx07Iflpbh1JioL9RyL1R6XGQOslZFjb0EshnJd+/+hwfxE//9r1FgtzuzStbFfxa941/8mrKQgzjXYehPbO2/VA2YR9bkkfIIWO41l3Xxvlu34//8lZ9Fy9IhJaxSUdDSYuLB1vo7k2QmJ4HXmS35KGRcAQnO8En87h//Lf7xhReRqwbwggoqblaTR8kGTsk5XHcoCQ9pdn3zc/oxwInfATmLaocmpseoB9n6vpdB2NqC3/3gu/HuH30vnI5OeLmM9FHJJ3oCSaqpfrl57wFz2KIZxsoN0zPApBr0ZdR7Zn5boi2TU/jqZ7+Kf//AIwinppElmKxHxh3hIOj92vmXxLPzwJ9gRuv8EmDWliwlyzkTzloHniRDF242i0pTHj9z81b80j/7CJpXLkOJ+i+sTuH408CMaiQnlXk3lF9mUnSOJ+km/+gx/Pjvfxojr7yKalUrCASMmRCEvV9VnzT2OQfTxkQBnZ+LnPtJbodJySw079W+9jdMWcTMhZBdJptb8Ke/8cu46b57xEZhUIWXYUTz9a+ri3yC7+mwNxFASKrsWZCQrAYIEYVFDI8/hh0nvgr4z8sCrvOA/7UDxtaf3N21obvlDmxb8TE0F1Ya0qJV3yM0LaFSeQ2vnn4WB8fYjOlV00WQVQqSCTbggMRBs+OvD4UlJwqf1VR9ayRDtA8k8cf3VcGCyvLO30pY7gOZrlzqKO3cgnzuOmzofQtW994qjHjmOen4JYxL9cJwDAfOPI59Zx9FUNstQIAcDObCNOtpQQijEQREdGYZeJnN2Dx4H9b0boOTGZSfWdclef0kFnsdk7qRd6D6ACrwpAFocdymVND8xPxOUyoaslS1RSeqoOLP4mzxDM7OvoozMy9htnxUyIIUUSJ4qJOM6kRRfXaNUHAGsLEWxyMPuINY2nErblxyH5oK6027arWLoXFJt8lSaS8eO/Q5lMpPC+iqsX9G3b9bz6baEQR+Xu4u3LXyg+ho3S7pCt3gq0vR+ahky8V8bOkUj/UrFVR27sYdv/Of0DQzq01wpFY7EdBa1EUXc5Bd+C62oiajEebYOsnLUEodBzXOw+YWvP/mzfjVn/4outatRtXNoimrwkj1ZH9yB6tb2vrNCh4KQ1SDUGSD2YK6emoYn/vyQ/gf334cpclpaegkbrdu3kRHybqPNbC0Hg62nDXrXedXeRiQmmDp29EkcKl4GaweGsQvfOBe/NB73w6Pkr/5PKrVKppISKtvBPiY8Y4zTqyrExOSmyx32mBIUw0xr0LmpPxYeUhzsxUUgip2fncH/vAzX8Mrw6fgVKhgCSk31YvOc0T16KSdk0mipekrYZxjQ0WIefdtD436dY0SZC2bxYbly/C/fPTduPOe7Qjb2uFRGIkkYq5AQQ2ZHFO93LAktv2GK2KjpgT2pWoNuWwO/twcRl95Ff/uL7+Mp3a/imyVHC2ljyfbpdv7TIKoeIYn7G1/2OD8F/Eu2F3M/EMTP68Pq0kVSXkt34PWNnzqk5/Alne9RbgHrEaSKp03+OdNBBB0AY7LA+f/m05BG/HsPPFVHBr9MvIe+yEwxMxVIg7nKPEP8KMeDHbchhuGPoKW5jWmrTBfJ+amuTiU4QQjErI+MPo4In8P/JBtie3Eto2hkrt/feF4n9qeOflicvekjU5UBI4vis1xJxT86micBEdF/ZHTjZbCLbhh8G4Mtm+W9tVMKSiwUO3/MBjFgTOP4eXhbyIDApqagApqPahzUsa+RlRYukdlR76r10kFxHX9tyN0uNOl41IGM0vR9AlslMPu5F8f8pVdezSLSvUUfP8UgmAOLktDDW+DmgFascA8sw8/LMOJigjDKZSrE5ipTOLo1DHMVU+h6hels6QTsUEMlSorCIWHbiIv0mrbhv9VnVGlpimwE6AWNiHrtaK9absAxZbCOt3VG1Chx6ot/MpBvHjiqzgx8S24zoykZ2wvBX3HtQJEozMq0LWq92exddl7JXqg0Z3kaqCryuJ3EMbpUmaXOvgnj+OD/8f/i9Gjx+EyHCsXV/3+C0d7GufjFVmfEguvOFDOI5e9ATLo6+zET77rbvzsT3xIiGueRyEaF1E2K85eY8bK3JfdJOvKRazM5uS1YoU9BaTwl+svyaflMlAsYtfTL+L//syXcfrECJinl6CFrYSQd3oeEDcRsnmxgbhMcKFpnriE5JJ5THMBb9m8Ef/bT38UvRvWItvChlNAsVRGoakgcyrHzoaJLYvuXQznQkh6RnWPKo58XstwtwFT68vNCJPEqeRcD7Mzc2jNOvCnZ/H5L3wdf/Hwk5g5Oy5CT9xx63clL2DBz/yNSQKM1TFhEhzGQMtGrEQ3wPNQ6GzDfdtuwr/4sfehbekg3JYWFYQif8bcazaXA6v76vNent+kHGxPCwOKKKYmomBcMStVTBw+gn/zqc/j+Vf3IijOIUseirx1xq7zpn49UpC8/QSxsb4p07rMRX5sumVeC3Nj2gaAYEiy/Fm2rxf3/86vo/uGDciy3Ihr9yJkrRd5U1fssDcRQEhMKrO06py34Tmjye3UMDP7HJ48cj8q1ZcQReOGSKhOQxv7aDjecwP4UReGOt6Jbct+CJncGmmHLPk0q2XA8r9wDBPFA3j1zPMYnn4R2YjhZfZYMGXPUrpow3emvzrFbIyYEENhSpok6tUdsXW6ev+6D6mTcFhiyLSB46MStsH11mJtz+24rm8bMrmVqupnQufixFkB7w/jlVNP4ODYw3CCA4iEoKk9DMiZcJwq/JApA0ZP5lALSQhrh+NtkLTC2r63IHD7xTnrncZ2XejtWaxji3f/BlgEp/Da6cdwfOJlVP1x1MKa3FPGaxUlSEpRa+dF3emTQxKEZfjBHPxwTssQozHtACnkUvtm066mpMoAIaUxMZTJKhD+ngqDJJtWkXNmUImWorOFfSXejo6WGwFRS4wXTC1JVQ2Jg2eewJ6Rv4cTnTTAwAIP3ieBFs/LoirkRKDm3IJ3rv1htLXcAsdtWnSk4LxvOreUjBQYTBpNj+Nv/u4r+C+f/xoyFVK2QmFLszRPYyVaxmUdkmVyJ98ZO2Ot7zg/tDg3eqBwxKZ89K5Z3805TAKhlPgZx1HJemjp6MRP3nEL3v/W27Fy4zpkujs1a2BIjK6EqBL9FBo4KJbtHcs6JzsyypdLHwwGzEqYOHYCL774Cn738/+Iqalp5Kl+J60OTGTJvIE83jb0kecxVAcz+/T56mWWCpgl721KGVlHHxQKuGXdGvzyfXfhhps3ozDQL90ElSipb5HMIaNgee74mmeyi4khJ9p5re/ZAiNjgQVNJk2atNxO7nlyEsN7D+Jbjz+Hv3rmRcyePQuX8s0GH1kWvsmvKXnRvPMLzb/66JtKFSWe0p4e/IwLr60d779hA37qA+/AmuvXImpvh0fFT4kaMLKrAHHhmn/z/Cofa/ZDugLpP9WK0tGzVkX19Ciefup5/NevP479J46jUKlKW25pYCXPbzdl587ZBW2/eGRQP13HVt8amUPmRZC/ZBob5UVuySJHdDbuuGkL/uCTP4/s0iXSUVPihwTHr+P7rxgaWODCbwqAsBiDSMhJalf5spzG8bFnsfPk/fDCfahS+EgGgg6FAIE7Q9UUqAQBcl4vetruwebBu9DVcl19dy6Db6YBmzEFteM4NrEHxydfxsTcATjRaamUoJIc+QW2ysKGjdXtK+lOfkdZ1gTlj3lInWgslaua6eYJRyJ0uhCgD4Nt67C2Zwt6WzfDzSwR0qA2XbLEvipqlcM4MPoUDo19BzV/n2k8lCTAkOvA76F4D0sbyfptRjZ3C7YMvh1Lu7cD7oApvVuMtRd/jOWPaGvpGZyc2Imdx9lB82Wz67aJWf5tUyCLv34jeLEuS89X8ictrlEDpmJEWIn6BOhCd+ttuGXpu9DWshmR05woErQLMhevWZyZ3oEXTjyISmWHpJn0Y1NWvCbLqTgmKqdaibqxtu9HsGnwbiE7kjeSrNqwTvpSnlJy6YGPKHDhZF1EfhWnXn4Vv/MXX8Lze/cjrJSQiRyRfxVWt+SwzPyr6y0kdkpiKlOZYea5ztfFfXh6XNRJp2kaE0kXPRdN+Tz62lsxMNCHe9atxnvechO6Vq+A296GKKsKn5fvo62HCRrkfQ0CVGeLKB07gS8+9Awe3v0KDg+fRrlcQabGCJY2YeNH4GUy6mLkkWMKotpQDuPa4rlSmtnV1oYbly/Fe7fdiHe87TZkB7rh55q1AZPNUFjOiU0PXM6adwsQpBrAOCwTafDDQMoeo+kZTBwZxucefBwv7D+CPSMjUgnjUglQGmQacqtZ49RZWUAS/5/9qY6xI5LVBYpL9fXgzg3r8MN33YKlmzcg290J5PINufjLN8bmSiznLM6hNjyCbz76PL6x6xUcHx7B2dkiytUqXK7FgjlsNO0y3YHRjCABVuS1LeS3wRmz9Mj8I6nZzMWK52H1kiH851/8cay/7SbUsjlJLVADx/XiRnaX6S4v+2WuKoBgc8y6FTiFl0/+I14+9TC6ssdQpTKby/IzLoo1cZCuOAXmtRmC70ChsA1bh96Ooc6bxUEzDGRTBLqe8hUqIqydxOnpl7Dr9G5Ml0fQ4lH2dFoaRrmswedCHdmmQxwzQ4hjVltKjiz0IEGRVQcUQqIOHnus9SJyB9HbvAprerait22zKCNyZ6q7f3Uvck2KCfknseP4t3Bi4jsoOEeE+BjzDOyx7PqYRTmooECRpGgQTbkNuGXZfRjsuB0RG0+JnLECiXhXfrnmm96v6x/CY0cexNjU1+E5pw2pyVaDWHCwGBdlpaHt/VlgYJ22ckCku6CUXDFVw+diLXUWlWgFVvfcjZvZOCmzAp7bYoAcx1cVEOX8sCxlr08c+QcUS8/AY3dQRi5ECIv3qU29ooi7pbJwSijR3Na0BW9b+0+RyW1ARIloIYkRBCb5BpeSXuCQa7i9nk9mhKs0h6kTIzj8ykF8+YmdmBsbw/7ZEta1Nkt4uimXQ39LE/qa8wht+Nqyx8MQh4bPoFj1RTBIwMElCDcJJ4I7aAAFx0VvIYPu7i6sWtKHVSsGUejuRqGnCy3dnfCaCqjWaiiwRwTTCdLK+XICBL6bphqFXQKlCyJ170lkjVAaHcfIq/vx1PN78eUdL+BksYgZ30chUF19K1qhaXDTz8C8+SJbzTI1x0VzoQk3LBnCR++6GVu23YDO5Uskn87wOrkGrsseEtT5D5HPc+3Q96/Ok7ycAMFcO5kaYeqFFUzatiJCWKsiLDN6CFSnihg7dhLPP7sL9z/7MvaMnhFuBOeUjoTqPtg8fj1VZXbEFc6bbA4bWttx59qVeP8P3YUla5cg19kKt7UDOUoIiyqTjRQklCEv1zIiGhksO+dtR/CCGmrTM5g+cxbjp85icuQ0jo2cxdnJKRybYBpzniT093IfjoOhni70yRzW2CSVFQlGZssVnC6WMVmpISRZlaqPnoPe9hbcuGYZbr/1JvRvWo8a0ysEWGyoFVSRyaYkxe9lSF7HubqL19Clj0r1KJ4/9gWcmHwCBZflipzEdmEnyszUZYN9NjB3OpDNrsf6vruwqvsW5HIk67FUkW+JBh417MxdyByiYAKnZg5hZPpVTM8dwEx1THT+Mw7r7pXJrvK8ttGefre+kiStUZlQnV3otKOQXYmB1nXobVuH/rY1yGa6pfyOezV5KcwdMGTuRjOYKh3Hy8MPYXz2u0B4DDVRA+TCxBy4OjkLFsiHkNB31Ip8dj22LP0xDHVugecRHEhxpPZusJ0IX4f1L3QKv6FS2oUHD3wFTu1hEWRqzNsXG3giF/76hr1rIi1gn1nHyub9KYxUC7izaUI2uxpre+7Euj4KQOnuXm1lKlLqJZc1lEqHsfPEl3Fm5ml4YLdGrd/XLZLQy+W7WXbqh1XhtUwF1+POlR/Eqt63I3C66mps8yR16o+32BCjlvspeFIBHRO65t1Xa/BnZgQA+34NXp7AVyVn6Sg5f+ttpa1HkRYHmkKR5jLySHXdw9j858nN2v5J/HqJoMgu1oFDZ+mpYBXZ7PIueq7o3fPYeiRlPmnue5xvtjWyhKYZ0g7JMYqEEEZ55ogchXJF1PtGR8dx9ORpHD01ijMTExidmUY2jFAsVWSxb8/nUGjOI19oQntrK5b192H9sgEsW9qP5vZWIJdD4GXgsuRUbMtn9BCyFENsYIhp9XSV1bs4jzFf97PrzE0MqYTzA6IEsvz57Gy6FJGVEwp3hWH6qFLBzMQ0Tp46i70nTmNk9CwmZ2cRkvyX4D8wddFUyKO/owtrli3BhpVD6OrpgtfUJM2HnCyJuFmJrFDIqSlHIqa5I9NpUzsZXr6PXy7DzSgoY9pBVgJGj0hK9bV/DOOD8hhJAnAcGDn/zVzoGMqmkxSbzWrFjeXkitqmptU43JwLNZ9iczwoK82g2GmSbGZJi5k0jWhlpGWOl29iXOxKca7boGGZKGVUKgfwxOEvoFh6FEHI3V+TzGFKFFNTXyoXZfdMVEqhIBfT/los69iMLUNvRVvzJkRum5Hn0EoKP3IllJt1qSRfkcgB6/DHimcxWhzG8OwpTJbOIotxBOEkgrAooX2V92FxXouI5rhuL9zMINZ1LcFQ2xA6C71w3BYEURNCJ48AWdEmkHfAqIJR3z2L05iY2YnnTj6J2dJzAGYEujDMXQ3p5FXCWd9W7p5ZWlTCXNiFtsIt2L78Q+ht43Np5CAIfZETFudTd34Xs/il/Z7jMzf3PB7Y90W4wWPygilA4IdNeUqmWmMxC4olW2ofBf3wPBtZ0CoBgp4MqgjQjGrUh+6Wu7Cm926s6r5e+iuwsoB5UgmXy/0o8ZVRB/gnsfPEF3Fw7Cm0eCfZtRiea3UvkoRS7S5JboTjLEF/J0sl/wmyWaoCsm+Hvbckr6ORT7NoS55Tvmjj5A4CsqKFtEcBltiGDQBk/vl2MTcjL4S+ejlbIga/QDo3lrU12VghdBIYOLKQ8l60E6emeKQTJ8Gn0b3gIn/5PrpA1/P2Nn0iBDfyjHR8CaAp5SyQkK2p6Swl3K55ci70tXIZ2XwOIeW92cSHin8EN66LMm3MkjWW8YVUyWNfDFZfOBrcEWlpJTZYUn7svC83ODDWq+smGA0K6fGgnq4uTihtqR1TZmu6j3CMWCpMUQn+nsRX6U5oEYfyQYTQTTDAvg1ZOjq1hXzCCFVqTzBylivIWiWRJQtZZHG9zM/NTowhyd6Go8TSX96fAFRNrTGCI+RNWyUwf07LM5r7WqiSYf7P6iRPnSOWT5Kcc2IPc0nhSzBSxlU4pAAbcSn9haYABUxLNPgy2+byvVD1K11lKQY6C7u71NI4liuOzzyP5088gGL5SaNh4CLjhqgQEXpMMVgNeb4QTAGQwNeMXPY6rO6+Cau6t6KpsEZ+LskBGVd1Uto7QBcEh04iKkq5ZS0oouLPoRaUZHcpfe1FlZETt0kIeYVMi5DzQgEgrWY3q7s4nTsahdCafIaYZ1CtHsPhsZewf2wHgtqr8DAmzYXIFaZWAxdpCvewHFCWCqZRohqqURc6m2/GtqXvkgZEgdMiYVOz5zHlf1Zk5fKGf/mysvywUtqJr+27Hxn/MSMQRT6Edj+URcZEaS42z5V4KEFxwycxtCtT01aXQnXIS2lFNrsRy7tuxdqem9BSWCFkRFtloloHmgJRKeMA1eoRHBl7HK+cfgxOeEREpRhZIceAZEQt+2SFDNMYBGBzEp0qFO7GnSs/gtaWm6QLZvwxu+t6hv8S0wsmxtMgGCSMNE07iNZmRktdJf8ti+e8VFEDOLAefx4n4byGPxch0KEq+c60jjbn1tdd/ttWDcjXsJ+AggiZl40lHRcb8ov/Xmxh6HwSDVFnxRa9EkWhOI28V4b3Y2S95TaTdf9JJcP6PcahdyXOmTJAc1fqFE32x9BC6yV3V8JJJq0xD/TVR0pKJbXtcOPh2gNDx0lWGiNHbRx7UkNKxo+vhgIM2f0avoNEaXisEBANKDK9K5JpsIsP3KUdwWiQ6CTwuaRc2bTMNqTy2OXOc76XIYJgpzPn/IIfc4CUYovOg/LEbB8NFeMzdua7kJARvzQrfP+OvsoAgq3x14lvaTZOOIXTU8/jhZNfx1x5D4KoiLxbla5+5YD7CYaJtS5dd9z8zIlQThXL0d60Ddf334qhtlXwMt0AKx1Efpgf7ZKgKodaFmgrGrTZR3JxtXn2+bun+Xl3DUmyzIf3II2hglGMz+7DK2eexejMy2hyjwmXQtqo2rI+KjyKkiKZ9LoQVAKCnVb0t23DdQP3or99KyKHgMQ1IlKWD8G/FWAttjZ/8dOU167Br+zFV/Z+E4Xgm5KzF+uJKIp+L6tKFvNhIyk651pEDQiCJ5JPGTWxY8h8cB6hswzdzRuxoW8r+tpvQuR2yXkEI9zZ0rKqYKsRB5fiStUT2HvmMew98yhyzhnT/EvdCI+pBbxP/U6J9Ev6x0cVG3HL0g9gdd+9EplJhjftLj4uuXw9AEF16yW9ICx6CXkpSJBSVS4+ZuG6YH5/gXCAfTzrM+b/255ykd0W535MuJ+nIVDfLV36sy9mTuhksgghsUO0JzdESxa4ol397Y7cLN6GiShZAAAgAElEQVSWZBs3EjIOletL0unUn8+UQkgPAuOJL/bdi37AxgNjLv386g97nHZwjEGbqRSwzZbkF1InaiKHccrivKmvhjkQjzHHXn6lKCy+0cu5S+a1GfGQ104jN40f29BLUEPiHhJHJbCx/HT+v8/3Llx0DI0tZB6pYFSc/NGmWfJvIZeadS4FCK9z5r/O0zQOkJRWtisepVAnMTq9BztPfgPV6otANC0iQXQ2EmY3HRbVSZpcL/flDlMKrGPux0DbJqzq3o6e1uuRz5LESPlkAgzqEJx707p+WJBgi5nP3U1qPwCjUW9aFyOqSuifqYHZ8knsPvUcTk/vQNU/iCZvCmWfZBmWJFr1RvusLBv0UAlcNGeAuaAP/e3bsWXoPrS3XKfARppOSRDSRMVsPt2Q+y5j6Y2tLuHTZcIzePb44zgx/kW40TGxDBnvcQXKYgiK2lhJnSHlr9VZc11nq+1q1I0qBrGqvQerurehs3UbstluBBFLzxQQ6EfTRfV2PFER5fIh7Bp+EKemKYw1jFDSNOSt8CSmFXxkHM4V6ktQopvnzyHAEqzq/SBuWnIvAm9VPV2TnBFJoGjnxGL5BzqyBgzIwGk+U35u1ezMTk9+tkDeN95ZJu5qkeXf54EUC76l1mdaGd76jsks2JYI+Dpf8fOeZsvh9ABTOpeIBtSZ/mo1c51zn6zhN8loufUl1glKrsT2jEjoG8jvjbOwAGFBL/S9WUDmkxEnUg5R4zMpZ0VvWiuomD6ydMRzvzvxqA1FHbGt9DqMHOney7T2tv/mD61PtnNRltbLG41UhULeg0aE7HAnciP1H55nn/+9GX6BsxtmkflHQyTN5Hr0fozoldhw8VLrl/2mF3nBqyyCYAag7uRZXqYhwSBi7n4Sp6Z2CUgoVfYhK50TZwUcSLMm+VjynMoPk+DD1z/nsfVyC6pRL/pbV2NN91Z0tW5GS35Q0hF8+Vg+J+HMOn/ZLOKJKEK8m9SZZCuQZRfLnKDDHgw+gmAWc5WjODb+Ig6MvwQnOAzP4b3axcDW/fMFpCPjHysGlBM9g1rUjb62W7BlyfvQ0UKFQGo8WPWxZNMp3qcFCby+tcUiZ9EFDqvvwKRJUhHTc6/hueNfQ7H8MoJg2pR4klxUrRM6F/utVmNexJGcLniZlehr3YTV3ZvQ27IM8AjiWHGgTWA0ncFQqaaHGCKX6FE0h+m5fXh5+AGMzu6EF51CjVoJsuCpTS0hkYChFlaQc0lezaMaNqOn9U7cvvJDyOVpY2otNI77fCAQl9Bdym5ad0fiYJNytybToDPJdJer754WWiLj5WyxC6icsRiUYMsHbYQj6YvNoOqzX8pzX3w2zAdf1mtomN8Qjfje8J+29FDJEI3PZUXBrE2N15TIiDyLLUs292ST/CbdI/XxFiDoi6bzzRjvUgDhxZ+ajoaRMwsW54EeqeSyrRyN8qIVFJKLJ8C4WVNsBEiDBPWHb9z82JIMM8dlLiYnkpATEwHcyy4GZFdMc4tJZJMMXFzcgJd8ROMrcJ63R+weanTDoGU5L4kYRDjMwoXFvoWXfLuX5YSrBiDoWmQWhPoMbSRrkd2PcArF0n48d+IxjM48JaF6ihLF4EB3pgQKHneLIevcWSLpm5A8+cCtiJwBFLJD6GkewEDrcizpWI2MNwB4PQjRzKK2Bnni+aMVN5/SWUSegBuOolw9gbHZw9g3fhATcyOo+KeQwbiIHfHpmjwlXWlnSdtJ0vaa0C6NUongrkBf223YMvQ2NBXWSZ2/Hm9ETur2stPesvMvb4pBdzIaq5A+FOE05sqH8fLpvZguvYJy9RAQjiKMphJSxBeb20wvtCHEEFoLy9HbvBpLOpaju3kA+WwPHLfdpIBUC0IFl0jS0oVRLU5AVwOCMZye3oWXRx7GZGkvcs6IkOxasp70ctCIVLyYqvQLy0aLKPpt6Gx+C25b8SF0tlDdslXGfD4ItA6rcefKay5+B2HtWA/hJv1BMo5cr8KYb8P5If8FvPdFzJ5cIG2kwJ5S3x3VQW+j36j7HHuvlzP0nJzL9iblhhJGMqFxVck0dy/DmkyLmFx6MlpgpI/jHaoFN+QlKP9IPry+4WPUQYIk6VU6WXP9iyHgXmzuJ3+fGNOEU7ZjIfdm1FAV4ChgsZwb/dtGDc8fV2l0Ycm0hfkmWXZtZMGAYwFVlxcIKq4x76Kx7cLWmp/avRSbXsqxC6Nmy0mbN1J10Sf9+RsbGNTfa180ha+OT7wz49TXl1EcYoKwpTr8JZTLr+LlkSdxbPJ5ZKITCCLK57I8UJ2sMtO5E7chbFY9KIGQ6QDlGbDMidGDIeSyy9HT3I3OQh86Cj1oybWjKUsp34JIOGv3R7MTlRB5BVV/DmV/DrO1Euaq0zhbPI2x0klUqifgRuxIWTYggxEQTQnwWciKlf4LkprgPat8sxAV0YXAXYX1Pdtx49AdiLzVIq7EtIPEHMjsNn1ibM8DtZsNuS9+EWsM69ppH0+nOL1iGdXkVZCwyHKqCRQrJzA5dwZztUnM1WZQqpXgBxVUwyr8gBER65hdSadk3TxyXgHNuRa05trR3dSFtnw/stl+RG6nVKhoykDDoXZq20Zc0mtPFkwq682hUj2OQ2M7se/sM4j812ReUJ6ac6AW5pBxqxJ10N4bGq8QoSVpFpNDJrMJty7/MAY6bwPcNgNGYsW45M42kZxPbH1s7vfi75+d27pjSywuCYJco7Oef81zAcJiuSaNz3H+e03ukBt39eaceTvTiz/1pR2RFP5Rvma8BlggEDvppD0S29AGYGE3HYIA5jk8JS7WZ/tC0QnjB/Q94Wfx79bin/zccY1hkXHW9V2/dUzzl/wLO/IFx7IONUxevQ785gPDy+wIJdJqwE4DyGxAhos33yKPXPgdOA9AWHCcr+z9LfIxLvmwqyqCsNin1/xdCUFtGIfOPotXzjwOJ9wLF1OohuQdqBOmEIZ2QEzsOurNjuzLxhfA06Y9URWVMA/P7UYu04caGE1gOV0rWrLNaM4yPF3DbK2GICjCjSZFNyHnjKISTAkgoLyyjdLF/SNUP6El42POJzmSZZn8XpbOVDFdJd/AxWzQj5b8RmxbcgeGurbB8ZZbodJ6I6TF2uhixy0UJk8CNLt7iF+sRg6GBW+69EYIwhqy0DbYDgmMQmKM1QrJm6DokPA+GCGQVtvJhVuvGIdz7e9UHItldiQokj+Qi8YwXtyPl089hbGZZ+BEx0TiWQEJAaL2uCj5NeRJ9mT7XlM1we8gkIR3E7Yvey8Gu94KR8pFJbZsGjBd5kXxYoOR/j61QGqB1AJXwALXKEBQqWJxQOEkxmZexK6RxzFT2g2Izj+dCVMK7GfADysbiAAYbjatnhO5ad21MvhcNmWPdDYkMKpSooJr5SdouJtllupCmb6Q9II0FiIgMbseOqGGZB6vQ44Cd7h0hNTyImGugoxbgI81WNa5Ddf33YG2lvWInE65Z43EXYFQn9lPLZxfj2dqHEVo/Fk9zCm24TMb0R4boDetCWOBIQ2PxuE7Gy5NhHwTkKH+bZKG1e6NLEMtVU7g8NhzODL+DGr+XhG8iku+OI5xJQx3oOyrUjU18rbrZuRuxdYl78WqnjsBr89wGiwg0bCt7hdSoHAF1qz0kqkFUgt8nyxwTQIES+jS/vTcpZYkF/3amV3Yf/a78Gu7hMCoRDYbQeBxDHvbXD1BQIIVLM6fTl5D0ow8aP8RlhvG1QJS5SJ1/KpwR/RAjQNR4GKvgJDRCIID22zJlkRWkXV91EKVNJV8PiFL1AsncyNuHLwNK7q3wvUG4Lq2BbXdY39/HdVCpLEkUcuGXG0KQLUI4iCudayNuXx13FpbrIBMz1H4Y4PEdh9vW1k7BHqYretHHJvchWLlEDKYhuOUUfYraMnMoSZ6BvzDa6sAE3kLjObkXI4PgV0TfOc6bOh/HzYO3IrQHRQ1zLo6Wj3gbEHC99fu36c1I/2a1AKpBa4RC1yjAIG7diOPYog7tSBABhOYLR3GvtEdODX9AnyfPIBZEzXgok/nYXeZNj/OXTwdCcP96kisyqh1WtK/RfozxHVAto2yciRUrlWrsiiXrLnumEykszHjMD8fCoO+FA4gm1mKVd23Yk33DWgprITjUaMhp2pfcj11y7a07/KyqBf3hswHC3EundwJTc9oBCHO9yZ33/r/6vZtzGBhOlVjJIFdINmFs1o5hoPj+zEytRuV2n4gGhX+B/kkBCZ0/qxUiW2tpC1LHBWA4OUxF7SiObcSm4fehxVd20zkIAc2xsmIslyc+VXLXJmozeKsnh6VWiC1QGqB790C1yRAIAFRmrtIcyKNAoj6oIT4a3CCYYxM7saB8T2YKR1CzT8FSCUBxXgssYyhfjotbY/M8+mQtWRSgYISpGMd/IBSryblIBl5lg7bkir5OcmGqiiYEY0F3lGcatBCtk7ksqvQUtiErQMb0N26GZHbi0iEmzQEb/s/WJcak6Qu7442GRU431SMj2kMuos4koCzhlYxdTKgjX1YZ2uvr8RKC3WSJCEqrJWlSqVWG8NUeQwnp49geHofKrUTyOI4ICWtPFslkGn7cpBD3qXVtXW0Nv2RtjXCWZBKNrcP+dx12DxwG5Z3343A7ZEKF4JCK7ClMq8mylFX8/zeX9D0CqkFUgukFvhBWeCaBAi6v7O5ZrurtwJLuntEVEHon8TZ2f04OrEfp2ZeRal6Ejl3WlozS4mckOs81dWulwzF4fIk71lTApEIGNnmOaKwYDTiKfajGggEKtYN5klDBKS2vhm+M4S13ddjWedWaUsNrxuu6DfYHaz2ErCfKxkxSJIUdY+/EPgwDtx0wSQHQBpdyXMTGLDRC+/fNnmx6Zw4asCmQHGJmeWCc6xUTprqh+xq6QczmCidwrHJgzg9vRdV/zCccFi6b6oWAlM1lkPC6ydSR1G1LrFNdc0grEqfjqzXglrUhfYm9uW4B30d2w0hUUmM+kfgpfk7ZipfSdv/oBaL9HtTC6QWuLYscE0ChHNLVpId+uIJQCljNyojDCcxXTqBU9P7MTKzH7Plo6j6E/Dciil1ImBgK2D1Zur8yEOQBIJxnyp9TO5BvP81amhyjsIWdVwkIDIfzsY7HehoWoWe1i1Y0bUJbYUlcNw2aSfNhiAq35t0rNa5xmVeV2JKz69YmA8SNHXCJ/URhrM4M70f06W9mC2fQtbzUMi0iWZBW34QLVKqSHlilo0aboa56XrgPtIumrWgJmCg6k9jrjqOYmUE43MnMVk6hVowiiickfbdbK9M7QiSE6VJUEOfh/mKjcJYkF4W2tEyK9wCH33ob7sNNw69A23NG6WHQ2NFi3IN9JOouDinJO5KjEB6zdQCqQVSC1xZC1yTAOHcCAIXeus0rDQod5sqZCN5ZnE2RYTBBErVUbw2NoyRmUMoVY4iCkekaRJBAnepukNWBT4riCRNoCIS2vRndEjaP4BljQ5qIbs3NsFzmuG6PcjnN2Nd9xos61iGlly/1NmHTouoHFKe2Gbs1VFbNxqXEsbTJv795d7Vzgda8fUtZyCAE47h+NijeH74RdT8I8LzcF1GRJhCyUk7beoXsGyxp6lVNCOoAqkAi61qteKE8srloCqkQlYesHsiozwcE6YO2FEzAh28KkVmbBvtusZDnRFiTGMjSDre7LJGrYW8O4dq2IRytB7X979dtCTgLZMoBDv45QUPJCmR9RBHIopgx+fypnSu7FKQXj21QGqB1AKNFrgmAUK8+03msO0O3hLWlGFgxVboeDwpvQskpO1Es/D9s5itMN89ganyJEq1CcxUxkX4yA/KWvYojkw7ysU0PPYQoDxwQer6m7OtaM11orOpG12FdtldtzcNwfV6BRiQXxC7Gpu4sDS45C7WPo9NNTQ6qMsNEBZ+mdRqdOjsEzFXPopHD/x/KFX3IOdMSxvqIGL/CqUc2ta0qobAxlIkWVqCJqMApvucJnSkQRVjMKZzhVSAkDdgYjcGLFnYRKBmUwHJsY5TATYioKWo/LZ+tDbdgM39t6GvYwscb1DGSssr1fZ6dQsokzaOUw7fH1uny1lqgdQCqQWunAWuWYAQ1+fHan1J5b+k+63vzxOd0RRGqIoZ6+Mp7sOukdRVkP4OQREzlSLKfhEVUQXU6njKJOe9HJqzzWjKtiCTaUXGbUfkdKgAkIgBNXZ7TJIBrfy7Eg+V16BXtg1jrPP6/u1iG8mKChCEhBjN4cTELuw89keIwkMSKdGKCm1frfoRVtqZuhPaFVOrLzQ9QcKnpmUsmZEVGvZ5fW0TLQDB/t5YRtIb89vRzwcL1kYkeLYCbh8G2rZh65I7Uchfh5DRnHqnO6aHtH1rMgKVvK9z1fau3IubXjm1QGqB1AJX2gLXJEC4Mka1IetQeAkxiS1JZrPfHIv8CBARp2PL6958YelkG+OkbZ3gFHac+A6Gx/8eTnTS2ITPaXtf0GYxQIvz+NY+yVC+De3biImN9CRtmvx2Cyy441eAxsgF7Z2VttIkhWYRoFmiBu1N1+G6vtsw2LEVjtcngIMgJh4XvXYaGbgyb0961dQCqQXeeBZIAcIbb0zeVHek0QMleepu2jr1AG5wHA8dehizs/fDic6a50ryJSw51HZMpCOfXxkQp3xi0GWvYYGEJQo2hvs1wmNLEdlfI6uaFWCb7yzK0RK0F1ZgqH0Truvbhlx+CEHUCpeyy6ZzogUFyiW5tAZLb6qBTG82tUBqgdQC8yyQAoR0SrxuC8RcDtvoKQYIbHLkhSfxyOFHMDXzJTjR6YSMMb9yoaiJjcIsxBtIgoFkWaFNqcyP1FDTQDkM5DWIPgUoac3unP1oym/Gmp6bsbxzPfK5IcDtUq6B6Xanza/iipNkWWcaRXjdUyY9MbVAaoE3kQVSgPAmGqw34q3GhD1L6LTdE0I4wRj2jT6N10b+Ek50IhFBiNUKGyMGNlpAoEDQkejcVi/lnJ+CscDAggsLPlTdUpICThOCqB0Zrw8t+WVY0r4WyzrWo62ZnS57ECAv4lJCVJTTlQKprI43X8rnjThP0ntKLZBa4M1ngRQgvPnG7A13x7aUU9MMKh0tZL6whKnZPXjs0J/BDQ+YXhZ0vUwp0PFSbIp/+LG8hGQlRvJRk61ykyWpdaWEeQCE0QwSPttEabKzaSWu792I/nYKTC2pt4aWbzPS1BcjGVrq5BtuANIbSi2QWiC1wBWwQAoQroBRr5VLzneYcTRBQ/Oi9RCexp6TX8We0V3I4RDcaFREocLItmtmTwblLYg8dZ0IyAYWKnXM8kK3LmOswX9Hejho0WEt5LmecAeCqBmR04qC14SOpuXob70e/e1r0VZYDsdtFR0JFbKyehcXHi0bQUhqPqRRhWtlhqfPmVrg2rZAChCu7fF/3U+/kMNs1AcwICGqouafwZGx3Tg5+TSmSi8hCseQFUljAgUtWaRyYbL0NL6WqVpwVDOBIkjkEjB9IFUJTgFZtxU19CGXXYbB1lUYbF+B/pZ+ZDwtG40oyuTkhUSpTAbLW0hWKSQrJpI6CXGaIY0gvO7pkp6YWiC1wJvQAilAeBMO2hvhlmPSHu9Gnei5AlTqjqWpUTSBUuUUZsqnMVudxFRlGjXRiKiAnTTpkicrVKKkCJXpmRAF8FzVS4iirCgdZtysRAeac81ozbWjJdeB9nwHmrKUbm5DxusQSeSQCo1spGVKSPX+5vMUNF6hH0uCnP8z/W0aNXgjzLr0HlILpBb4flogBQjfT2tfZd/VCBKsk7UOtrFckbwEkv9ckg8jNliiwiT/lE0/CRVW4u8IGCpBgFqo4kkUK8q4HnKep5EGh6JGrYjYhMlpkSgBJaPU1ytpUTtaajpClRmZqrDCUvzXuQ2WksMTAx57TeU6pEDhKpvE6eOkFkgtcF4LpAAhnRyv2wLnRgzU6TY6V3XT2oba/r/KJ8c9JPQsrX+wm/q6VmX9WH4fOQn175C+FiZpIO27NU2g38/IhR7L701+Gu/b8iWSpZXJaALPTMoqp5UNr3vCpCemFkgt8KayQAoQ3lTD9ca72SQX4Xw77GTu/kqS/ey1F7PLX+jY8/MqYrsv5tpvvFFK7yi1QGqB1AKXboEUIFy6zdIzUgukFkgtkFogtcBVb4EUIFz1Q5w+YGqB1AKpBVILpBa4dAukAOHSbZaekVogtUBqgdQCqQWuegukAOGqH+L0AVMLpBZILZBaILXApVsgBQiXbrP0jNQCqQVSC6QWSC1w1VsgBQhX/RCnD5haILVAaoHUAqkFLt0CKUC4dJulZ6QWSC2QWiC1QGqBq94CKUC46oc4fcDUAqkFUgukFkgtcOkWSAHCpdssPSO1QGqB1AKpBVILXPUWSAHCVT/E6QOmFkgtkFogtUBqgUu3QAoQLt1m6RmpBVILpBZILZBa4Kq3QAoQrvohTh8wtUBqgdQCqQVSC1y6BVKAcOk2S89ILZBaILVAaoHUAle9BVKAcNUPcfqAqQVSC6QWSC2QWuDSLZAChEu3WXpGaoHUAqkFUgukFrjqLZAChKt+iNMHTC2QWiC1QGqB1AKXboEUIFy6zdIzUgukFkgtkFogtcBVb4EUIFz1Q5w+YGqB1AKpBVILpBa4dAukAOHSbZaekVogtUBqgdQCqQWuegtckwDBQSQDG8E5Z4D5u4V+ftXPhDfAA9pxudCtpGPzBhio9BZSC6QWuCYskAKExDBfCDhcE7PhCj3kYkHXhQECQR2POBfUXaHbTi+bWiC1QGqBa9oCKUAwwx87J0YQ3Gt6UlzOh1e7Njr3CwGBJACwwCI5NilIuJyjk14rtUBqgdQC57dAChAWAAh0QudLQaST6dItkIzM6P+HBjTwWjYiEP9NkJAEFvO/MY0iXPoYpGekFkgtkFrgUi1wTQKE8xlp/s42dUSXOp0ufHxjJCAJDhSOzY8OJFMTybFJx+Xyjkt6tdQCqQVSCyxkgWsSIKgrSj8/CAvE0YQYIOjPAkQRYYIrg6NJnjiSE0ce+LOUi/CDGLv0O1MLpBa4tixwTQIEu1+lQ3IciGNyU8RwxWb+uZEAhWhhpEZ3HfI+AgMJLADQREMjlGNqQs5IyYpXbLTSC6cWSC2QWkAtcE0CBHVYChNstjuNKVyZV+JcLoGNFjhwHM98qQUIDCG4cBwX1dBFhpEER0dqoRTElbnj9KqpBVILpBZILXDNAoQw4k40lEA1Iwdh5MJ10l3plXglGgFCsqKBkRsHrlNDGMyh5k8jhA/PzSPjtcF1W0w1CSGcjRykqYUrMUbpNVMLpBZILbCQBa7RCEINiEKJIwQR4DnctXI3G4OExdbup9Pq4hZYiJwoSYaohGp1GMNTr+HMzD6EUQmFbA86mzdgeddGuF4vHCdjqh74PWQmECykYO7iVk+PSC2QWiC1wPdmgasGIIhDjyI4TuzabRZbwtNRFU40jUr1NGbKIyhWZ1DyawiiEBnXQ2u2GR1NA2htWo7I7QWQqSci5qch7K6YhLpzS/hsQFzz643s+ziRYZn45yvnu5xM/fg77B3FTzRfd0BD+fYZLFXw/FoGi7nPZARArx/Bj4BsNIEDo89jePIxIDgGF0UETi/czCZsHLgDPW1bAKcJhHK8E/2upOUaiSONVSj2OeKow8J20OjEQtoXet/ziZILV1skX8Nk4mqhks3GsV9Y0fNSX+vks6U6HpdqvfT41AKpBa7qCELMcldXwp0myYdBWEQGsyhVTuHwxEGcmtkHv7YPNf8Mss6s5Lhdx0OANkTe9Rhsvx3X9W9DLjeACHk4BAGOC6YlmIZgYoL7V7LuAUYdYkeU/P+kk7D5cx2AOFwewwXriKzDi3fJ80sv5w9i4/c0siriYzWlot9n8/7neyEsGLA7dnWf8TMszOY8n2y1hRp256/3EAhBMROOYOfJ76A89yCqoQ8XNThOHjVnKdb23IZlve8CnPZ61YKMAapwUdERiHKInCyiyEVWWKb2Pm2kgf/m/yfvmePGn3sCChQE2LqW+WCikRSZrKSIwWEjR2I+lyUen3iM54/ZQmOa/NliSjz1OfQ7oouOcboYphZILZBa4OIWuGoiCMndunRTiHwgmsLE7Ks4MLYL47N7EIZHgcgX3oGLOSAqoxpm4Do5ZNyaRA1qWIbOlrdg08Ad6Gxdj9DpNLtXQgPdaaq7oaOZ73xig1/YCfjmQDrr2HnpOXahT147CUKsy01GKKz4kD0nCUJ4PL+Pv6NTvNCuu/HajTZtvFM90jrlC5WAKNiJAYp1wgG84Dh2nCBAeBRhVJNnz7hALerBsq7tWN3/fvjogOd6CIS0OIe58nGMz50UwNZe6EFH0xDgdgNOztiO45K9yMyfX+hqbc6o0fnpqueOqQWK1u7WDude5fx2PzfSsTA4OF9EpDGmonAuLcm5+NKXHpFaILXAxSxwVQGE+m41qgLhKI6OPYfXRncg8vch74zAj6qIomYGuMVhuY6DjOPAjwoIIzrrCjwnRDkcRG/L9bhx6UfQ2rLF7LoDIKoBkhPnH/uZv/vXJdrW6sehX7tTTZ5rj7VgIynxfC4osN94blpgoWG2u+mksxJapnHtcSph/rMkQ9Tnhu0bd9vnljCqbTVSodEKPUPLGJU/wHsI4PqH8ezxR1ApfxcRU0CIkHFZ8NiNgfbbsHbwA3DcTlMSWUW1chgvnvwGzszsRtkvoaupF8u7bsf1/XcB3oAZGwUIjTv8pOO2wCYZbVkIMPD3XkOKqD6/5FlsCaYds2QkwkaxkpGXRn5LY+Tpwk49nkMaEVkoPZVMv6QA4WLLXvr71AKpBRZjgasGINjwLxfHyB/GyfFnsPv0d+CF+xBFZQlpU/NA6u+Rh+etQOAshePkEEZz8DADJxyHi7OIwjJCpwWDHfdh4+C9yOfXIHJyiEyaId45WxPH4j2NgMA6I+swzs11J8PWjddtjCycbzAX4kA0RiLoVAhKkqmDWKljBvYAACAASURBVNY4yTnQ72jcBTfm0C0YUicV37s6/tiBxiAivn6jA40QwgsOY8fxR1AqESDU4LmhQRNdGOi4DWsGPoTI6VLhpGgSx85+F88f/xu40UG4KEnFg5PZji1LPoylXdsBtyeR8onB1oVy/vEz8P4seFPwtDAvYSHgZe2WTDfEY37u2C08to1AIDkWFzo+hmApMFjMkpcek1ogtcBiLXBVAYQwCiRHfXZ6B3Yevx9R8CL8sIi8xzx1hjEDhOjDQMd2rOjchJ6WIbjIwg9nMVOZxmx1GqeLMwiDcdSCIqb8ftw4uBVDHTfCdZvru0ZtCG3zvSrnM/+jx9hIgqYl9Gc2LG93jepouW+OrxQDjoUHcr4riJ1vY4QgmZNPfn/SocW7Z3Vv9i7s81nYYn+rYCA+ixRCHqOgIRn3aAQ/PM8eq0/sBUfw3PHvoFx6AkFUQ8YJheMBpxtDHbdi7cAHEInTZ8DhJHYc/RKOjn0JTd5ZuUs/8uFHfehufSduX/kBNDXdYNILyg+hLeyeO47qxM9uHXI8VkwxJEezMbKgd60O2VIX9ebseFl4tRB3gWdpmspGl1jmKUJddYtaZ98YPdJvi+/r3KhNWtmx2AUvPS61QGqBxVvgqgEIuuz6CP2TeOH4V3B26n54zhyCKGtcXoDQ6cHK7ndg09AHEHqMHvB3xnEZVUVyFKKwiCCYQTUoI5dpRSbbp1UNUiVh8/jW2QO1MILn0CkxDaFkRglx149VbkEQKSFyPlGR13XlfE0B2L157BKsw2kkOIYiTawxkTrjXlIgFnRQrZDu3JxH32scHL+TgMoT36M5fldUju090BmyMoTXpiPjtXyEYYCMx+M9+ZkSOPn8NlYQu0ALpNRSMaiohSGyLuAGx7Dj+LdRLT0Cn+DOIcDz4KMfSzq3Y93Aew1ACBBWX8MjBz6FYvkZiTZkXUZ+AgRRGfnsKqzp/RiuG7gXVWcQGZf3xPuz5FJqXehdVEMHeY8aDLQ5rRfCDx3hOcQjqmDK3rF1v3GTqSTw8hBELry6oJN+l+vYs7TSpTEFoN8vaS5JVxA4OaILISRYh39iXoOcy3EQxUm9HiNi/Ll+bwoQFr/kpUemFkgtsFgLXFUAgaTDs1NP4IXjX4ITPI0ILbLYMv9djTrQ13ortiz7ceTyq4XUZnd+8c7Q7pYZ6uaOPgSkciGrTtAuxSLP7IuDIq1RHGfkIwiKCMI5+AQMbhaFbBMybjNCpwkR+H0Zk+ZoHB4LUkjUo/Mj0OF90ymQYBiFPnz+qTtiui4POc+T74nQJCkQu/tP7kx1d8qKjor+CSsIwpJ8TxD66lqcPHKZNmQ83mdBtAeSDAU+JzULStVRVPxZtGS7kMn2SHqGIMhWAihg8dQ5yvdVhdNBQiGfP0QBGblfBTUuSYoCEB6SZ6OzdJ0sas4SLOm8Fev63w2QgxAVMT79LJ46/J/gRQcMsTQP18kgCOk0M8jltmLr0Dsx1PUWwO2SCgfXtWWo7POgY8pIjTrfDAIQIGrcg2DROnHpCxH6cBwSXc08QBVhWIUf8nnU0q7LZ81JqkNSUMhqpct5pLupueFyPKMKXJRR84so1WaVf+FQrMuD52SQ9fSavCfIfcX6D3DbBBwoIEumec5NqSx2EUiPSy2QWiC1wEIWuGoAAh1OGE7jlZOfx/DEA4jCEXF2HspwHR+BewNuWvJB9Ha9E67bZoLFdM1KpNMSOu3NoJ+YOHgOKSwqIvTPYKZ0FKdn9mJ4ZgQz1aJURXhORcBEzqUDakFP8zJs6N2MrpbrEWUGxYlovj52wbKbxRwCfxiTxcOYLp3A8ekzqARl+CFFnaqohb7sFukYCEvoTNpyzVjddSP62jchn1uG0GmV0k7u7PXDag7qP8yiUt6PE1N7cGD8CGrBBPKeJ46mEvhoyjhwvaVY2bUR63q3IvRW1qmF4jzDcZyc3IVXTz+O6fIpLGlbhpuX3I1c0+2IHJaC0vHKfla/M5xEsXwA48UjKNXKoozYVehAZ8taILOUtQoKBpg2EIDwLfgRnS0jCIRcfSaC8D4ETpd8/5HRx7B7+I+Qc8YETACsOiE4KQAsfXSy8J2N2L7kreht34psdhCB0y0Ot1YbwVjxGKZKw/D9IrKZPPpbV6Or9TpEboeCBdMXwgMJrmPwa8cxVjyB0eIwzhRPY6ZSRDmooiVTRYicRDpIqMx6BQy1rsGqnpvR0rQevtNlQGnj6yagKCpLqmRk6lXsPfsa5qrDUoIbRFr2ySiL52ZQC/Nw3Ga05ZrQnmtGSy6PQm4Zulo3oaWwWgCrgrDkWMffl3IR0sU+tUBqgcthgasIIATw/VE8cfDPUS49jFpYQ5PnoRIGyLoZtDa/E9tX/BiyuWWy81X3yU+cp5ZgrfHbGiJOhtu5fAeI/BGcndmNg2MvYbJ0AlF4Ek40yeC1RBEkCExlRgnmc7/YidBdjxUd12F93y1oatoqu8J6TpnRh+Ashid34+jETkyXDgPRDLLOhOzyCQfogPmH4kIZCSkz/06QQc2AFRhsuwHrem9DV9sWhCBXgrtkkxcPJnF66ikcOPsM5sr7gGgUGacIP8zCcwE/pFMOETgDaMquwPrBD2Ow615NW5heCZF/BE8dfQBnpx5AxhlGEPWjo+0+3Ln6p+BluuPIhTjBWUzM7MHzw4+iWNqDJq+EalgQVcS1vffiuoG3InLbNYLgn8SOEw+ZCAJBj+6VabMlnduwduDD6sCD09h58hEMj30KiCblCMNiMMkLOm3utNsRuUPI5W/B6t77sKF3vUQf9p9+EqemdwHhWQFwlTCHXHY1VvfejqGOjYicbjhOCCeaQ7F0AIfHnsPxyVcQheNwogkgOoMIJTginsVojPIbdAZ5gNOLbHYTVnXfivX9twDecgEsDZ+ojMg/jl0jz+DU9FMI/ANwo5J8r2p2GI6HYDumifg8ORPpyiDwbsTNS+5Ff+dtyLhNAmgVB8a6FknC6uVYHNJrpBZILXBtW+AqAgg1lCsn8PjB/46o9jiqoYeMkxNn7Uc92DDwYawb/Bj8KCM56oVoZvOngu7GLfUuhBOcwv7Rp3Ho7KPwa6/AcWbFRyivgKFl5um1fJI70ozjI+MGsqBXo15kcrfjbWs/BjezFHAKSk6LZjE6/RJ2nvgaKpWdaM2Moxo2qdyNuU+G0ekMJFnCML5oOSg3IOsFmAuGsLTjbtyw9IPIZFfU5aPpSGfnXsPLJz6LseJzaPamRVioFhLA6K5Vr0PJaYazm7C856exedmPyvOozLGDUullPHbwbxD6T6PiF9GUcRFl7sGdqz+OtuY18iySNCCnITyLfafux74z30DWOYhKAGTdEvywF+1tH8M9qz8KZFYoGPCpg/AIquVHhAcg+hQOVRbbJYKwduAjgNsO+Mfw6OEHMTv7dwjCKcMd4DO4CKKKAIa814Zy0I18thd9bdtxy7IPAtnlqFRO4sXjn0WlslvGohZ6yDKX73aj0HQXbl56F5zMCom0VCoHsfPkgzg19Rg6vL0oBgWJaEQoy3e4DsthM1qyKWBG5bpFYcLNYjbchBsG3oV1A++B4xE42bB/ACccw/7T38He0cfgBnsATANolT4gwuWQ2aD6GAQLQmj8/9v7DiC5ruvK81OH6Z6MwWTMDDBIg0yARBYJJhCMYpQoWZQsq9bacsmrqq3asrTeqq2Syy57rbUsaUVRwZKlNaWiaFHLIDAnZBCRCIM0OWEwOXb4/7+/de/7f3rACFmtMtx4U8UqktP9+r/ze/49795zz/UJAJMpayNubLgXoeh10PQ4jyCl7+ZsbwtFEK7th7navUIg2wjkDkHwUpzWPtj2Q6TTBzh4UCqYU8x6E7bW3414/CZOzxuZOsLH4+nrAOgkOjT6Ct7pfgmaOM8EgE6jdNoTyIehF0PTItwRQRkAKhlooN/LMgZL3vQaLCy7A41z7wCMOTKQiwGc6nsJXUO/Bby+mfQ0EQ1Ku0cNKaZLuhavTz8aqC1zGi47PZLy34BlLsbqmvtQkr8F0CnwaDC8AZzufR6dQ89D97phGUDSjcDUbF7b0OPQEIZHaXUkeJJiWfGjWFnzKDSdSIoU+U1M7sah9m9h2u7jMgfRK9dYhc31n0dRfBU8Clj+mV4XA9jX8l2MTZH50SSXHTSNyEgYedHtuHnB/RDWEg6e5IMgCcIumclgAysKk8U+QbgPQi+C4ZzBM83/D6b9LDQtwQJEPkFz0KYsi4aUKEd+ZBWWlt/ILY+6USZT8W47drU8Ac/tREj3kHKpzg8eBpUytuDm+TfBNebB8MbQM/QG3u17Bp5z1u8qcZAWYYR1hwmB54UhQEOkKIoT+Zvk++x4RfDYQ0OD0Ndh8/wvoTC2zC+/0Gtt2Ol2vH7+x/Ccw1wSkf8EpSBpYiXLJnL2hMwe0R5JE2IjHrsfmxs+xX4Pnhb1v7eBrFIqKRRB+Pg/Z/UKhYBC4MoRyCGCkMDE1LvY3/4zuM67forfgevF+aR4Y/1dMCJr4HKt+0oBIrU4PbqTmEi04ED7U0il9sHSR+CIsLQM1uaxqU9l4WrEQ3GknSlcnLiAnrGj8JyTMLQp6FoMrrDZutkMbcKmhs8hGm3kNLIuenGw4ymMT74FV4z62Qi/L0GM+0LAMoTMQkTNGFJCR9IeAkSfn1Wg07+Ap1Whcc42LKh4gNP5HMScduxt+R6mkweRFmBRI10HxzetCvFII0JmGVyRxHS6H543ipri7VhadR88LSJDvphGz/BrONb1XWjekFT70wnXWIlN9Y+hKH4dPD1/hiBo7iD2tnwHY9O7oHs0oZGCvsskpjj/YWxqeASeUSsbI90OvNP1BtLJt32CQJSECEKhX2K4H0IvhuE047kzz8FNUYlj0s98eKzPMPVpCG0Ju1+uqFiP4vgS7lahMhIXY5x27G/9IdJOOyzNhU0ndmZZMSB0Ez5R/wnuaNHFJZzo/jW6hnfC83p5gJegsgAHbCrvzEU01IiwVQlDM+C4IxhJdCKqn4TwqKMiwu+Z9uqxrOI+LKrYzmJJ/igvgcHxY3in46fQxMmZ4J7RoQSOmoHrJJW6ZBkFWhiOMDC/7NNYXv0QXK1gZoCV/BrP9qSQSysNwpX+favXKQQUAh+FQA4RhCmMTx7B3vYnobnNHNjJmpfq2fmxO7C14U4IcxH79l9pAoGb2YggeCNoH3gFx3ueRkjr8uvO1LYYQ1nB7VhdfTPCoUYWIJLy3XMuYWD8MI72vgzbPgWLlPscrdJwUYclVV9CfekN0PRCGKIH+9t+hqnkPtgupZ39tDR1SOgpeMY61JVsRU1hPSwjD0knie7RU2gfehsQbaxykLMkSAR4PW5o+BI8vVyWOdLNeLn5GzDR47svUJeEBkerQnXBeiyr2AArVMuti2mX1PQChlnGAr8ZP3+3H6d6d6Jj8CfQMAFBpQj6rbkcG5kgrM0QBBJbesPY1/I9jEy+DUMb5u4LqecwUFXyp1hV+2mQEl8SBGpzfB3p5BtwBJUXSMlPJQYiCGuwoPx+LgXozjm8emEnJqd/CxMjfNKWLYwat5gWxbZjXe1dyKdTO2K+o6Lfbul04nAn4XsBppbirA13IegFyMu7FetqNwN6JTz3Eo50/gsGxl6GIM2BR90KSe5CsVGOyvy1WFh2IwqiVB4yYNsjODd4HF0jLwGihTNVhFlaxFFRsAnrG74Ml1ppaadiFB2Db+B031PQxAX/+2Oy+FSWFUy/TEN/qpQ1MPyuDspckNi1DGtr/wiVpXfLEgdrXDJtsTKrFLRefrDBk3oMKgQUAgqB3xWBHCII0xibPIo9bU/C8k5wnZ0DrFeIePxObK2/A8Jc8DsPsmGdgNuHg+3/hNHJl7ibgGrRnN425mF1zWMoK9zAdWFqoaMMhUGtj3YHjva8iv7R33CgpFQx2+xoMZQWfAY3zLsVrl4FiEs41vUUBscoJT/gp/BJhOjCRRzzSu5FU9Xd0I0KuFQyQQrJ5Bmc6H0Bw5NvQ/MoQ2HKdLaxErct+apcl67bOY0Xm78BTfTzKZiuj9Lg5E6YH1mOpvItiOWt5HQ8texJUiDllVLhIKA5bdjb/hzGJp7mcczyRC2gmysuyyDwe0iP4Y3gcPsTuDi2Gzoo0Ca4VVRHCA3lX8Giykf9E7A3q83xDb+LIdAgkEhxDRrLPwmXMghuJ/a2v4yh8V9B84bZMptyDSQEFIijoewzWFm1HY5O4kCpGQnMhTS3B+92/Qpj082kpmBRIJERwyhCScEOLKu4HkIvB9whnOn9JdqGdkLzLsIV4OwECR8tay1WVd2OsqItfIInEkdZpXTyDPa0P41E8i0u0ZBegVonY+HluHnR1+CaDX5XxwDO9D6FtsGXoHk9PkEIcSsod8uwaJYyUkSkKMMT9n0bpnhYVSS8ARvqHkAk73rel5TVBpZN77fOVhmE3/UxqF6vEFAIfBACOUQQEhibOol9bf8XhjjMKXVLJxFbDPl5N+MT83dAmEvZ1EYq/K/sJy1ITNeJXRe+Cd3djynbRMiw4HgW4pF12Dj/C9CsJXyio2mEskNBB7xJtA8exrm+x+GJ00wQBKLQtCii0W3Y2vBJwGqELsZxtv8VtA08D0+0+94HNJ2QJkPUYXX1Q6gqvQ1Cy5NZABIWil40X3wDHYPPwMSAFC7Sp2srcO/yv4BrVHEZwHBb8Pq5/4Nk6iR0LcEpcBIDRowUEm4cjt6E+aU3YEnZKphWBQ+m4t77GddHAc0+hVcuPI904kUASRhUnyGTJS4xfM7PIMRmSgyGGMW7nT9C58huwOuHhikOiFTzX1jxp5hf/ginzRkvt3uWDwK17kl9g4MSLjE0lt8FVyuF4V3C4e430D/8AwgxDM+jzhQgJSKwjBLUlX0RyypvgtDn+tQmYwkNcREnu3+N4anT3GFBn0FZh7BZhPLiu7BgzvVsxkSdKG39O3G87xlEtA7OlJAFN3WFlBfehetr74VtLIZlSO8EwtH0unC86xn0jT6LaWcUeSa1jYZgWY24q+l/MCFl4kTmXR0/wODEfoC6Iuj7QaSAyRORMpmVyRhoEUEgEjQGTVuAwsJHsWneTRBGJb9OGjEFnpxX/l2+sm+8epVCQCGgEJAI5BBBSCJBJ7rWn0LYB2BoDmwvBsvQYeubcMuCe2CG1/FpdrZt7cd9EdgkyGnBi81/h7B3klXzNrv0lWNOwXbcUHcfYMzzlwlOdvTQdmCnWvDm+e/Dc/azLbCuUQtiPvIia7Cp4VPQQ01+ffowDnX+jMWPJAKkd9NJ1NObsL7uERQXbJXmzizM0/mU3jm0H819/wxPXJoZMuXq12FH019CGJRBoFnXAzjd91u0Db4Aw+vivn0W+MHkIVWkiSBSEAvVobZ4HSqL1iAcCjosiOS40O3jeP7c89Ds1wCagOlPhdTMldhY90e+BoEIgu/qKIZxtueHaBncDUGaBdApnEyFoigv+jTW1DwEz5jLZQfd6cU73eSD8Coc7qgIRIpzUVl0PRaW3w5bmwPdm8DA6D4cbP8mNMpKsHiSSBRlRYoQz/8cbpp/O4ReO8vs2Te2dnvxbvfTmEhIgkBulvRj6EUIx+7CumrKIJRCExOcgdrX/nO4zmnOyhBBcLwQFpX/CZZW3gUYZZxBkTM5yJDiIg51vcBZIs2jLI1PrfR63L3sr7mkxZkctwtvnfsmplPUvUAY0jVQiYEyMmSIRG2sCbgeGVXlMQ7034SGaa3HhobHEM9bCrDZ1of/qMzBx/01q98rBBQCvwsCOUQQUkgkz2FP6z/Bsfexrz+d8klzYFrLsbL6AZQUbuMH/5WLFOlBncbk9Gm8ff5/IYR2LjGwMZBWi5rS+7Gi6maAT3azJzHK2QjUFrm39UcYmjwASxvlwEaCRStEBOGzCEWa4Ik0RiZP43DHE/DEOX8VEvVFAGM51s97EEUFW2bcBykwkiaiZXA/Llz8CYQYlCd7TcDV1zJB8Ph66BJSSKZacaL3RfSPH4SFi0w9TJ3q65RNABOStMiD0KtRkz8PtSUbuNfe5THXggnCb848C9N5VXY6cBnChGauxsb6z6IoRhoEIj7SntgQQzjU/jj6xvZIfwgtzUSDDIAc8x5sW/AgIpFF0k6YCcLrSCdeYrMgdhP0rZYri9ZjYfltnEGgToWpqaN46/zfQ/da4bA+gLoRqBkwjEj0PtzaeD9gLZasd5YJlWt34WjXk0inz8DzqLNE6kpIs2FG78DmeRvgGRWsB5hMnMfBtu9zFwztk2ycSay5qOK/YWHFndA06vjQOYPBboziEg517UT/yDPQPCJq8jvg6dW4e9lfMUFgDYLbjtfO/A3SdiuTuZnR1+ygSGZP5NpIhl5R/r4SCbX0CMbcFVhecQsWzt0GR58DU6orfaw/bFiWEin+Lg9A9VqFgELgwxHIHYKANJLJDuxtfQKp1H5OhZNfAJ/VjGpUl9yLpZX3QGiFHIiu9EfzUly62NPydwihx/dXoGp+GerLHsTSim2AQant4OGdSflqog+H2r6HnrHDiBrU+SDYxdEKbcamhk8jElnMHQRjU+dwpONxCPcsO+1TCpk0BdAbcUPdwygu+MTMnICZ9sWLb6Nz4El43jBnK9hhUV+DHU1fg62Xs9bAps4FbQrTifM4278bFyeOA6LHdyMksRvVvSknkZancsQQDt+A62t3sDaB0uC6fQrPnHkOlkMlBjr9Ss8HzViFjQ2PXU4QKMMh+vHG2W9jOrmbZ2HIH+om0RCO3IWbFzwMI7SYxXfSSZEIwiscFMl3ger4DspQWXSDP4uBOgEERPo83rrwOJKpQxDeGJsV0eupg0CztmL7okdhRdbMEuvJ+5BOt+Nwx08gnBbf0pi+F4DQ8qGFbsHWui3wzGrO5ExOn8O+tieYIJi64XdWRLCo6i+wgFpTWYhIBEHO22CC0LkT/aOkjeibwcbjDMJfwTUXSr0AZaBO/zVAJSQWJcrWTKZUnswKUEss+SFIs64QPH0BqotuxPKqrTCtGjZNmuWP6b9HmixJYpL53qlMwpX+davXKQQUAh+FQA4RBAHb6cf+lu9gKrFfthBq1KdOZjZhxPJo4t8j0K1gDsPHfzHk49rmzMQbZ/8WIZyF49EpkoR6hagqfQirqm71CUIwSClwtnO5931fy7cwkWyGRR0VHinPixCP3YpN9ffDDM2HEEmMMkF4AsJt5oAirYsMCK0e6+seRXHhLX5AkFdEgfVQ12sYGHvGr2nLoT2uvgI7mr7OA4ssIkj8LpqjkISTbkP32Hn0TXRiOtmKlNPLbYiUIZFujRT0BGxUo7poG5bXPAihlSAkLuCl88/DTr7gEwRZPmGCUP/HfomB/BTk8CfP6cHO5n+A5u5iTYYcp02tmB7KCx/AhrpPQVCbIxME6mIgJ8U3fYJg+RkE0iCQUdK9gF4ouw5ENw53/BJ9o68AXq9vEkT3IY60thrbF30OebEN7yMIwm7DgbYfwHU6JdHgNlcyIYpBhG7E1rob4Rk10DCJ8ckT2NP2E7jOEZg6mNToiGJh5VeZrJB24oMJwr/64kPfuEhfgHt8gsAOmOnzeLn5r6F7RBDkfA3piU0Ex4KlyzmjtheBp1XCtOajoXgZ6kpWwQo1wGE/D0kjMgJMOc8iMwvS79qYEWh+/PdbvUIhoBBQCFwTBIE2KdxxHGh9HOPTb3O9nnrm5WN1GkJfjU31jyA/vhHQaBbD5eKu2Q9e+R6pJ6B0Nqnod54mDcJ+dhy0yelQj6Ekfwc21N0Hj5z4ZpzwKGjRWycxPHEMe1qfQFjr4iDJA51QipKCe7G5fjuEXsOn96HJszjS8UMI96Q/eVGecm3U4Pq6x1BatJ3LIsEQJjIY2tX+IiamSHFPrZEBQViKHU3/HcKo8ScsSqc/2dpJSsY0HGccwmlH1/BRtA+/Ddc9B9eL8HRESnOTuDGFG3DL4j+DFZoHy7uIfR0vYHjsV1zKkKfVFDRjKTbWfwFF8Ru4zVGm7tNw0hfwwul/RBgH+BpMPcTuhRHDQTz+Wayrexi6QW2Yuu+DQBqEt2RbH7c5kvMldTFc5zspFjLF08UwCzNbLj0Jz23ldlIK35oWR8Jbiu2LvohYfOv7zIKoC4MIQsrugam57CMRMShM58E1N+PGhht59gTZLI9PHsOBjp/AtY/wnEWiaiCCUPHnWFSxA55GhlC0T9/KWgwywbk0QgSB2l+JAJoQ+hLcu4xEivNZcplKnsFrZ/8WhkclhoBI0oCnItakUCaHSkr54WLUFzdhTv4yRMK1fjuoFDDKfENmMmSmrZEpo/I+UM95hYBCIOsI5EwGgR/cZOoz+DxO9/8Wpkduh3L4D9WSLaMI8ehNWFnzMCKRepma9rsZgrO2nJZIwdk/TQuP1fKe043dLY8jkdzHvyPhGp3owtZC3FD/J8jLu04ODuKRzb4Tnt2GQ90voX/0NRgYlJMfdQcOqtAw94/RVLEZNkqga2lMTJ3F3tbvw/ROSd8FDbA9E4ZeghXVX0Bl6V1yBoCfSiZfgDdbnkea2+uIIPgBxGjC9qVfg0PEQyM3PtoHI8OaA/ZG4NkLNjwxhrN9T6Fn+Gme8WAQQfBsWQYxV+P6hi+jODafjZXaBl5GW/+3kHRSiJoRJF1q8azBisoHMG8OdViUyhKIN4a+kT043PXPsLwuFh6G9CQPHzJ0F9Ho/di24BG4FJCZIFAXw8tIJ15mTGUXAzk7UAaBfBA+CU8vYs2H7SSRSrfh9XPfhC4Oc0bC4kmbNAuhBhsa/gylhbdxpl1aZMu0u+d04EjHz5BKUwAnHwfCkbCNwjU34sb6bdyOqHspTCdb2OTJsd+B48XgeVMIGxpW1P4lKkvu9CdmUkD2B3mJMXQP78G73T+F63aylTMJDQuja3DTov8KYcyDJxIYnz6NvS3/AM274FtcR5EXqkBV/mKU5q/kQUwRMw7diLGDJWW8KFtBzxWoTQAAFpVJREFUokQebMXjw/3skT9mLDOumu6vIghZfzKqBRUCCoEc6mKgE7w3jenECbzT9RLs5Js8YIfG/lraOJ/8U95iNJZtweLyHdAtUvpTTVlmEnhEMynrQdMPaTLjNCCSSHoxRAwdJ3p/g84h6mOXYjSaPJgW+Zg/524sqbgZhtWAJLXd6dT+NoiR8Xewu2MnTO8EXJGCyZFax5RYgFsW/ifE8lbDoIDgpTA82czaCctr9vUECRbRCczByurPo3oOEQQaE0wkRIdnn8Gr55+FZ78NzxuDoZFLowGhr8EdTV8DjArpSUDaAvcShDsJzSiCTvMBeJ4ABeIE2vqfRufgU0g61P5H4dSWnfjaGtzY+J8RjcxnceHw+F4cbPsuHPcCQrrB8xVCRhxz8rewLbMVbmQhYiLZxv4M/WPPwtLGICjIUvmChXhhhCK347bG+yDMRm4HlQSBjJJe9+v98ozsYI7f5ngPGyXJLIjLw5aOtD+O/vG90Jh0kXYiD54Xw7q6L6Oy9B7ODMwMqiIMRCdOdD2JkUQriyapu8X1KOgWAKGt2FJP7YM0i4FErmexq+XHcO1DvqFSElEzH8uq/xxVpdu51ZQHL9PkRxJZeiPoHtqFE90/hivIhpocF03khVfilsVfB8w6eN4khsZP4WD7t7lMQkSJGIzjxQG9nE2hiqOFiIeKuQ02P0RttHHMic1FfrSGTa9oHgWZcMk5H9KhgsofPP/RT4RJq2WZnZBEUv0oBBQCCoHfD4GcySDIGrjNQ3FaB17Hyd7nkGd0waN+dlb50ysK4WmlmJu/FpUFDYiFimEYEQ5uE+kkUs4YxpKjSNrjSLsOkl4Jls5dhaqCRvSPHcGRrl9AF8d4BgNZOFOwdrU6VOQvQ23REuSHy7jHfmCyFReGjsKxT0DHCFxhwjRCLGwsia3H+vpH4JKpDzssJjE2eQp7Wr8PC5SCplwEtQbGYKMKa2s/i/KS231lgnzwO+mzeKPlBYg0lVKmOeix7bO+Anc0fR0etzm6SKd7caz7t0jYQ8izYiiMlKEkrwx5poWEPYXWod0YmzrAYk7pzkeBy0AkfD22NH4FGqn7NQMifQpvXngSidQ+GJjyhwsRnShHVeFmlORVsyHSxYkOjE2fhOZ1+AI8ImCkb6CgFUE4uh23Nd4PzwxEil2+DwIZJVGJgcYoC57FQCLFheV3sEeBbFgkZeEkugZ34njvC9DEu5wZ0sh6GClUFN6P5VWfRCQyn0sBM5MJnF4c6fwlEqmzXEbgsgFnjvIRit6M9fM2c6mHdBpTiXPY3foDCPsgZ1yk7wP5N/wXLGANgmznDASBmhhE88XX0T7wc/ZnkEOv0rDMRdi+9BsA6V28SfSOHsfRjn+EhX7OeNCcBeru0Eh4SNoREiV6lD2gcgLpHPLYACoaKkV14WLUFq1ALFLnz7zghldfEHm5MFG6KxJafpnr93s2qHcrBBQC1zgCOUUQ+JQJF4nEKRzpfpHFioY2ygTApvHGHBgSSIkoolYZNL0MtpfH2YOwPg7XvQTdu8iZBAflKM2/Gauqb4cZWoBkug8nuv8V/eO7ENV7kRJk9kP5bGp5jEAjkx6dDIocWOjhEyW7CNLERd1E0i2Aaa3A+nl3oySf6vYUxMDZhclpyiA8LssiLK6k0cOAoy3DlvkPIR7fMhOYODjQ+OXOlzE+8RI01gVQELahmU24dQlpEKp4/sH45Cm8deHvEdU7Ybt0nYUwjEpYRhRpJwnb7YEJGoFMGRHpj0D7bijZhiXVn+EaOBsuiT40X3wTbYPPQbitjCOdYAlLIl1UPze1JExthA2qaIomCy1Jv8GDmigmGwhH7sMtjQ/Ds2gOxewSA/kg0L7DXHKhEkNl0WY0zr2N5xnQOhRICdvpRDP2tf0cieQrvmaiBKY+AhvLUBRbjyVlazCnYCW7RVLZxHH6cLjjV3DtEwCJNalNVKMBV/mIx27HdTUbIfRKziBMJs5h14XvwXP2cdeAoSW5jbJu7lexrPIeHoIVjEeSbaz9ONj1MgZHn/LFopRdIH1GA+5e9jdwDTJKGkfX8BGc6Prf8MQQizYJE+oIobITtXWyt8KMJkYKIS0twSWpKdGI2uJNWFK+DeEIDbkiYSNNcpztoBgMa6J12Qj7Gn+sqe0rBBQC2UAghwiCkN725EwnppBInMWx3pcxPn2MHekMCjzC9scok2e+HAXNw5jYlY5mK0zD1BJIezWIhlfjutr7UBBbye6CrjuFZPI4DnTth50+Ck+0sYBcjuWV1r8uyDuAHtLU604/NGgHCBthpLVaLJqzCY3ld0KjYUo80leOW56YbsHe1h/AcOnkSta71A9vwAvdilsX3APPamKTIymd1GCISzjeuwd9w79ASOtD2iWL4gis8PXYtugr8PQKOYjYbsOeC99GOk2nbbIZpj3nydHOsKEjyV0MsnxB457DsEJbsKHuk+zRIF9PgT4JN92CPW2/QCr5OtIixcGcZhWEdRvTboxr9eQuGJyuKcBRkynNKKAMCo1DjuQ9hG0LHmBrYx5fLYa4xGAnXvDHPROKSThaNSqLbkXj3E/A4y4GauOUYkuIIRxo+ykGx38NSx9CwillwySaeJh2Q4CxBMuqHkNj2TqetwC3D8e6n8PE9CEWdLJOhHwQtDIU5t+NVZXr4RllnEGYSJzHrpYfwbP3MOmiMhJlGmrLvozlVXfBo4mdvuKDbajdfhzqfhUXR57iLgZST1ApwNWbcO+y/wnbmA8DY+gaOoiT3d+BATJTokySDiFoT1JXEmRvKNtCQlTqbtBYCJlkAalmlKO25F4sKt8By6IplXLgVEaoOHtgUzCAOhuPB7WGQkAhcC0jkEMEIbCqld0HnkhCc7vw7sVjuDRxArZNHgP90LRCDs5y2gAFADLyIVGgxfV1RytFLLIWyys2oyS+xFeSS1Eaue1NJc/hTP8+9I2/Awuj8sQIOmlSipzG8BLpkMGfTuaeVoCQtQwLyzZiXgmNRi71OwFkwOdOCbsfR7ueweDEG9A9mtKYB5fS9yUPYFnlZphmuRQpUk2dSI1IYnz6DA53/hxpuxkWUkihGjVFW7Gi5n7oRpEUJXpySNDZS29CuJ2cYs/04NMV03rU+mdCaJUoilSjbs4tqC75BJMU3xtR/n2IUfQM78LhnlcQ9k4g6U4hpFtwPRoARcFMegPQyZtEdnSKlQGM9kiOjdVYUXUvGsq2QWgkACRSlkLH0DtoH3gOIZCPAJ2MLaS0RVhecRPmFKyGxxbTmXY+Mn8aHH0dB7p+A0McQtpNMzmSItEwXJ1MsR7lFkGhxbn74dyl3egdPYSI1oO0S4JVmmgxH8sr70RpvAm6QZkSB2n7InsmDEy8jbBOHTAapt25WDvvS5g35xYetx1kEEjYaXkjOHtpH1oHnoXHLappJEUxSmJrsHXBl2U7pxhG+8BunO3/ue+VEJQF6DsVlApY2TCrw4FKBMH/s9l+m7wets1/EGZkLTQ9wt9hpouUanrPREflg3AtP9LV3hUC2UMgZwiCrAxLhbl8QFL7QRKaGMZU6hJGpnvQN9mHgakRnggoxBQPH6KTIwUlKjeELFKWV6OuuBGRSAMHd/k4Dx7k5CkwBccZwkSiB13jnbg02YG0PSBHA7MVMqDredD0YhRGy1FfWI3S2DxYVg0LBTMP/sxpmwSRg+OncWHoOC5OdiNk6KiI12Lx3E3IC9dK0yTONvhnRhKreSO4MLAPrcNnkHJTKMurxKKyVSiOL+V5Dxw+PAdwL6FvrJnXTqbbORNCWRadnBp12V4XNvNRXdCI+uIGRELzAINIjHRRkHun07vgYDcw3oyT/fswmTgKMoLSNcomkEiSiEEB45j2qhAO1WJurBSl0RgiJpV0irmOblhz2WwqpEuVAHUXtA4dw+h0N2d4iBDUFNSjrrgJujUX2vvq6QLC6Udz/z50DL2ClN0OHdOwjDLAXI7l5RtRW7IGIHEjeS1405hIdKB1+ALGEhdZsxExLMyJ12HBnLXQfPtkJiFeAsMTp9E12oyuyWEUWCbK41WoK1mDSLiG0/tUjqLsBwshvTRc5yLahk5gONEHVwjkhwpQX9yI/NhSeFoMmtOJYz070Tf6IjRvYBbpmm1yRKko0kYQMQjKA6QrCQiWzmPFm8pvR335g6xPkELM4B4F/y4zTOpHIaAQUAhkA4GcIwg8MXHmweq39VHPPJ30KcUsBjGZnoIrqOSQhhDkamfAMAoQDxcjZBbB1fJZkCbV97PXo9O2Jh3vvBSfTl3nElLOBGsJbJfG82oIGSFYBmUOStjoh9ai1HNmSFTw4KdbKE2ETEzCcweRdigr4cEyS2CY5VwDp/eRwY/syvRr+pT9EEPQxSALKi0jX5YueJQyXbfLLYvkKEmZj1S6m4lMyknD03SEjRDX6Mn/IGzmMSmguQxERuS0QDrhUrCabcZDfgQTmE61on+iBePJQaScBF9vxAwjYhWhJFqAWKgEeaE50AyafEgpdZo3QK17vuOfRxMlJUHSRAKOOwLHoSFGDgydCEsRPM6CyNbHoLTi+wxKwyOnD6OTzRhNjnBWIBaKozivDvEoiRQL/GDrexYwEZzgcdqum4apm35XRym3V3KslxZInNXQxSgcl8oRFgyzmAWjniZHdrMfBf/l0XeA3kOmR+PczsjZGCZe9PlhJlWJxLs40P4vsO3j8LwJP6NCRID2T9hK3UDGCTHwSfBJrj+ZA1oJ5hbcirV1X0QK+TxLg34liw3yexSso0hCNh6Nag2FgEIgpwhCJuxKL8JArCXV5XLuAAUh+v/BQ1RKvSjw02tkWWDmpD4zWjf4olCnhH96nDVyVwr2Mi1nwefRu6Qw8r1nvUBjH5gxkXCOBG4yGMsATaJBqY2QQSkIBTKg0FRKuTb13kvDZIp0chywbFmUAkpyMszYQHEwnNmrDEvkV0DtmbKLgUSGGYIQtMwFXhESCdk1wcgJEknKDgSyZpalBbljKj3QtVFAzgRESbIkWSJTJPl5LNjjN5I+hEiYXImCriQIsstCmldpMKldker4esh3PKTtS3oY+D4QkXP9E3+gMwnII63HxGzG3pgElUEtX4pd6VqC1xE7IGwJp8z9lLbY9L9Ia8KiTF2WgaQhQwo9w2/h3a7vwtQGIUTKJy6UESLyJb+P8ocyXqRdSfoTQalsQutQCYxIXQUqi3Zg9bzPw0Hcb5sNruRykqDaHNWDXSGgEMgGAjlGECRFCB6XHKilemAmp5AZlcvd9f7DPnhP5uEvg3TwAJ7lVscuPP5vWE0enHAzZzn54GcFo6++l33z9PPeBDC/kkmH1ARI10MZbGTmIBjrS4E1qPMT8QiyGTLQsKyCWxUDMhKccwN73iDQyiMwBTWJRUCk/DVoGRZtBvuXag2NP4CCWYaISDpCCMsAfvnAqiDzEnxNZYCVny0/i7IIM7ubIQ0S88tthDN9/ZLqyE8Mdig/QXZN8HVToOdfyrHItIPgmxEI/OR7SD9Bd5rslwkPiUsGz+B+Ba2ahk9uZj5Rik39kzxfkX8f5Fcnic7BV3C295tcvqD15ffAHwnOL5qdMSDba7qfRA6IcVDGgbJSxVJ8WX4Lasvu4NKFv2P/bgfERvkgZOOhqNZQCCgE/GecQ1HiGvyZHQA/KiX7Qa8LzuMft8aVvDf47MtP6Jkb8uG/z+RLMiH4w+vPwfpSZOePQp5FkDIBR4bn4L8/6PPf+/8+CL8P2s+HvS+T38js+6Ow/aC9BO+cvbePu87Z63zUn8BHve69v8vshchCAhdH9uCdjh8hTz/H5khsD01mXERIiCiQyJPxtphsEXmi+QySmtDvKOhHkB+/G2tr70EkVAUXUc5SvBejK93PNfjnrrasEFAI/BsQyKkMwr9h/+otCoGsI0CBmkomlAWx0y040v0CBsZ3w8AwTI3aSqlrhkyhqPxC3SmkK5FzMzTOLtCPwwOjUl4NCqOLsGjurSgvWgfHi7I2IhApZkhChhwqDULWb6laUCFwTSKgCMI1edvVpv+QCMigLYtbnpjEVOIsWgYPYWDyBBynE0KMcUmJNDG2kK6HZJctPRpotgSZIUW59TQ/bzWWzr0OZfFFcKlFlkdiy+KOzPVkxIlXkkn6Q+5bra0QUAjkFgKKIOTW/VS7uWoQCDQYFMRtOPYAhqfOomfkBLrHz8ETgyy0pAFP0h2RujxkAcJGEcpjtagpWoLS/KXcIktzGgL3RFdQK23Q2yE3rLIGV82NVxeiEMgZBBRByJlbqTZyNSHAIlM4rCDQ/Emf1PGheZOYTA6xL8d4agjT9hi7Kup6FLFQAfLDJSiIlKEwUgpNz4fQSG9A80QCa2XqYJGdH7IzR5GDq+m+q2tRCOQSAoog5NLdVHu5KhCQaf/APyLwMwicE/3SAM3p8FLSzIrKEdSBQcO7qEOBjbECN8VMB817hZ+Xd3FcFVtXF6EQUAjkEAKKIOTQzVRbuToQkIE8IAmZxlPZmRCICaVGQf4TaBaC3wfv9/0UZrZ1+Vof1uGiyg1Xx/dAXYVC4D86Aoog/Ee/g+r6r1oEpEeELDJIIiDFhdLW2fZNkzIeD3Ijgd8E/XtgMDVbiBi4QGS6FjKEJPDx+PB216sWLHVhCgGFwFWHgCIIV90tUReUCwh8mK+FpACXG1FdbmcdZBTole8P9O/1jMh8zvuJQy7gqPagEFAI/PshoAjCvx/26pNzHAHpBkn/vLdUEGyc9AfknChLBx9kaz2bTMw2uQpW+DizrhyHWG1PIaAQ+AMioAjCHxBctfS1jcDs1P8HBfrMXIjfryTwQU6U1zbyavcKAYVANhBQBCEbKKo1FAIKAYWAQkAhkGMIKIKQYzdUbUchoBBQCCgEFALZQEARhGygqNZQCCgEFAIKAYVAjiGgCEKO3VC1HYWAQkAhoBBQCGQDAUUQsoGiWkMhoBBQCCgEFAI5hoAiCDl2Q9V2FAIKAYWAQkAhkA0EFEHIBopqDYWAQkAhoBBQCOQYAoog5NgNVdtRCCgEFAIKAYVANhBQBCEbKKo1FAIKAYWAQkAhkGMIKIKQYzdUbUchoBBQCCgEFALZQEARhGygqNZQCCgEFAIKAYVAjiGgCEKO3VC1HYWAQkAhoBBQCGQDAUUQsoGiWkMhoBBQCCgEFAI5hoAiCDl2Q9V2FAIKAYWAQkAhkA0EFEHIBopqDYWAQkAhoBBQCOQYAoog5NgNVdtRCCgEFAIKAYVANhBQBCEbKKo1FAIKAYWAQkAhkGMIKIKQYzdUbUchoBBQCCgEFALZQEARhGygqNZQCCgEFAIKAYVAjiGgCEKO3VC1HYWAQkAhoBBQCGQDAUUQsoGiWkMhoBBQCCgEFAI5hoAiCDl2Q9V2FAIKAYWAQkAhkA0EFEHIBopqDYWAQkAhoBBQCOQYAoog5NgNVdtRCCgEFAIKAYVANhBQBCEbKKo1FAIKAYWAQkAhkGMIKIKQYzdUbUchoBBQCCgEFALZQEARhGygqNZQCCgEFAIKAYVAjiGgCEKO3VC1HYWAQkAhoBBQCGQDAUUQsoGiWkMhoBBQCCgEFAI5hoAiCDl2Q9V2FAIKAYWAQkAhkA0EFEHIBopqDYWAQkAhoBBQCOQYAoog5NgNVdtRCCgEFAIKAYVANhBQBCEbKKo1FAIKAYWAQkAhkGMIKIKQYzdUbUchoBBQCCgEFALZQEARhGygqNZQCCgEFAIKAYVAjiHw/wEqr8VzSLBDlAAAAABJRU5ErkJggg==;" vertex="1" parent="1">
          <mxGeometry x="54.65" y="50" width="120" height="60" as="geometry" />
        </mxCell>
      </root>
    </mxGraphModel>
  </diagram>
</mxfile>
